Kecal.glyphspackage
{
glyphname = exclam;
kernLeft = KO_exclam.ss01;
kernRight = KO_exclam;
layers = (
{
layerId = "522FD917-7CD6-43A0-922F-6555542696CE";
shapes = (
{
closed = 1;
nodes = (
(208,270,l),
(230,740,l),
(66,740,l),
(88,270,l)
);
},
{
alignment = -1;
pos = (10,0);
ref = period;
}
);
width = 296;
},
{
layerId = "AF447C8E-6A86-4BB0-AFAA-0E31F633710F";
shapes = (
{
closed = 1;
nodes = (
(162,208,l),
(174,740,l),
(90,740,l),
(102,208,l)
);
},
{
alignment = -1;
pos = (9,0);
ref = period;
}
);
width = 265;
}
);
unicode = 33;
}
{
glyphname = numbersign;
layers = (
{
layerId = "522FD917-7CD6-43A0-922F-6555542696CE";
shapes = (
{
closed = 1;
nodes = (
(232,0,l),
(332,720,l),
(204,720,l),
(104,0,l)
);
},
{
closed = 1;
nodes = (
(480,0,l),
(580,720,l),
(452,720,l),
(352,0,l)
);
},
{
closed = 1;
nodes = (
(53,422,l),
(657,422,l),
(657,542,l),
(53,542,l)
);
},
{
closed = 1;
nodes = (
(28,188,l),
(632,188,l),
(632,308,l),
(28,308,l)
);
}
);
width = 685;
},
{
layerId = "AF447C8E-6A86-4BB0-AFAA-0E31F633710F";
shapes = (
{
closed = 1;
nodes = (
(206,0,l),
(306,720,l),
(238,720,l),
(138,0,l)
);
},
{
closed = 1;
nodes = (
(426,0,l),
(526,720,l),
(458,720,l),
(358,0,l)
);
},
{
closed = 1;
nodes = (
(63,438,l),
(627,438,l),
(627,504,l),
(63,504,l)
);
},
{
closed = 1;
nodes = (
(38,226,l),
(602,226,l),
(602,292,l),
(38,292,l)
);
}
);
width = 665;
}
);
unicode = 35;
}
{
glyphname = dollar;
kernRight = KO_dollar;
layers = (
{
layerId = "522FD917-7CD6-43A0-922F-6555542696CE";
shapes = (
{
closed = 1;
nodes = (
(376,696,l),
(376,830,l),
(256,830,l),
(256,696,l)
);
},
{
closed = 1;
nodes = (
(376,-109,l),
(376,20,l),
(256,20,l),
(256,-109,l)
);
},
{
alignment = -1;
ref = S;
}
);
width = 612;
},
{
layerId = "AF447C8E-6A86-4BB0-AFAA-0E31F633710F";
shapes = (
{
closed = 1;
nodes = (
(323,696,l),
(323,830,l),
(259,830,l),
(259,696,l)
);
},
{
closed = 1;
nodes = (
(323,-109,l),
(323,20,l),
(259,20,l),
(259,-109,l)
);
},
{
alignment = -1;
ref = S;
}
);
width = 567;
}
);
unicode = 36;
userData = {
KernOnSpecialSpacing = {
L = symbols;
R = symbols;
};
};
}
{
glyphname = percent;
kernLeft = KO_percent;
kernRight = KO_percent;
layers = (
{
layerId = "522FD917-7CD6-43A0-922F-6555542696CE";
shapes = (
{
closed = 1;
nodes = (
(181,0,l),
(688,720,l),
(577,720,l),
(70,0,l)
);
},
{
closed = 1;
nodes = (
(644,-10,o),
(719,48,o),
(719,173,cs),
(719,296,o),
(648,355,o),
(561,355,cs),
(477,355,o),
(406,297,o),
(406,173,cs),
(406,48,o),
(479,-10,o),
(561,-10,cs)
);
},
{
closed = 1;
nodes = (
(520,75,o),
(494,109,o),
(494,174,cs),
(494,236,o),
(520,270,o),
(561,270,cs),
(601,270,o),
(630,236,o),
(630,174,cs),
(630,109,o),
(600,75,o),
(561,75,cs)
);
},
{
closed = 1;
nodes = (
(273,365,o),
(346,423,o),
(346,548,cs),
(346,672,o),
(276,730,o),
(190,730,cs),
(106,730,o),
(34,672,o),
(34,548,cs),
(34,423,o),
(107,365,o),
(190,365,cs)
);
},
{
closed = 1;
nodes = (
(149,450,o),
(123,484,o),
(123,549,cs),
(123,612,o),
(149,645,o),
(190,645,cs),
(230,645,o),
(259,611,o),
(259,549,cs),
(259,484,o),
(229,450,o),
(190,450,cs)
);
}
);
width = 753;
},
{
layerId = "AF447C8E-6A86-4BB0-AFAA-0E31F633710F";
shapes = (
{
closed = 1;
nodes = (
(157,0,l),
(680,720,l),
(600,720,l),
(78,0,l)
);
},
{
closed = 1;
nodes = (
(644,-10,o),
(719,48,o),
(719,173,cs),
(719,296,o),
(648,355,o),
(561,355,cs),
(477,355,o),
(406,297,o),
(406,173,cs),
(406,48,o),
(479,-10,o),
(561,-10,cs)
);
},
{
closed = 1;
nodes = (
(509,45,o),
(474,90,o),
(474,174,cs),
(474,257,o),
(509,300,o),
(561,300,cs),
(614,300,o),
(650,256,o),
(650,174,cs),
(650,91,o),
(613,45,o),
(561,45,cs)
);
},
{
closed = 1;
nodes = (
(273,365,o),
(346,423,o),
(346,548,cs),
(346,672,o),
(276,730,o),
(190,730,cs),
(106,730,o),
(34,672,o),
(34,548,cs),
(34,423,o),
(107,365,o),
(190,365,cs)
);
},
{
closed = 1;
nodes = (
(137,420,o),
(102,465,o),
(102,549,cs),
(102,632,o),
(137,675,o),
(190,675,cs),
(242,675,o),
(278,631,o),
(278,549,cs),
(278,465,o),
(241,420,o),
(190,420,cs)
);
}
);
width = 753;
}
);
unicode = 37;
userData = {
KernOnSpecialSpacing = {
L = "spaced-off";
};
};
}
{
glyphname = ampersand;
layers = (
{
layerId = "522FD917-7CD6-43A0-922F-6555542696CE";
shapes = (
{
closed = 1;
nodes = (
(732,0,l),
(345,420,ls),
(263,506,o),
(253,533,o),
(253,565,cs),
(253,597,o),
(275,628,o),
(322,628,cs),
(370,628,o),
(394,599,o),
(394,560,cs),
(394,514,o),
(362,475,o),
(281,444,c),
(345,358,l),
(461,401,o),
(522,473,o),
(522,557,cs),
(522,663,o),
(435,730,o),
(318,730,cs),
(198,730,o),
(116,656,o),
(116,564,cs),
(116,510,o),
(133,470,o),
(194,400,cs),
(549,0,l)
);
},
{
closed = 1;
nodes = (
(515,-10,o),
(684,152,o),
(684,388,c),
(547,388,l),
(547,186,o),
(428,108,o),
(307,108,cs),
(216,108,o),
(164,147,o),
(164,212,cs),
(164,266,o),
(195,306,o),
(306,348,c),
(238,434,l),
(92,383,o),
(18,309,o),
(18,198,cs),
(18,76,o),
(128,-10,o),
(293,-10,cs)
);
}
);
width = 738;
},
{
layerId = "AF447C8E-6A86-4BB0-AFAA-0E31F633710F";
shapes = (
{
closed = 1;
nodes = (
(691,0,l),
(299,425,ls),
(229,500,o),
(210,532,o),
(210,573,cs),
(210,631,o),
(252,664,o),
(310,664,cs),
(368,664,o),
(415,630,o),
(415,572,cs),
(415,513,o),
(363,467,o),
(265,438,c),
(304,387,l),
(431,433,o),
(490,497,o),
(490,576,cs),
(490,670,o),
(412,730,o),
(312,730,cs),
(207,730,o),
(132,665,o),
(132,574,cs),
(132,519,o),
(158,470,o),
(220,403,cs),
(590,0,l)
);
},
{
closed = 1;
nodes = (
(479,-10,o),
(626,124,o),
(626,388,c),
(548,388,l),
(548,171,o),
(453,58,o),
(298,58,cs),
(191,58,o),
(124,113,o),
(124,211,cs),
(124,294,o),
(181,350,o),
(286,379,c),
(245,428,l),
(121,394,o),
(45,309,o),
(45,203,cs),
(45,74,o),
(145,-10,o),
(294,-10,cs)
);
}
);
width = 714;
}
);
unicode = 38;
userData = {
KernOnSpecialSpacing = {
L = symbols;
R = symbols;
};
};
}
{
glyphname = quotesingle;
kernLeft = KO_quotedbl;
kernRight = KO_quotedbl;
layers = (
{
layerId = "522FD917-7CD6-43A0-922F-6555542696CE";
shapes = (
{
closed = 1;
nodes = (
(151,425,l),
(188,554,ls),
(203,605,o),
(210,635,o),
(210,668,cs),
(210,703,o),
(187,750,o),
(129,750,cs),
(70,750,o),
(47,703,o),
(47,668,cs),
(47,635,o),
(54,605,o),
(69,554,cs),
(106,425,l)
);
}
);
width = 257;
},
{
layerId = "AF447C8E-6A86-4BB0-AFAA-0E31F633710F";
shapes = (
{
closed = 1;
nodes = (
(128,496,l),
(152,619,ls),
(158,652,o),
(161,677,o),
(161,696,cs),
(161,728,o),
(142,750,o),
(112,750,cs),
(83,750,o),
(64,728,o),
(64,696,cs),
(64,677,o),
(67,652,o),
(73,619,cs),
(96,496,l)
);
}
);
width = 225;
}
);
metricRight = "=|";
unicode = 39;
userData = {
KernOnSpecialSpacing = {
L = quotes;
R = quotes;
};
};
}
{
glyphname = parenleft;
kernLeft = KO_parenleft;
kernRight = KO_parenleft;
layers = (
{
layerId = "522FD917-7CD6-43A0-922F-6555542696CE";
shapes = (
{
closed = 1;
nodes = (
(402,-110,l),
(277,16,o),
(209,159,o),
(209,320,cs),
(209,479,o),
(274,623,o),
(402,750,c),
(259,750,l),
(131,624,o),
(68,471,o),
(68,320,cs),
(68,167,o),
(130,15,o),
(259,-110,c)
);
}
);
width = 440;
},
{
layerId = "AF447C8E-6A86-4BB0-AFAA-0E31F633710F";
shapes = (
{
closed = 1;
nodes = (
(344,-110,l),
(217,16,o),
(150,159,o),
(150,320,cs),
(150,479,o),
(214,623,o),
(344,750,c),
(270,750,l),
(141,624,o),
(78,471,o),
(78,320,cs),
(78,167,o),
(140,15,o),
(270,-110,c)
);
}
);
width = 392;
}
);
unicode = 40;
userData = {
KernOnSpecialSpacing = {
R = parenthesis;
};
};
}
{
glyphname = asterisk;
kernLeft = KO_asterisk;
kernRight = KO_asterisk;
layers = (
{
layerId = "522FD917-7CD6-43A0-922F-6555542696CE";
shapes = (
{
closed = 1;
nodes = (
(280,408,l),
(253,514,l),
(334,437,l),
(396,544,l),
(288,574,l),
(396,604,l),
(334,711,l),
(253,634,l),
(280,740,l),
(154,740,l),
(182,634,l),
(101,711,l),
(38,604,l),
(147,574,l),
(38,544,l),
(101,437,l),
(182,514,l),
(154,408,l)
);
}
);
width = 434;
},
{
layerId = "AF447C8E-6A86-4BB0-AFAA-0E31F633710F";
shapes = (
{
closed = 1;
nodes = (
(236,438,l),
(215,563,l),
(318,483,l),
(353,543,l),
(231,588,l),
(353,635,l),
(318,695,l),
(215,615,l),
(236,740,l),
(165,740,l),
(186,615,l),
(83,695,l),
(48,635,l),
(169,588,l),
(48,543,l),
(83,483,l),
(186,563,l),
(165,438,l)
);
}
);
width = 401;
}
);
unicode = 42;
userData = {
KernOnSpecialSpacing = {
L = quotes;
R = quotes;
};
};
}
{
glyphname = plus;
kernLeft = KO_plus;
kernRight = KO_plus;
layers = (
{
layerId = "522FD917-7CD6-43A0-922F-6555542696CE";
shapes = (
{
closed = 1;
nodes = (
(331,133,l),
(331,610,l),
(221,610,l),
(221,133,l)
);
},
{
closed = 1;
nodes = (
(501,318,l),
(501,424,l),
(50,424,l),
(50,318,l)
);
}
);
width = 551;
},
{
layerId = "AF447C8E-6A86-4BB0-AFAA-0E31F633710F";
shapes = (
{
closed = 1;
nodes = (
(300,153,l),
(300,590,l),
(232,590,l),
(232,153,l)
);
},
{
closed = 1;
nodes = (
(471,338,l),
(471,404,l),
(60,404,l),
(60,338,l)
);
}
);
width = 531;
}
);
unicode = 43;
userData = {
KernOnSpecialSpacing = {
L = math;
R = math;
};
};
}
{
glyphname = comma;
kernLeft = KO_period.ss01;
kernRight = KO_period.ss01;
layers = (
{
layerId = "522FD917-7CD6-43A0-922F-6555542696CE";
shapes = (
{
closed = 1;
nodes = (
(174,-137,o),
(220,-57,o),
(220,47,c),
(220,164,l),
(56,164,l),
(56,0,l),
(193,0,l),
(134,16,l),
(134,-41,o),
(121,-76,o),
(58,-94,c),
(58,-166,l)
);
}
);
width = 276;
},
{
layerId = "AF447C8E-6A86-4BB0-AFAA-0E31F633710F";
shapes = (
{
closed = 1;
nodes = (
(142,-120,o),
(173,-63,o),
(173,21,c),
(173,100,l),
(74,100,l),
(74,0,l),
(158,0,l),
(128,3,l),
(128,-60,o),
(113,-86,o),
(74,-101,c),
(74,-141,l)
);
}
);
width = 247;
}
);
unicode = 44;
}
{
glyphname = hyphen;
kernLeft = KO_hyphen;
kernRight = KO_hyphen;
layers = (
{
layerId = "522FD917-7CD6-43A0-922F-6555542696CE";
shapes = (
{
closed = 1;
nodes = (
(403,212,l),
(403,332,l),
(57,332,l),
(57,212,l)
);
}
);
width = 460;
},
{
layerId = "AF447C8E-6A86-4BB0-AFAA-0E31F633710F";
shapes = (
{
closed = 1;
nodes = (
(401,235,l),
(401,309,l),
(77,309,l),
(77,235,l)
);
}
);
width = 478;
}
);
metricRight = "=|";
unicode = 45;
userData = {
KernOnName = hyphen;
KernOnSpecialSpacing = {
L = hyphen;
R = hyphen;
};
};
}
{
glyphname = period;
kernLeft = KO_period.ss01;
kernRight = KO_period.ss01;
layers = (
{
layerId = "522FD917-7CD6-43A0-922F-6555542696CE";
shapes = (
{
closed = 1;
nodes = (
(220,0,l),
(220,164,l),
(56,164,l),
(56,0,l)
);
}
);
width = 276;
},
{
layerId = "AF447C8E-6A86-4BB0-AFAA-0E31F633710F";
shapes = (
{
closed = 1;
nodes = (
(174,0,l),
(174,101,l),
(73,101,l),
(73,0,l)
);
}
);
width = 247;
}
);
unicode = 46;
}
{
glyphname = slash;
kernLeft = KO_slash;
kernRight = KO_slash;
layers = (
{
layerId = "522FD917-7CD6-43A0-922F-6555542696CE";
shapes = (
{
closed = 1;
nodes = (
(154,-80,l),
(390,770,l),
(263,770,l),
(27,-80,l)
);
}
);
width = 417;
},
{
layerId = "AF447C8E-6A86-4BB0-AFAA-0E31F633710F";
shapes = (
{
closed = 1;
nodes = (
(125,-60,l),
(350,750,l),
(282,750,l),
(57,-60,l)
);
}
);
width = 407;
}
);
unicode = 47;
userData = {
KernOnSpecialSpacing = {
L = slash;
R = slash;
};
};
}
{
glyphname = zero;
kernLeft = KO_zero;
kernRight = KO_zero;
layers = (
{
layerId = "522FD917-7CD6-43A0-922F-6555542696CE";
shapes = (
{
closed = 1;
nodes = (
(493,-10,o),
(615,134,o),
(615,363,cs),
(615,590,o),
(494,730,o),
(322,730,cs),
(150,730,o),
(30,589,o),
(30,363,cs),
(30,135,o),
(151,-10,o),
(322,-10,cs)
);
},
{
closed = 1;
nodes = (
(233,114,o),
(188,216,o),
(188,364,cs),
(188,509,o),
(231,606,o),
(322,606,cs),
(413,606,o),
(457,509,o),
(457,364,cs),
(457,217,o),
(412,114,o),
(322,114,cs)
);
}
);
width = 645;
},
{
layerId = "AF447C8E-6A86-4BB0-AFAA-0E31F633710F";
shapes = (
{
closed = 1;
nodes = (
(470,-10,o),
(577,136,o),
(577,363,cs),
(577,587,o),
(471,730,o),
(312,730,cs),
(153,730,o),
(48,587,o),
(48,363,cs),
(48,137,o),
(154,-10,o),
(312,-10,cs)
);
},
{
closed = 1;
nodes = (
(201,60,o),
(134,168,o),
(134,364,cs),
(134,556,o),
(199,660,o),
(312,660,cs),
(425,660,o),
(490,557,o),
(490,364,cs),
(490,169,o),
(424,60,o),
(312,60,cs)
);
}
);
width = 625;
}
);
unicode = 48;
}
{
glyphname = one;
kernLeft = KO_one;
kernRight = KO_one;
layers = (
{
layerId = "522FD917-7CD6-43A0-922F-6555542696CE";
shapes = (
{
closed = 1;
nodes = (
(327,0,l),
(327,720,l),
(204,720,l),
(173,663,o),
(87,606,o),
(12,595,c),
(12,447,l),
(100,463,o),
(169,513,o),
(200,577,c),
(180,600,l),
(180,0,l)
);
}
);
width = 377;
},
{
layerId = "AF447C8E-6A86-4BB0-AFAA-0E31F633710F";
shapes = (
{
closed = 1;
nodes = (
(289,0,l),
(289,720,l),
(232,720,l),
(199,655,o),
(119,602,o),
(27,586,c),
(27,510,l),
(115,524,o),
(204,581,o),
(231,633,c),
(212,640,l),
(212,0,l)
);
}
);
width = 372;
}
);
metricRight = H;
unicode = 49;
userData = {
KernOnName = one;
};
}
{
glyphname = two;
kernLeft = KO_two.ss11;
kernRight = KO_two.ss11;
layers = (
{
layerId = "522FD917-7CD6-43A0-922F-6555542696CE";
shapes = (
{
closed = 1;
nodes = (
(520,0,l),
(520,116,l),
(154,116,l),
(189,71,l),
(428,272,o),
(507,383,o),
(507,513,cs),
(507,649,o),
(419,730,o),
(273,730,cs),
(126,730,o),
(29,647,o),
(17,511,c),
(166,511,l),
(173,576,o),
(210,614,o),
(266,614,cs),
(318,614,o),
(348,581,o),
(348,523,cs),
(348,422,o),
(268,328,o),
(26,114,c),
(26,0,l)
);
}
);
width = 536;
},
{
layerId = "AF447C8E-6A86-4BB0-AFAA-0E31F633710F";
shapes = (
{
closed = 1;
nodes = (
(489,0,l),
(489,70,l),
(104,70,l),
(123,43,l),
(379,267,o),
(478,397,o),
(478,533,cs),
(478,655,o),
(397,730,o),
(269,730,cs),
(133,730,o),
(44,643,o),
(34,513,c),
(116,513,l),
(126,608,o),
(179,660,o),
(264,660,cs),
(345,660,o),
(393,613,o),
(393,532,cs),
(393,423,o),
(306,304,o),
(42,68,c),
(42,0,l)
);
}
);
width = 517;
}
);
unicode = 50;
}
{
glyphname = three;
kernLeft = KO_three;
kernRight = KO_three;
layers = (
{
layerId = "522FD917-7CD6-43A0-922F-6555542696CE";
shapes = (
{
closed = 1;
nodes = (
(426,-10,o),
(532,70,o),
(532,200,cs),
(532,306,o),
(468,390,o),
(366,390,c),
(367,369,l),
(437,369,o),
(514,439,o),
(514,539,cs),
(514,656,o),
(424,730,o),
(281,730,cs),
(135,730,o),
(41,645,o),
(28,511,c),
(177,511,l),
(184,580,o),
(223,614,o),
(275,614,cs),
(334,614,o),
(357,579,o),
(357,528,cs),
(357,471,o),
(327,432,o),
(253,432,cs),
(195,432,l),
(195,318,l),
(256,318,ls),
(341,318,o),
(373,274,o),
(373,208,cs),
(373,141,o),
(333,106,o),
(278,106,cs),
(213,106,o),
(177,143,o),
(168,229,c),
(20,229,l),
(30,74,o),
(135,-10,o),
(283,-10,cs)
);
}
);
width = 555;
},
{
layerId = "AF447C8E-6A86-4BB0-AFAA-0E31F633710F";
shapes = (
{
closed = 1;
nodes = (
(411,-10,o),
(502,71,o),
(502,193,cs),
(502,309,o),
(425,390,o),
(308,390,c),
(314,369,l),
(415,369,o),
(486,438,o),
(486,543,cs),
(486,657,o),
(401,730,o),
(278,730,cs),
(149,730,o),
(56,648,o),
(48,521,c),
(131,521,l),
(139,611,o),
(197,660,o),
(275,660,cs),
(352,660,o),
(402,616,o),
(402,536,cs),
(402,459,o),
(354,411,o),
(279,411,cs),
(199,411,l),
(199,343,l),
(282,343,ls),
(363,343,o),
(416,284,o),
(416,195,cs),
(416,111,o),
(363,60,o),
(279,60,cs),
(188,60,o),
(132,116,o),
(120,217,c),
(38,217,l),
(51,72,o),
(141,-10,o),
(278,-10,cs)
);
}
);
width = 541;
}
);
unicode = 51;
}
{
glyphname = four;
kernLeft = KO_four;
kernRight = KO_four;
layers = (
{
layerId = "522FD917-7CD6-43A0-922F-6555542696CE";
shapes = (
{
closed = 1;
nodes = (
(499,0,l),
(499,720,l),
(350,720,l),
(21,250,l),
(21,135,l),
(569,135,l),
(569,250,l),
(88,250,l),
(146,205,l),
(414,586,l),
(355,612,l),
(355,208,l),
(347,188,l),
(347,0,l)
);
}
);
width = 587;
},
{
layerId = "AF447C8E-6A86-4BB0-AFAA-0E31F633710F";
shapes = (
{
closed = 1;
nodes = (
(445,0,l),
(445,720,l),
(367,720,l),
(31,224,l),
(31,165,l),
(535,165,l),
(535,234,l),
(85,234,l),
(110,203,l),
(388,612,l),
(365,612,l),
(365,208,l),
(363,188,l),
(363,0,l)
);
}
);
width = 563;
}
);
unicode = 52;
}
{
glyphname = five;
kernLeft = KO_five;
kernRight = KO_five;
layers = (
{
layerId = "522FD917-7CD6-43A0-922F-6555542696CE";
shapes = (
{
closed = 1;
nodes = (
(433,-10,o),
(532,80,o),
(532,237,cs),
(532,384,o),
(445,478,o),
(313,478,cs),
(241,478,o),
(195,449,o),
(165,400,c),
(211,395,l),
(228,626,l),
(148,604,l),
(491,604,l),
(491,720,l),
(93,720,l),
(60,316,l),
(195,316,l),
(214,355,o),
(245,370,o),
(280,370,cs),
(339,370,o),
(374,325,o),
(374,238,cs),
(374,148,o),
(336,106,o),
(277,106,cs),
(224,106,o),
(181,144,o),
(173,210,c),
(24,210,l),
(42,70,o),
(137,-10,o),
(281,-10,cs)
);
}
);
width = 559;
},
{
layerId = "AF447C8E-6A86-4BB0-AFAA-0E31F633710F";
shapes = (
{
closed = 1;
nodes = (
(415,-10,o),
(504,77,o),
(504,229,cs),
(504,381,o),
(414,468,o),
(287,468,cs),
(215,468,o),
(163,436,o),
(141,398,c),
(159,395,l),
(179,678,l),
(155,650,l),
(466,650,l),
(466,720,l),
(105,720,l),
(76,336,l),
(145,336,l),
(160,373,o),
(207,404,o),
(271,404,cs),
(357,404,o),
(418,347,o),
(418,229,cs),
(418,111,o),
(355,60,o),
(274,60,cs),
(195,60,o),
(140,109,o),
(126,199,c),
(42,199,l),
(58,73,o),
(140,-10,o),
(276,-10,cs)
);
}
);
width = 544;
}
);
unicode = 53;
}
{
glyphname = six;
kernLeft = KO_zero;
kernRight = KO_six;
layers = (
{
layerId = "522FD917-7CD6-43A0-922F-6555542696CE";
shapes = (
{
closed = 1;
nodes = (
(468,-10,o),
(569,83,o),
(569,227,cs),
(569,364,o),
(480,454,o),
(347,454,cs),
(247,454,o),
(176,399,o),
(155,307,c),
(186,297,l),
(186,354,ls),
(186,533,o),
(228,614,o),
(318,614,cs),
(369,614,o),
(405,582,o),
(411,523,c),
(559,523,l),
(542,653,o),
(454,730,o),
(320,730,cs),
(140,730,o),
(30,586,o),
(30,344,cs),
(30,115,o),
(131,-10,o),
(311,-10,cs)
);
},
{
closed = 1;
nodes = (
(238,106,o),
(186,149,o),
(186,227,cs),
(186,303,o),
(234,343,o),
(299,343,cs),
(362,343,o),
(411,304,o),
(411,225,cs),
(411,146,o),
(364,106,o),
(301,106,cs)
);
}
);
width = 594;
},
{
layerId = "AF447C8E-6A86-4BB0-AFAA-0E31F633710F";
shapes = (
{
closed = 1;
nodes = (
(435,-10,o),
(528,80,o),
(528,219,cs),
(528,358,o),
(442,452,o),
(314,452,cs),
(215,452,o),
(131,392,o),
(114,302,c),
(134,295,l),
(134,354,ls),
(134,559,o),
(191,660,o),
(303,660,cs),
(374,660,o),
(422,616,o),
(432,533,c),
(516,533,l),
(502,657,o),
(422,730,o),
(305,730,cs),
(143,730,o),
(48,594,o),
(48,350,cs),
(48,115,o),
(136,-10,o),
(297,-10,cs)
);
},
{
closed = 1;
nodes = (
(210,60,o),
(146,127,o),
(146,229,cs),
(146,326,o),
(209,384,o),
(297,384,cs),
(389,384,o),
(442,323,o),
(442,220,cs),
(442,120,o),
(386,60,o),
(300,60,cs)
);
}
);
width = 566;
}
);
unicode = 54;
}
{
glyphname = seven;
kernLeft = KO_seven;
kernRight = KO_seven;
layers = (
{
layerId = "522FD917-7CD6-43A0-922F-6555542696CE";
shapes = (
{
closed = 1;
nodes = (
(299,0,l),
(317,230,o),
(398,424,o),
(526,611,c),
(526,720,l),
(22,720,l),
(22,604,l),
(401,604,l),
(387,623,l),
(250,449,o),
(159,235,o),
(139,0,c)
);
}
);
width = 544;
},
{
layerId = "AF447C8E-6A86-4BB0-AFAA-0E31F633710F";
shapes = (
{
closed = 1;
nodes = (
(245,0,l),
(260,222,o),
(329,429,o),
(481,662,c),
(481,720,l),
(22,720,l),
(22,650,l),
(422,650,l),
(414,679,l),
(248,448,o),
(171,227,o),
(154,0,c)
);
}
);
width = 502;
}
);
unicode = 55;
}
{
glyphname = eight;
kernLeft = KO_eight;
kernRight = KO_eight;
layers = (
{
layerId = "522FD917-7CD6-43A0-922F-6555542696CE";
shapes = (
{
closed = 1;
nodes = (
(445,-10,o),
(550,75,o),
(550,202,cs),
(550,311,o),
(476,390,o),
(370,390,c),
(354,369,l),
(467,369,o),
(531,432,o),
(531,533,cs),
(531,652,o),
(436,730,o),
(289,730,cs),
(141,730,o),
(46,652,o),
(46,533,cs),
(46,432,o),
(111,369,o),
(223,369,c),
(208,390,l),
(101,390,o),
(27,311,o),
(27,203,cs),
(27,76,o),
(134,-10,o),
(290,-10,cs)
);
},
{
closed = 1;
nodes = (
(224,106,o),
(186,145,o),
(186,214,cs),
(186,282,o),
(226,321,o),
(289,321,cs),
(351,321,o),
(392,282,o),
(392,214,cs),
(392,146,o),
(353,106,o),
(289,106,cs)
);
},
{
closed = 1;
nodes = (
(239,429,o),
(203,464,o),
(203,522,cs),
(203,579,o),
(237,614,o),
(288,614,cs),
(340,614,o),
(374,580,o),
(374,522,cs),
(374,464,o),
(339,429,o),
(289,429,cs)
);
}
);
width = 578;
},
{
layerId = "AF447C8E-6A86-4BB0-AFAA-0E31F633710F";
shapes = (
{
closed = 1;
nodes = (
(418,-10,o),
(508,77,o),
(508,195,cs),
(508,304,o),
(432,390,o),
(336,390,c),
(334,369,l),
(425,369,o),
(492,444,o),
(492,542,cs),
(492,652,o),
(404,730,o),
(276,730,cs),
(147,730,o),
(58,652,o),
(58,541,cs),
(58,444,o),
(125,369,o),
(216,369,c),
(214,390,l),
(118,390,o),
(42,304,o),
(42,195,cs),
(42,77,o),
(132,-10,o),
(275,-10,cs)
);
},
{
closed = 1;
nodes = (
(184,60,o),
(127,115,o),
(127,202,cs),
(127,288,o),
(182,343,o),
(275,343,cs),
(367,343,o),
(423,288,o),
(423,202,cs),
(423,115,o),
(366,60,o),
(275,60,cs)
);
},
{
closed = 1;
nodes = (
(194,411,o),
(143,459,o),
(143,534,cs),
(143,611,o),
(195,660,o),
(275,660,cs),
(354,660,o),
(407,611,o),
(407,534,cs),
(407,460,o),
(357,411,o),
(275,411,cs)
);
}
);
width = 550;
}
);
unicode = 56;
}
{
glyphname = nine;
kernLeft = KO_nine;
kernRight = KO_zero;
layers = (
{
layerId = "522FD917-7CD6-43A0-922F-6555542696CE";
shapes = (
{
closed = 1;
nodes = (
(463,-10,o),
(564,124,o),
(564,370,cs),
(564,604,o),
(466,730,o),
(283,730,cs),
(126,730,o),
(24,637,o),
(24,497,cs),
(24,365,o),
(115,274,o),
(246,274,cs),
(348,274,o),
(419,329,o),
(440,422,c),
(400,423,l),
(400,366,ls),
(400,173,o),
(371,106,o),
(284,106,cs),
(224,106,o),
(190,138,o),
(183,213,c),
(35,213,l),
(48,77,o),
(134,-10,o),
(279,-10,cs)
);
},
{
closed = 1;
nodes = (
(227,386,o),
(188,432,o),
(188,499,cs),
(188,566,o),
(227,614,o),
(295,614,cs),
(363,614,o),
(398,564,o),
(398,496,cs),
(398,430,o),
(363,386,o),
(295,386,cs)
);
}
);
width = 594;
},
{
layerId = "AF447C8E-6A86-4BB0-AFAA-0E31F633710F";
shapes = (
{
closed = 1;
nodes = (
(433,-10,o),
(519,118,o),
(519,365,cs),
(519,606,o),
(434,730,o),
(273,730,cs),
(135,730,o),
(41,641,o),
(41,502,cs),
(41,369,o),
(127,275,o),
(253,275,cs),
(352,275,o),
(436,335,o),
(453,424,c),
(432,425,l),
(432,366,ls),
(432,150,o),
(385,60,o),
(275,60,cs),
(199,60,o),
(145,104,o),
(135,207,c),
(51,207,l),
(65,63,o),
(151,-10,o),
(272,-10,cs)
);
},
{
closed = 1;
nodes = (
(180,343,o),
(128,404,o),
(128,501,cs),
(128,601,o),
(183,660,o),
(268,660,cs),
(357,660,o),
(421,594,o),
(421,495,cs),
(421,395,o),
(359,343,o),
(272,343,cs)
);
}
);
width = 575;
}
);
unicode = 57;
}
{
glyphname = equal;
layers = (
{
layerId = "522FD917-7CD6-43A0-922F-6555542696CE";
shapes = (
{
closed = 1;
nodes = (
(501,418,l),
(501,524,l),
(50,524,l),
(50,418,l)
);
},
{
closed = 1;
nodes = (
(501,218,l),
(501,324,l),
(50,324,l),
(50,218,l)
);
}
);
width = 547;
},
{
layerId = "AF447C8E-6A86-4BB0-AFAA-0E31F633710F";
shapes = (
{
closed = 1;
nodes = (
(471,438,l),
(471,504,l),
(60,504,l),
(60,438,l)
);
},
{
closed = 1;
nodes = (
(471,238,l),
(471,304,l),
(60,304,l),
(60,238,l)
);
}
);
width = 531;
}
);
unicode = 61;
userData = {
KernOnSpecialSpacing = {
L = math;
R = math;
};
};
}
{
glyphname = greater;
layers = (
{
layerId = "522FD917-7CD6-43A0-922F-6555542696CE";
shapes = (
{
closed = 1;
nodes = (
(501,314,l),
(501,428,l),
(50,578,l),
(50,465,l),
(383,360,l),
(383,382,l),
(50,277,l),
(50,164,l)
);
}
);
width = 551;
},
{
layerId = "AF447C8E-6A86-4BB0-AFAA-0E31F633710F";
shapes = (
{
closed = 1;
nodes = (
(471,334,l),
(471,408,l),
(60,558,l),
(60,488,l),
(423,358,l),
(423,383,l),
(60,244,l),
(60,174,l)
);
}
);
width = 531;
}
);
unicode = 62;
userData = {
KernOnSpecialSpacing = {
L = math;
R = math;
};
};
}
{
glyphname = question;
kernLeft = KO_question.ss01;
kernRight = KO_question;
layers = (
{
layerId = "522FD917-7CD6-43A0-922F-6555542696CE";
shapes = (
{
closed = 1;
nodes = (
(355,270,l),
(355,392,o),
(528,401,o),
(528,562,cs),
(528,674,o),
(434,750,o),
(292,750,cs),
(145,750,o),
(44,669,o),
(28,535,c),
(172,535,l),
(180,600,o),
(225,634,o),
(290,634,cs),
(343,634,o),
(375,609,o),
(375,561,cs),
(375,461,o),
(213,459,o),
(213,270,c)
);
},
{
alignment = -1;
pos = (146,0);
ref = period;
}
);
width = 554;
},
{
layerId = "AF447C8E-6A86-4BB0-AFAA-0E31F633710F";
shapes = (
{
closed = 1;
nodes = (
(309,208,l),
(309,408,o),
(502,383,o),
(502,565,cs),
(502,678,o),
(417,750,o),
(288,750,cs),
(149,750,o),
(54,665,o),
(43,535,c),
(120,535,l),
(132,626,o),
(191,680,o),
(285,680,cs),
(371,680,o),
(424,634,o),
(424,565,cs),
(424,425,o),
(236,440,o),
(236,208,c)
);
},
{
alignment = -1;
pos = (149,0);
ref = period;
}
);
width = 532;
}
);
unicode = 63;
}
{
glyphname = at;
layers = (
{
layerId = "522FD917-7CD6-43A0-922F-6555542696CE";
shapes = (
{
closed = 1;
nodes = (
(508,-10,o),
(587,7,o),
(651,36,c),
(618,119,l),
(554,94,o),
(486,80,o),
(417,80,cs),
(239,80,o),
(129,173,o),
(129,328,cs),
(129,505,o),
(243,639,o),
(477,639,cs),
(634,639,o),
(727,567,o),
(727,431,cs),
(727,329,o),
(676,242,o),
(618,242,cs),
(591,242,o),
(585,266,o),
(598,316,cs),
(657,541,l),
(531,541,l),
(510,457,l),
(519,456,l),
(525,522,o),
(486,572,o),
(407,572,cs),
(293,572,o),
(204,448,o),
(204,314,cs),
(204,214,o),
(260,152,o),
(340,152,cs),
(398,152,o),
(452,185,o),
(485,251,c),
(481,268,l),
(464,204,o),
(510,151,o),
(588,151,cs),
(714,151,o),
(825,289,o),
(825,443,cs),
(825,617,o),
(688,730,o),
(480,730,cs),
(192,730,o),
(30,555,o),
(30,326,cs),
(30,121,o),
(183,-10,o),
(423,-10,cs)
);
},
{
closed = 1;
nodes = (
(358,256,o),
(333,284,o),
(333,337,cs),
(333,402,o),
(372,468,o),
(426,468,cs),
(465,468,o),
(488,439,o),
(488,387,cs),
(488,323,o),
(450,256,o),
(396,256,cs)
);
}
);
width = 855;
},
{
layerId = "AF447C8E-6A86-4BB0-AFAA-0E31F633710F";
shapes = (
{
closed = 1;
nodes = (
(507,-10,o),
(593,13,o),
(647,47,c),
(623,98,l),
(565,67,o),
(490,49,o),
(418,49,cs),
(225,49,o),
(111,160,o),
(111,329,cs),
(111,520,o),
(254,671,o),
(455,671,cs),
(613,671,o),
(720,574,o),
(720,428,cs),
(720,315,o),
(655,209,o),
(591,209,cs),
(559,209,o),
(549,232,o),
(562,282,cs),
(632,554,l),
(558,554,l),
(530,449,l),
(542,449,l),
(544,521,o),
(496,571,o),
(420,571,cs),
(311,571,o),
(218,454,o),
(218,316,cs),
(218,217,o),
(275,152,o),
(361,152,cs),
(417,152,o),
(469,185,o),
(503,244,c),
(497,274,l),
(476,196,o),
(514,152,o),
(575,152,cs),
(687,152,o),
(783,281,o),
(783,434,cs),
(783,608,o),
(651,730,o),
(457,730,cs),
(220,730,o),
(48,553,o),
(48,327,cs),
(48,124,o),
(194,-10,o),
(419,-10,cs)
);
},
{
closed = 1;
nodes = (
(331,215,o),
(295,257,o),
(295,324,cs),
(295,424,o),
(356,508,o),
(425,508,cs),
(479,508,o),
(515,466,o),
(515,401,cs),
(515,306,o),
(453,215,o),
(384,215,cs)
);
}
);
width = 831;
}
);
metricLeft = O;
metricRight = O;
unicode = 64;
userData = {
KernOnSpecialSpacing = {
L = symbols;
R = symbols;
};
};
}
{
glyphname = A;
kernLeft = KO_A;
kernRight = KO_A;
layers = (
{
anchors = (
{
name = bottom;
pos = (343,0);
},
{
name = ogonek;
pos = (665,0);
},
{
name = top;
pos = (343,720);
}
);
layerId = "522FD917-7CD6-43A0-922F-6555542696CE";
shapes = (
{
closed = 1;
nodes = (
(171,0,l),
(383,720,l),
(256,720,l),
(22,0,l)
);
},
{
closed = 1;
nodes = (
(665,0,l),
(431,720,l),
(297,720,l),
(509,0,l)
);
},
{
closed = 1;
nodes = (
(150,158,l),
(527,158,l),
(527,276,l),
(150,276,l)
);
}
);
width = 687;
},
{
anchors = (
{
name = bottom;
pos = (336,0);
},
{
name = ogonek;
pos = (638,0);
},
{
name = top;
pos = (336,720);
}
);
layerId = "AF447C8E-6A86-4BB0-AFAA-0E31F633710F";
shapes = (
{
closed = 1;
nodes = (
(110,0,l),
(356,720,l),
(287,720,l),
(34,0,l)
);
},
{
closed = 1;
nodes = (
(638,0,l),
(385,720,l),
(311,720,l),
(557,0,l)
);
},
{
closed = 1;
nodes = (
(160,218,l),
(508,218,l),
(508,288,l),
(160,288,l)
);
}
);
width = 672;
}
);
unicode = 65;
userData = {
KernOnName = A;
};
}
{
glyphname = B;
kernLeft = KO_B;
kernRight = KO_B;
layers = (
{
layerId = "522FD917-7CD6-43A0-922F-6555542696CE";
shapes = (
{
closed = 1;
nodes = (
(370,0,ls),
(500,0,o),
(585,77,o),
(585,196,cs),
(585,314,o),
(499,390,o),
(394,390,c),
(390,369,l),
(487,369,o),
(566,432,o),
(566,538,cs),
(566,650,o),
(482,720,o),
(358,720,cs),
(174,720,l),
(174,611,l),
(326,611,ls),
(384,611,o),
(415,581,o),
(415,521,cs),
(415,461,o),
(383,431,o),
(323,431,cs),
(174,431,l),
(174,323,l),
(330,323,ls),
(395,323,o),
(432,282,o),
(432,214,cs),
(432,148,o),
(398,109,o),
(335,109,cs),
(174,109,l),
(174,0,l)
);
},
{
closed = 1;
nodes = (
(202,0,l),
(202,720,l),
(50,720,l),
(50,0,l)
);
}
);
width = 613;
},
{
layerId = "AF447C8E-6A86-4BB0-AFAA-0E31F633710F";
shapes = (
{
closed = 1;
nodes = (
(343,0,ls),
(472,0,o),
(557,77,o),
(557,193,cs),
(557,307,o),
(477,390,o),
(367,390,c),
(363,369,l),
(467,369,o),
(538,440,o),
(538,544,cs),
(538,652,o),
(459,720,o),
(331,720,cs),
(134,720,l),
(134,654,l),
(326,654,ls),
(411,654,o),
(459,612,o),
(459,536,cs),
(459,455,o),
(408,409,o),
(321,409,cs),
(134,409,l),
(134,345,l),
(331,345,ls),
(419,345,o),
(476,288,o),
(476,200,cs),
(476,118,o),
(422,66,o),
(338,66,cs),
(134,66,l),
(134,0,l)
);
},
{
closed = 1;
nodes = (
(162,0,l),
(162,720,l),
(83,720,l),
(83,0,l)
);
}
);
width = 595;
}
);
unicode = 66;
}
{
color = 9;
glyphname = C;
kernLeft = KO_O;
kernRight = KO_C;
layers = (
{
anchors = (
{
name = bottom;
pos = (360,0);
},
{
name = top;
pos = (360,720);
}
);
layerId = "522FD917-7CD6-43A0-922F-6555542696CE";
shapes = (
{
closed = 1;
nodes = (
(526,-10,o),
(639,92,o),
(669,232,c),
(526,271,l),
(509,168,o),
(445,110,o),
(367,110,cs),
(247,110,o),
(184,230,o),
(184,364,cs),
(184,496,o),
(246,610,o),
(365,610,cs),
(444,610,o),
(506,554,o),
(524,461,c),
(669,487,l),
(637,634,o),
(525,730,o),
(365,730,cs),
(152,730,o),
(30,563,o),
(30,362,cs),
(30,152,o),
(163,-10,o),
(365,-10,cs)
);
}
);
width = 701;
},
{
anchors = (
{
name = bottom;
pos = (359,0);
},
{
name = top;
pos = (359,720);
}
);
layerId = "AF447C8E-6A86-4BB0-AFAA-0E31F633710F";
shapes = (
{
closed = 1;
nodes = (
(513,-10,o),
(616,92,o),
(638,236,c),
(561,257,l),
(548,143,o),
(477,62,o),
(361,62,cs),
(213,62,o),
(130,201,o),
(130,361,cs),
(130,512,o),
(204,658,o),
(361,658,cs),
(485,658,o),
(545,572,o),
(559,471,c),
(637,485,l),
(611,632,o),
(508,730,o),
(360,730,cs),
(166,730,o),
(48,561,o),
(48,360,cs),
(48,157,o),
(172,-10,o),
(361,-10,cs)
);
}
);
width = 685;
}
);
unicode = 67;
userData = {
KernOnName = C;
};
}
{
glyphname = D;
kernRight = KO_D;
layers = (
{
anchors = (
{
name = bottom;
pos = (308,0);
},
{
name = center;
pos = (357,360);
},
{
name = top;
pos = (307,720);
}
);
layerId = "522FD917-7CD6-43A0-922F-6555542696CE";
shapes = (
{
closed = 1;
nodes = (
(308,0,ls),
(532,0,o),
(681,139,o),
(681,362,cs),
(681,585,o),
(534,720,o),
(307,720,cs),
(146,720,l),
(146,602,l),
(307,602,ls),
(451,602,o),
(527,511,o),
(527,364,cs),
(527,214,o),
(449,118,o),
(307,118,cs),
(141,118,l),
(141,0,l)
);
},
{
closed = 1;
nodes = (
(202,0,l),
(202,720,l),
(50,720,l),
(50,0,l)
);
}
);
width = 711;
},
{
anchors = (
{
name = bottom;
pos = (306,0);
},
{
name = center;
pos = (350,360);
},
{
name = top;
pos = (305,720);
}
);
layerId = "AF447C8E-6A86-4BB0-AFAA-0E31F633710F";
shapes = (
{
closed = 1;
nodes = (
(306,0,ls),
(515,0,o),
(653,143,o),
(653,362,cs),
(653,581,o),
(517,720,o),
(305,720,cs),
(131,720,l),
(131,650,l),
(305,650,ls),
(473,650,o),
(571,541,o),
(571,364,cs),
(571,184,o),
(471,70,o),
(305,70,cs),
(132,70,l),
(132,0,l)
);
},
{
closed = 1;
nodes = (
(162,0,l),
(162,720,l),
(83,720,l),
(83,0,l)
);
}
);
width = 701;
}
);
metricRight = O;
unicode = 68;
userData = {
KernOnSpecialSpacing = {
L = NoKerning;
};
};
}
{
glyphname = E;
kernRight = KO_E;
layers = (
{
anchors = (
{
name = bottom;
pos = (294,0);
},
{
name = ogonek;
pos = (505,0);
},
{
name = top;
pos = (304,720);
},
{
name = topleft;
pos = (23,720);
}
);
layerId = "522FD917-7CD6-43A0-922F-6555542696CE";
shapes = (
{
closed = 1;
nodes = (
(202,0,l),
(202,720,l),
(50,720,l),
(50,0,l)
);
},
{
closed = 1;
nodes = (
(545,0,l),
(545,116,l),
(122,116,l),
(122,0,l)
);
},
{
closed = 1;
nodes = (
(514,311,l),
(514,426,l),
(122,426,l),
(122,311,l)
);
},
{
closed = 1;
nodes = (
(534,604,l),
(534,720,l),
(122,720,l),
(122,604,l)
);
}
);
width = 585;
},
{
anchors = (
{
name = bottom;
pos = (297,0);
},
{
name = ogonek;
pos = (495,0);
},
{
name = top;
pos = (307,720);
},
{
name = topleft;
pos = (20,720);
}
);
layerId = "AF447C8E-6A86-4BB0-AFAA-0E31F633710F";
shapes = (
{
closed = 1;
nodes = (
(162,0,l),
(162,720,l),
(83,720,l),
(83,0,l)
);
},
{
closed = 1;
nodes = (
(527,0,l),
(527,70,l),
(125,70,l),
(125,0,l)
);
},
{
closed = 1;
nodes = (
(494,340,l),
(494,410,l),
(125,410,l),
(125,340,l)
);
},
{
closed = 1;
nodes = (
(519,650,l),
(519,720,l),
(125,720,l),
(125,650,l)
);
}
);
width = 593;
}
);
unicode = 69;
userData = {
KernOnName = E;
KernOnSpecialSpacing = {
L = NoKerning;
};
};
}
{
glyphname = F;
kernRight = KO_F;
layers = (
{
layerId = "522FD917-7CD6-43A0-922F-6555542696CE";
shapes = (
{
closed = 1;
nodes = (
(202,0,l),
(202,720,l),
(50,720,l),
(50,0,l)
);
},
{
closed = 1;
nodes = (
(498,280,l),
(498,397,l),
(122,397,l),
(122,280,l)
);
},
{
closed = 1;
nodes = (
(518,604,l),
(518,720,l),
(122,720,l),
(122,604,l)
);
}
);
width = 550;
},
{
layerId = "AF447C8E-6A86-4BB0-AFAA-0E31F633710F";
shapes = (
{
closed = 1;
nodes = (
(162,0,l),
(162,720,l),
(83,720,l),
(83,0,l)
);
},
{
closed = 1;
nodes = (
(478,310,l),
(478,380,l),
(125,380,l),
(125,310,l)
);
},
{
closed = 1;
nodes = (
(503,650,l),
(503,720,l),
(125,720,l),
(125,650,l)
);
}
);
width = 558;
}
);
unicode = 70;
userData = {
KernOnName = F;
KernOnSpecialSpacing = {
L = NoKerning;
};
};
}
{
color = 9;
glyphname = G;
kernLeft = KO_O;
kernRight = KO_G;
layers = (
{
anchors = (
{
name = bottom;
pos = (367,0);
},
{
name = top;
pos = (367,720);
}
);
layerId = "522FD917-7CD6-43A0-922F-6555542696CE";
shapes = (
{
closed = 1;
nodes = (
(149,-10,o),
(30,144,o),
(30,361,cs),
(30,555,o),
(145,730,o),
(368,730,cs),
(521,730,o),
(632,647,o),
(663,518,c),
(516,492,l),
(499,566,o),
(445,610,o),
(369,610,cs),
(224,610,o),
(184,464,o),
(184,361,cs),
(184,214,o),
(246,108,o),
(387,108,cs),
(435,108,o),
(490,118,o),
(523,151,c),
(523,278,l),
(381,278,l),
(381,394,l),
(675,394,l),
(675,105,l),
(595,21,o),
(496,-10,o),
(379,-10,cs)
);
}
);
width = 713;
},
{
anchors = (
{
name = bottom;
pos = (365,0);
},
{
name = top;
pos = (365,720);
}
);
layerId = "AF447C8E-6A86-4BB0-AFAA-0E31F633710F";
shapes = (
{
closed = 1;
nodes = (
(168,-10,o),
(48,140,o),
(48,354,cs),
(48,552,o),
(158,730,o),
(364,730,cs),
(505,730,o),
(613,641,o),
(636,515,c),
(559,502,l),
(543,599,o),
(467,658,o),
(367,658,cs),
(206,658,o),
(130,510,o),
(130,356,cs),
(130,188,o),
(213,62,o),
(388,62,cs),
(452,62,o),
(513,79,o),
(562,125,c),
(562,309,l),
(382,309,l),
(382,379,l),
(641,379,l),
(641,96,l),
(570,22,o),
(481,-10,o),
(381,-10,cs)
);
}
);
width = 708;
}
);
unicode = 71;
}
{
glyphname = H;
layers = (
{
anchors = (
{
name = bottom;
pos = (339,0);
},
{
name = center;
pos = (339,360);
},
{
name = top;
pos = (339,720);
},
{
name = topleft;
pos = (23,720);
}
);
layerId = "522FD917-7CD6-43A0-922F-6555542696CE";
shapes = (
{
closed = 1;
nodes = (
(202,0,l),
(202,720,l),
(50,720,l),
(50,0,l)
);
},
{
closed = 1;
nodes = (
(629,0,l),
(629,720,l),
(477,720,l),
(477,0,l)
);
},
{
closed = 1;
nodes = (
(122,317,l),
(547,317,l),
(547,433,l),
(122,433,l)
);
}
);
width = 679;
},
{
anchors = (
{
name = bottom;
pos = (344,0);
},
{
name = center;
pos = (344,360);
},
{
name = top;
pos = (344,720);
},
{
name = topleft;
pos = (44,720);
}
);
layerId = "AF447C8E-6A86-4BB0-AFAA-0E31F633710F";
shapes = (
{
closed = 1;
nodes = (
(162,0,l),
(162,720,l),
(83,720,l),
(83,0,l)
);
},
{
closed = 1;
nodes = (
(606,0,l),
(606,720,l),
(526,720,l),
(526,0,l)
);
},
{
closed = 1;
nodes = (
(125,340,l),
(560,340,l),
(560,410,l),
(125,410,l)
);
}
);
width = 689;
}
);
unicode = 72;
userData = {
KernOnName = H;
KernOnSpecialSpacing = {
L = NoKerning;
R = NoKerning;
};
};
}
{
glyphname = I;
layers = (
{
anchors = (
{
name = bottom;
pos = (126,0);
},
{
name = ogonek;
pos = (186,0);
},
{
name = top;
pos = (126,720);
},
{
name = topleft;
pos = (7,720);
}
);
layerId = "522FD917-7CD6-43A0-922F-6555542696CE";
shapes = (
{
closed = 1;
nodes = (
(202,0,l),
(202,720,l),
(50,720,l),
(50,0,l)
);
}
);
width = 252;
},
{
anchors = (
{
name = bottom;
pos = (123,0);
},
{
name = ogonek;
pos = (146,0);
},
{
name = top;
pos = (123,720);
},
{
name = topleft;
pos = (20,720);
}
);
layerId = "AF447C8E-6A86-4BB0-AFAA-0E31F633710F";
shapes = (
{
closed = 1;
nodes = (
(162,0,l),
(162,720,l),
(83,720,l),
(83,0,l)
);
}
);
width = 245;
}
);
unicode = 73;
userData = {
KernOnSpecialSpacing = {
L = NoKerning;
R = NoKerning;
};
};
}
{
color = 9;
glyphname = J;
kernLeft = KO_J.ss09;
kernRight = KO_U;
layers = (
{
layerId = "522FD917-7CD6-43A0-922F-6555542696CE";
shapes = (
{
closed = 1;
nodes = (
(133,-10,o),
(42,94,o),
(33,225,c),
(180,251,l),
(180,170,o),
(226,110,o),
(296,110,cs),
(362,110,o),
(397,164,o),
(397,253,c),
(397,720,l),
(548,720,l),
(548,275,l),
(548,98,o),
(468,-10,o),
(288,-10,cs)
);
}
);
width = 591;
},
{
layerId = "AF447C8E-6A86-4BB0-AFAA-0E31F633710F";
shapes = (
{
closed = 1;
nodes = (
(154,-10,o),
(64,71,o),
(57,208,c),
(135,221,l),
(135,115,o),
(202,62,o),
(278,62,cs),
(366,62,o),
(418,130,o),
(418,233,c),
(418,720,l),
(497,720,l),
(497,237,l),
(497,95,o),
(421,-10,o),
(276,-10,cs)
);
}
);
width = 574;
}
);
unicode = 74;
}
{
glyphname = K;
kernLeft = KO_B;
kernRight = KO_K.ss08;
layers = (
{
anchors = (
{
name = bottom;
pos = (343,0);
},
{
name = top;
pos = (341,720);
}
);
layerId = "522FD917-7CD6-43A0-922F-6555542696CE";
shapes = (
{
closed = 1;
nodes = (
(202,0,l),
(202,720,l),
(50,720,l),
(50,0,l)
);
},
{
closed = 1;
nodes = (
(158,142,l),
(314,337,l),
(339,345,l),
(644,720,l),
(459,720,l),
(143,313,l)
);
},
{
closed = 1;
nodes = (
(662,0,l),
(371,456,l),
(239,405,l),
(480,0,l)
);
}
);
width = 678;
},
{
anchors = (
{
name = bottom;
pos = (335,0);
},
{
name = top;
pos = (323,720);
}
);
layerId = "AF447C8E-6A86-4BB0-AFAA-0E31F633710F";
shapes = (
{
closed = 1;
nodes = (
(162,0,l),
(162,720,l),
(83,720,l),
(83,0,l)
);
},
{
closed = 1;
nodes = (
(130,192,l),
(301,386,l),
(318,395,l),
(604,720,l),
(502,720,l),
(102,257,l)
);
},
{
closed = 1;
nodes = (
(624,0,l),
(321,432,l),
(243,412,l),
(525,0,l)
);
}
);
width = 647;
}
);
unicode = 75;
}
{
glyphname = L;
kernRight = KO_L;
layers = (
{
anchors = (
{
name = bottom;
pos = (293,0);
},
{
name = center;
pos = (277,360);
},
{
name = top;
pos = (125,720);
},
{
name = topright;
pos = (341,720);
}
);
layerId = "522FD917-7CD6-43A0-922F-6555542696CE";
shapes = (
{
closed = 1;
nodes = (
(202,0,l),
(202,720,l),
(50,720,l),
(50,0,l)
);
},
{
closed = 1;
nodes = (
(512,0,l),
(512,116,l),
(122,116,l),
(122,0,l)
);
}
);
width = 550;
},
{
anchors = (
{
name = bottom;
pos = (306,0);
},
{
name = center;
pos = (273,360);
},
{
name = top;
pos = (122,720);
},
{
name = topright;
pos = (366,720);
}
);
layerId = "AF447C8E-6A86-4BB0-AFAA-0E31F633710F";
shapes = (
{
closed = 1;
nodes = (
(162,0,l),
(162,720,l),
(83,720,l),
(83,0,l)
);
},
{
closed = 1;
nodes = (
(497,0,l),
(497,70,l),
(125,70,l),
(125,0,l)
);
}
);
width = 545;
}
);
unicode = 76;
userData = {
KernOnName = L;
KernOnSpecialSpacing = {
L = NoKerning;
};
};
}
{
glyphname = M;
layers = (
{
layerId = "522FD917-7CD6-43A0-922F-6555542696CE";
shapes = (
{
closed = 1;
nodes = (
(193,0,l),
(193,661,l),
(169,661,l),
(350,0,l),
(498,0,l),
(682,666,l),
(657,666,l),
(657,0,l),
(806,0,l),
(806,720,l),
(573,720,l),
(383,30,l),
(472,30,l),
(282,720,l),
(50,720,l),
(50,0,l)
);
}
);
width = 856;
},
{
layerId = "AF447C8E-6A86-4BB0-AFAA-0E31F633710F";
shapes = (
{
closed = 1;
nodes = (
(155,0,l),
(155,661,l),
(146,661,l),
(379,0,l),
(474,0,l),
(707,666,l),
(697,666,l),
(697,0,l),
(776,0,l),
(776,720,l),
(653,720,l),
(412,30,l),
(447,30,l),
(204,720,l),
(83,720,l),
(83,0,l)
);
}
);
width = 859;
}
);
unicode = 77;
userData = {
KernOnSpecialSpacing = {
L = NoKerning;
R = NoKerning;
};
};
}
{
glyphname = N;
layers = (
{
anchors = (
{
name = bottom;
pos = (340,0);
},
{
name = top;
pos = (340,720);
}
);
layerId = "522FD917-7CD6-43A0-922F-6555542696CE";
shapes = (
{
closed = 1;
nodes = (
(196,0,l),
(196,642,l),
(150,632,l),
(437,0,l),
(630,0,l),
(630,720,l),
(484,720,l),
(484,78,l),
(530,88,l),
(243,720,l),
(50,720,l),
(50,0,l)
);
}
);
width = 680;
},
{
anchors = (
{
name = bottom;
pos = (345,0);
},
{
name = top;
pos = (345,720);
}
);
layerId = "AF447C8E-6A86-4BB0-AFAA-0E31F633710F";
shapes = (
{
closed = 1;
nodes = (
(158,0,l),
(158,608,l),
(147,606,l),
(522,0,l),
(607,0,l),
(607,720,l),
(531,720,l),
(531,112,l),
(543,114,l),
(168,720,l),
(83,720,l),
(83,0,l)
);
}
);
width = 690;
}
);
unicode = 78;
userData = {
KernOnSpecialSpacing = {
L = NoKerning;
R = NoKerning;
};
};
}
{
glyphname = O;
kernLeft = KO_O;
kernRight = KO_O;
layers = (
{
anchors = (
{
name = bottom;
pos = (373,0);
},
{
name = center;
pos = (373,360);
},
{
name = ogonek;
pos = (519,20);
},
{
name = top;
pos = (373,720);
},
{
name = topleft;
pos = (20,720);
},
{
name = topright;
pos = (726,720);
}
);
layerId = "522FD917-7CD6-43A0-922F-6555542696CE";
shapes = (
{
closed = 1;
nodes = (
(575,-10,o),
(716,137,o),
(716,362,cs),
(716,586,o),
(577,730,o),
(372,730,cs),
(169,730,o),
(30,586,o),
(30,363,cs),
(30,137,o),
(171,-10,o),
(373,-10,cs)
);
},
{
closed = 1;
nodes = (
(259,110,o),
(184,206,o),
(184,364,cs),
(184,519,o),
(257,610,o),
(372,610,cs),
(487,610,o),
(562,518,o),
(562,364,cs),
(562,208,o),
(485,110,o),
(372,110,cs)
);
}
);
width = 746;
},
{
anchors = (
{
name = bottom;
pos = (364,0);
},
{
name = center;
pos = (364,360);
},
{
name = ogonek;
pos = (496,20);
},
{
name = top;
pos = (364,720);
},
{
name = topleft;
pos = (20,720);
},
{
name = topright;
pos = (709,720);
}
);
layerId = "AF447C8E-6A86-4BB0-AFAA-0E31F633710F";
shapes = (
{
closed = 1;
nodes = (
(549,-10,o),
(681,144,o),
(681,362,cs),
(681,580,o),
(551,730,o),
(363,730,cs),
(178,730,o),
(48,580,o),
(48,363,cs),
(48,144,o),
(179,-10,o),
(364,-10,cs)
);
},
{
closed = 1;
nodes = (
(223,62,o),
(130,183,o),
(130,364,cs),
(130,542,o),
(221,658,o),
(363,658,cs),
(506,658,o),
(599,541,o),
(599,364,cs),
(599,184,o),
(504,62,o),
(363,62,cs)
);
}
);
width = 729;
}
);
unicode = 79;
userData = {
KernOnName = O;
};
}
{
glyphname = P;
kernRight = KO_P;
layers = (
{
layerId = "522FD917-7CD6-43A0-922F-6555542696CE";
shapes = (
{
closed = 1;
nodes = (
(202,0,l),
(202,604,l),
(353,604,ls),
(420,604,o),
(458,563,o),
(458,496,cs),
(458,429,o),
(419,387,o),
(353,387,cs),
(170,387,l),
(170,271,l),
(360,271,ls),
(512,271,o),
(610,361,o),
(610,496,cs),
(610,631,o),
(514,720,o),
(360,720,cs),
(50,720,l),
(50,0,l)
);
}
);
width = 631;
},
{
layerId = "AF447C8E-6A86-4BB0-AFAA-0E31F633710F";
shapes = (
{
closed = 1;
nodes = (
(162,0,l),
(162,650,l),
(336,650,ls),
(439,650,o),
(493,600,o),
(493,510,cs),
(493,419,o),
(438,367,o),
(336,367,cs),
(140,367,l),
(140,297,l),
(339,297,ls),
(487,297,o),
(572,379,o),
(572,510,cs),
(572,640,o),
(488,720,o),
(339,720,cs),
(83,720,l),
(83,0,l)
);
}
);
width = 612;
}
);
unicode = 80;
userData = {
KernOnSpecialSpacing = {
L = NoKerning;
};
};
}
{
glyphname = Q;
kernLeft = KO_O;
kernRight = KO_O;
layers = (
{
layerId = "522FD917-7CD6-43A0-922F-6555542696CE";
shapes = (
{
closed = 1;
nodes = (
(575,-10,o),
(716,137,o),
(716,362,cs),
(716,586,o),
(577,730,o),
(372,730,cs),
(169,730,o),
(30,586,o),
(30,363,cs),
(30,137,o),
(171,-10,o),
(373,-10,cs)
);
},
{
closed = 1;
nodes = (
(259,108,o),
(183,204,o),
(183,364,cs),
(183,519,o),
(257,610,o),
(372,610,cs),
(487,610,o),
(563,518,o),
(563,364,cs),
(563,191,o),
(485,108,o),
(372,108,cs)
);
},
{
closed = 1;
nodes = (
(645,1,o),
(593,28,o),
(578,91,c),
(526,59,o),
(474,25,o),
(450,9,c),
(494,-73,o),
(555,-120,o),
(630,-135,c),
(630,-135,o),
(708,-3,o),
(708,-3,c)
);
}
);
width = 746;
},
{
layerId = "AF447C8E-6A86-4BB0-AFAA-0E31F633710F";
shapes = (
{
closed = 1;
nodes = (
(549,-10,o),
(681,144,o),
(681,362,cs),
(681,580,o),
(551,730,o),
(363,730,cs),
(178,730,o),
(48,580,o),
(48,363,cs),
(48,144,o),
(179,-10,o),
(364,-10,cs)
);
},
{
closed = 1;
nodes = (
(223,62,o),
(130,183,o),
(130,364,cs),
(130,542,o),
(221,658,o),
(363,658,cs),
(506,658,o),
(599,541,o),
(599,364,cs),
(599,184,o),
(504,62,o),
(363,62,cs)
);
},
{
closed = 1;
nodes = (
(608,-24,o),
(556,9,o),
(547,64,c),
(495,32,o),
(482,54,o),
(458,42,c),
(500,-37,o),
(553,-81,o),
(622,-96,c),
(622,-96,o),
(664,-24,o),
(664,-24,c)
);
}
);
width = 729;
}
);
unicode = 81;
}
{
glyphname = R;
kernRight = KO_R;
layers = (
{
anchors = (
{
name = bottom;
pos = (320,0);
},
{
name = top;
pos = (320,720);
}
);
layerId = "522FD917-7CD6-43A0-922F-6555542696CE";
shapes = (
{
closed = 1;
nodes = (
(202,0,l),
(202,283,l),
(286,283,ls),
(331,283,o),
(367,256,o),
(396,202,c),
(483,0,l),
(647,0,l),
(553,215,l),
(531,264,o),
(505,302,o),
(463,327,c),
(534,356,o),
(593,408,o),
(593,505,cs),
(593,634,o),
(492,720,o),
(338,720,cs),
(50,720,l),
(50,0,l)
);
},
{
closed = 1;
nodes = (
(202,604,l),
(331,604,ls),
(398,604,o),
(450,566,o),
(450,504,cs),
(450,442,o),
(398,401,o),
(331,401,cs),
(202,401,l)
);
}
);
width = 631;
},
{
anchors = (
{
name = bottom;
pos = (311,0);
},
{
name = top;
pos = (311,720);
}
);
layerId = "AF447C8E-6A86-4BB0-AFAA-0E31F633710F";
shapes = (
{
closed = 1;
nodes = (
(162,0,l),
(162,320,l),
(306,320,l),
(356,320,o),
(393,286,o),
(430,214,c),
(517,0,l),
(605,0,l),
(520,208,l),
(493,275,o),
(454,325,o),
(410,347,c),
(495,370,o),
(555,443,o),
(555,526,cs),
(555,645,o),
(467,720,o),
(326,720,cs),
(83,720,l),
(83,0,l)
);
},
{
closed = 1;
nodes = (
(162,650,l),
(323,650,ls),
(420,650,o),
(475,606,o),
(475,526,cs),
(475,436,o),
(420,385,o),
(323,385,cs),
(162,385,l)
);
}
);
width = 612;
},
{
anchors = (
{
name = bottom;
pos = (320,0);
},
{
name = top;
pos = (320,720);
}
);
associatedMasterId = "522FD917-7CD6-43A0-922F-6555542696CE";
layerId = "62C685A6-EA10-4AB0-B58F-9D9ACA6C4FA8";
name = "14. 10. 25 at 7:29 PM";
shapes = (
{
closed = 1;
nodes = (
(202,0,l),
(202,275,l),
(276,275,ls),
(332,275,o),
(365,241,o),
(386,194,c),
(473,0,l),
(631,0,l),
(532,225,l),
(514,265,o),
(496,290,o),
(463,319,c),
(547,348,o),
(593,419,o),
(593,500,cs),
(593,634,o),
(492,720,o),
(338,720,cs),
(50,720,l),
(50,0,l)
);
},
{
closed = 1;
nodes = (
(202,604,l),
(331,604,ls),
(398,604,o),
(450,566,o),
(450,499,cs),
(450,434,o),
(398,393,o),
(331,393,cs),
(202,393,l)
);
}
);
visible = 1;
width = 631;
}
);
unicode = 82;
userData = {
KernOnSpecialSpacing = {
L = NoKerning;
};
};
}
{
color = 9;
glyphname = S;
kernLeft = KO_S;
kernRight = KO_S;
layers = (
{
anchors = (
{
name = bottom;
pos = (324,0);
},
{
name = top;
pos = (316,720);
}
);
layerId = "522FD917-7CD6-43A0-922F-6555542696CE";
shapes = (
{
closed = 1;
nodes = (
(473,-9,o),
(590,56,o),
(590,208,cs),
(590,323,o),
(516,379,o),
(409,416,c),
(287,457,l),
(250,471,o),
(203,491,o),
(203,546,cs),
(203,597,o),
(255,618,o),
(305,618,cs),
(392,618,o),
(445,566,o),
(437,457,c),
(369,481,l),
(642,530,l),
(581,487,l),
(579,654,o),
(465,731,o),
(313,731,cs),
(172,731,o),
(58,665,o),
(58,524,cs),
(58,412,o),
(134,354,o),
(239,318,c),
(361,278,l),
(413,260,o),
(445,235,o),
(445,182,cs),
(445,126,o),
(389,104,o),
(330,104,cs),
(231,104,o),
(151,166,o),
(171,284,c),
(233,261,l),
(-34,190,l),
(24,244,l),
(32,69,o),
(163,-9,o),
(323,-9,cs)
);
}
);
width = 612;
},
{
anchors = (
{
name = bottom;
pos = (294,0);
},
{
name = top;
pos = (294,720);
}
);
layerId = "AF447C8E-6A86-4BB0-AFAA-0E31F633710F";
shapes = (
{
closed = 1;
nodes = (
(435,-9,o),
(529,49,o),
(529,176,cs),
(529,278,o),
(470,339,o),
(376,378,c),
(254,429,l),
(196,452,o),
(148,484,o),
(148,552,cs),
(148,628,o),
(210,660,o),
(287,660,cs),
(393,660,o),
(437,598,o),
(446,485,c),
(409,507,l),
(553,533,l),
(521,500,l),
(514,648,o),
(429,730,o),
(289,730,cs),
(170,730,o),
(70,667,o),
(70,545,cs),
(70,444,o),
(140,390,o),
(233,353,c),
(358,300,l),
(417,275,o),
(451,246,o),
(451,176,cs),
(451,92,o),
(391,61,o),
(308,61,cs),
(187,61,o),
(121,126,o),
(115,257,c),
(150,237,l),
(9,202,l),
(39,236,l),
(50,77,o),
(153,-9,o),
(308,-9,cs)
);
}
);
width = 569;
}
);
unicode = 83;
userData = {
KernOnName = S;
};
}
{
glyphname = T;
kernLeft = KO_T;
kernRight = KO_T;
layers = (
{
anchors = (
{
name = bottom;
pos = (312,0);
},
{
name = center;
pos = (312,378);
},
{
name = top;
pos = (312,720);
}
);
layerId = "522FD917-7CD6-43A0-922F-6555542696CE";
shapes = (
{
closed = 1;
nodes = (
(388,0,l),
(388,604,l),
(602,604,l),
(602,720,l),
(21,720,l),
(21,604,l),
(236,604,l),
(236,0,l)
);
}
);
width = 623;
},
{
anchors = (
{
name = bottom;
pos = (301,0);
},
{
name = center;
pos = (301,377);
},
{
name = top;
pos = (301,720);
}
);
layerId = "AF447C8E-6A86-4BB0-AFAA-0E31F633710F";
shapes = (
{
closed = 1;
nodes = (
(340,0,l),
(340,650,l),
(568,650,l),
(568,720,l),
(33,720,l),
(33,650,l),
(261,650,l),
(261,0,l)
);
}
);
width = 601;
}
);
metricRight = "=|";
unicode = 84;
userData = {
KernOnName = T;
};
}
{
glyphname = U;
kernLeft = KO_U;
kernRight = KO_U;
layers = (
{
anchors = (
{
name = bottom;
pos = (330,0);
},
{
name = ogonek;
pos = (477,20);
},
{
name = top;
pos = (330,720);
},
{
name = topright;
pos = (644,720);
}
);
layerId = "522FD917-7CD6-43A0-922F-6555542696CE";
shapes = (
{
closed = 1;
nodes = (
(520,-10,o),
(617,99,o),
(617,297,cs),
(617,720,l),
(465,720,l),
(465,269,ls),
(465,160,o),
(414,110,o),
(330,110,cs),
(245,110,o),
(194,160,o),
(194,270,cs),
(194,720,l),
(43,720,l),
(43,298,ls),
(43,99,o),
(138,-10,o),
(329,-10,cs)
);
}
);
width = 660;
},
{
anchors = (
{
name = bottom;
pos = (332,0);
},
{
name = ogonek;
pos = (463,20);
},
{
name = top;
pos = (332,720);
},
{
name = topright;
pos = (645,720);
}
);
layerId = "AF447C8E-6A86-4BB0-AFAA-0E31F633710F";
shapes = (
{
closed = 1;
nodes = (
(494,-10,o),
(588,94,o),
(588,270,cs),
(588,720,l),
(508,720,l),
(508,267,ls),
(508,133,o),
(445,62,o),
(332,62,cs),
(219,62,o),
(156,134,o),
(156,267,cs),
(156,720,l),
(77,720,l),
(77,271,ls),
(77,94,o),
(170,-10,o),
(332,-10,cs)
);
}
);
width = 665;
}
);
unicode = 85;
userData = {
KernOnName = U;
};
}
{
glyphname = V;
kernLeft = KO_V;
kernRight = KO_V;
layers = (
{
layerId = "522FD917-7CD6-43A0-922F-6555542696CE";
shapes = (
{
closed = 1;
nodes = (
(431,0,l),
(665,720,l),
(517,720,l),
(339,116,l),
(355,116,l),
(178,720,l),
(22,720,l),
(256,0,l)
);
}
);
width = 687;
},
{
layerId = "AF447C8E-6A86-4BB0-AFAA-0E31F633710F";
shapes = (
{
closed = 1;
nodes = (
(385,0,l),
(638,720,l),
(559,720,l),
(326,39,l),
(352,39,l),
(118,720,l),
(34,720,l),
(287,0,l)
);
}
);
width = 672;
}
);
unicode = 86;
userData = {
KernOnName = V;
};
}
{
glyphname = W;
kernLeft = KO_W;
kernRight = KO_W;
layers = (
{
anchors = (
{
name = bottom;
pos = (502,0);
},
{
name = top;
pos = (502,720);
}
);
layerId = "522FD917-7CD6-43A0-922F-6555542696CE";
shapes = (
{
closed = 1;
nodes = (
(384,0,l),
(522,655,l),
(484,655,l),
(621,0,l),
(793,0,l),
(973,720,l),
(828,720,l),
(682,56,l),
(724,56,l),
(590,720,l),
(421,720,l),
(286,56,l),
(329,56,l),
(183,720,l),
(32,720,l),
(211,0,l)
);
}
);
width = 1005;
},
{
anchors = (
{
name = bottom;
pos = (498,0);
},
{
name = top;
pos = (498,720);
}
);
layerId = "AF447C8E-6A86-4BB0-AFAA-0E31F633710F";
shapes = (
{
closed = 1;
nodes = (
(336,0,l),
(504,640,l),
(493,640,l),
(660,0,l),
(758,0,l),
(949,720,l),
(872,720,l),
(703,60,l),
(717,60,l),
(549,720,l),
(451,720,l),
(284,60,l),
(298,60,l),
(128,720,l),
(47,720,l),
(238,0,l)
);
}
);
width = 996;
}
);
unicode = 87;
userData = {
KernOnName = W;
};
}
{
glyphname = X;
kernLeft = KO_X;
kernRight = KO_X;
layers = (
{
layerId = "522FD917-7CD6-43A0-922F-6555542696CE";
shapes = (
{
closed = 1;
nodes = (
(649,0,l),
(381,424,l),
(209,720,l),
(35,720,l),
(292,316,l),
(475,0,l)
);
},
{
closed = 1;
nodes = (
(367,291,l),
(649,720,l),
(492,720,l),
(316,428,l)
);
},
{
closed = 1;
nodes = (
(298,425,l),
(17,0,l),
(175,0,l),
(349,288,l)
);
}
);
width = 667;
},
{
layerId = "AF447C8E-6A86-4BB0-AFAA-0E31F633710F";
shapes = (
{
closed = 1;
nodes = (
(603,0,l),
(345,404,l),
(142,720,l),
(51,720,l),
(295,338,l),
(511,0,l)
);
},
{
closed = 1;
nodes = (
(348,334,l),
(601,720,l),
(516,720,l),
(306,403,l)
);
},
{
closed = 1;
nodes = (
(295,400,l),
(35,0,l),
(119,0,l),
(336,331,l)
);
}
);
width = 639;
}
);
unicode = 88;
userData = {
KernOnName = X;
};
}
{
glyphname = Y;
kernLeft = KO_Y;
kernRight = KO_Y;
layers = (
{
anchors = (
{
name = bottom;
pos = (335,0);
},
{
name = top;
pos = (335,720);
},
{
name = topleft;
pos = (20,720);
}
);
layerId = "522FD917-7CD6-43A0-922F-6555542696CE";
shapes = (
{
closed = 1;
nodes = (
(411,0,l),
(411,294,l),
(660,720,l),
(498,720,l),
(303,340,l),
(386,340,l),
(190,720,l),
(10,720,l),
(260,294,l),
(260,0,l)
);
}
);
width = 671;
},
{
anchors = (
{
name = bottom;
pos = (316,0);
},
{
name = top;
pos = (316,720);
},
{
name = topleft;
pos = (20,720);
}
);
layerId = "AF447C8E-6A86-4BB0-AFAA-0E31F633710F";
shapes = (
{
closed = 1;
nodes = (
(355,0,l),
(355,328,l),
(610,720,l),
(522,720,l),
(302,376,l),
(338,376,l),
(117,720,l),
(22,720,l),
(276,328,l),
(276,0,l)
);
}
);
width = 631;
}
);
unicode = 89;
userData = {
KernOnName = Y;
};
}
{
glyphname = Z;
kernLeft = KO_Z;
kernRight = KO_Z;
layers = (
{
anchors = (
{
name = bottom;
pos = (300,0);
},
{
name = center;
pos = (300,360);
},
{
name = top;
pos = (300,720);
}
);
layerId = "522FD917-7CD6-43A0-922F-6555542696CE";
shapes = (
{
closed = 1;
nodes = (
(562,0,l),
(562,116,l),
(168,116,l),
(200,73,l),
(558,621,l),
(558,720,l),
(53,720,l),
(53,604,l),
(434,604,l),
(401,653,l),
(40,103,l),
(40,0,l)
);
}
);
width = 599;
},
{
anchors = (
{
name = bottom;
pos = (295,0);
},
{
name = center;
pos = (295,360);
},
{
name = top;
pos = (295,720);
}
);
layerId = "AF447C8E-6A86-4BB0-AFAA-0E31F633710F";
shapes = (
{
closed = 1;
nodes = (
(534,0,l),
(534,70,l),
(106,70,l),
(134,31,l),
(525,660,l),
(525,720,l),
(71,720,l),
(71,650,l),
(479,650,l),
(451,689,l),
(60,60,l),
(60,0,l)
);
}
);
width = 589;
}
);
unicode = 90;
userData = {
KernOnName = Z;
};
}
{
glyphname = bracketleft;
kernRight = KO_bracketleft;
layers = (
{
layerId = "522FD917-7CD6-43A0-922F-6555542696CE";
shapes = (
{
closed = 1;
nodes = (
(392,-108,l),
(392,8,l),
(218,8,l),
(218,634,l),
(392,634,l),
(392,750,l),
(78,750,l),
(78,-108,l)
);
}
);
width = 440;
},
{
layerId = "AF447C8E-6A86-4BB0-AFAA-0E31F633710F";
shapes = (
{
closed = 1;
nodes = (
(334,-108,l),
(334,-46,l),
(160,-46,l),
(160,688,l),
(334,688,l),
(334,750,l),
(88,750,l),
(88,-108,l)
);
}
);
width = 392;
}
);
unicode = 91;
userData = {
KernOnSpecialSpacing = {
L = NoKerning;
R = parenthesis;
};
};
}
{
glyphname = backslash;
layers = (
{
layerId = "522FD917-7CD6-43A0-922F-6555542696CE";
shapes = (
{
closed = 1;
nodes = (
(263,-80,l),
(390,-80,l),
(154,770,l),
(27,770,l)
);
}
);
width = 417;
},
{
layerId = "AF447C8E-6A86-4BB0-AFAA-0E31F633710F";
shapes = (
{
closed = 1;
nodes = (
(282,-60,l),
(350,-60,l),
(125,750,l),
(57,750,l)
);
}
);
width = 407;
}
);
unicode = 92;
userData = {
KernOnSpecialSpacing = {
L = "spaced-off";
R = "spaced-off";
};
};
}
{
glyphname = asciicircum;
kernRight = KO_asciicircum;
layers = (
{
layerId = "522FD917-7CD6-43A0-922F-6555542696CE";
shapes = (
{
closed = 1;
nodes = (
(299,699,l),
(216,699,l),
(357,491,l),
(465,491,l),
(318,740,l),
(197,740,l),
(50,491,l),
(158,491,l)
);
}
);
width = 515;
},
{
layerId = "AF447C8E-6A86-4BB0-AFAA-0E31F633710F";
shapes = (
{
closed = 1;
nodes = (
(263,699,l),
(226,699,l),
(367,491,l),
(429,491,l),
(282,740,l),
(207,740,l),
(60,491,l),
(122,491,l)
);
}
);
width = 489;
}
);
unicode = 94;
userData = {
KernOnSpecialSpacing = {
L = math;
R = math;
};
};
}
{
color = 9;
glyphname = a;
kernLeft = KO_a;
kernRight = KO_a;
layers = (
{
anchors = (
{
name = bottom;
pos = (277,0);
},
{
name = ogonek;
pos = (504,0);
},
{
name = top;
pos = (277,510);
}
);
layerId = "522FD917-7CD6-43A0-922F-6555542696CE";
shapes = (
{
closed = 1;
nodes = (
(262,-10,o),
(315,19,o),
(346,79,c),
(348,54,o),
(349,28,o),
(357,0,c),
(503,0,l),
(494,31,o),
(488,70,o),
(488,101,c),
(488,336,l),
(488,464,o),
(403,520,o),
(275,520,cs),
(144,520,o),
(52,453,o),
(47,339,c),
(-12,370,l),
(255,325,l),
(191,297,l),
(172,384,o),
(214,414,o),
(269,414,cs),
(315,414,o),
(342,393,o),
(342,348,c),
(342,323,l),
(221,298,l),
(120,279,o),
(36,233,o),
(36,129,cs),
(36,40,o),
(104,-10,o),
(190,-10,cs)
);
},
{
closed = 1;
nodes = (
(213,98,o),
(182,112,o),
(182,148,cs),
(182,191,o),
(216,210,o),
(257,217,cs),
(342,232,l),
(342,173,l),
(342,128,o),
(291,98,o),
(243,98,c)
);
}
);
width = 540;
},
{
anchors = (
{
name = bottom;
pos = (253,0);
},
{
name = ogonek;
pos = (443,0);
},
{
name = top;
pos = (253,510);
}
);
layerId = "AF447C8E-6A86-4BB0-AFAA-0E31F633710F";
shapes = (
{
closed = 1;
nodes = (
(273,-10,o),
(334,14,o),
(363,76,c),
(363,61,o),
(367,12,o),
(370,0,c),
(443,0,l),
(438,29,o),
(433,63,o),
(433,93,c),
(433,348,l),
(433,464,o),
(373,520,o),
(258,520,cs),
(147,520,o),
(58,464,o),
(59,349,c),
(26,381,l),
(167,356,l),
(133,334,l),
(125,418,o),
(181,454,o),
(254,454,cs),
(326,454,o),
(357,421,o),
(357,349,c),
(357,318,l),
(213,288,l),
(121,268,o),
(45,229,o),
(45,131,cs),
(45,40,o),
(114,-10,o),
(205,-10,cs)
);
},
{
closed = 1;
nodes = (
(162,56,o),
(121,79,o),
(121,134,cs),
(121,193,o),
(169,215,o),
(226,228,c),
(357,253,l),
(357,167,l),
(357,95,o),
(289,56,o),
(218,56,cs)
);
}
);
width = 504;
}
);
unicode = 97;
userData = {
KernOnName = a;
};
}
{
glyphname = b;
kernRight = KO_p;
layers = (
{
layerId = "522FD917-7CD6-43A0-922F-6555542696CE";
shapes = (
{
closed = 1;
nodes = (
(488,-10,o),
(574,95,o),
(574,258,cs),
(574,418,o),
(492,520,o),
(363,520,cs),
(275,520,o),
(210,475,o),
(196,402,c),
(204,400,l),
(204,720,l),
(57,720,l),
(57,0,l),
(200,0,l),
(200,115,l),
(193,114,l),
(204,36,o),
(266,-10,o),
(355,-10,cs)
);
},
{
closed = 1;
nodes = (
(246,108,o),
(202,159,o),
(202,255,cs),
(202,350,o),
(246,402,o),
(311,402,cs),
(377,402,o),
(421,352,o),
(421,256,cs),
(421,160,o),
(376,108,o),
(312,108,cs)
);
}
);
width = 598;
},
{
layerId = "AF447C8E-6A86-4BB0-AFAA-0E31F633710F";
shapes = (
{
closed = 1;
nodes = (
(447,-9,o),
(533,96,o),
(533,258,cs),
(533,417,o),
(450,520,o),
(322,520,cs),
(235,520,o),
(167,474,o),
(144,398,c),
(154,394,l),
(154,720,l),
(77,720,l),
(77,0,l),
(149,0,l),
(149,124,l),
(139,121,l),
(160,39,o),
(225,-9,o),
(314,-9,cs)
);
},
{
closed = 1;
nodes = (
(208,59,o),
(150,132,o),
(150,254,cs),
(150,378,o),
(206,452,o),
(302,452,cs),
(398,452,o),
(454,380,o),
(454,257,cs),
(454,132,o),
(398,59,o),
(303,59,cs)
);
}
);
width = 574;
}
);
unicode = 98;
userData = {
KernOnSpecialSpacing = {
L = NoKerning;
};
};
}
{
color = 9;
glyphname = c;
kernLeft = KO_e;
kernRight = KO_c;
layers = (
{
anchors = (
{
name = bottom;
pos = (270,0);
},
{
name = top;
pos = (280,510);
}
);
layerId = "522FD917-7CD6-43A0-922F-6555542696CE";
shapes = (
{
closed = 1;
nodes = (
(384,-10,o),
(478,47,o),
(508,151,c),
(375,186,l),
(364,137,o),
(328,106,o),
(280,106,cs),
(205,106,o),
(173,181,o),
(173,253,cs),
(173,316,o),
(193,404,o),
(280,404,cs),
(329,404,o),
(364,372,o),
(375,323,c),
(510,347,l),
(484,458,o),
(390,520,o),
(277,520,cs),
(119,520,o),
(20,399,o),
(20,256,cs),
(20,107,o),
(119,-10,o),
(276,-10,cs)
);
}
);
width = 533;
},
{
anchors = (
{
name = bottom;
pos = (264,0);
},
{
name = top;
pos = (265,510);
}
);
layerId = "AF447C8E-6A86-4BB0-AFAA-0E31F633710F";
shapes = (
{
closed = 1;
nodes = (
(370,-11,o),
(444,59,o),
(464,153,c),
(395,171,l),
(387,116,o),
(346,56,o),
(267,56,cs),
(172,56,o),
(118,147,o),
(118,250,cs),
(118,353,o),
(158,453,o),
(267,453,cs),
(346,453,o),
(385,398,o),
(394,337,c),
(465,349,l),
(450,445,o),
(378,519,o),
(265,519,cs),
(118,519,o),
(38,389,o),
(38,256,cs),
(38,115,o),
(125,-11,o),
(265,-11,cs)
);
}
);
width = 503;
}
);
unicode = 99;
}
{
glyphname = d;
kernLeft = KO_d;
layers = (
{
anchors = (
{
name = bottom;
pos = (299,0);
},
{
name = center;
pos = (299,255);
},
{
name = top;
pos = (299,736);
},
{
name = topright;
pos = (590,720);
}
);
layerId = "522FD917-7CD6-43A0-922F-6555542696CE";
shapes = (
{
closed = 1;
nodes = (
(541,0,l),
(541,720,l),
(394,720,l),
(394,395,l),
(406,396,l),
(395,474,o),
(332,520,o),
(243,520,cs),
(110,520,o),
(24,415,o),
(24,252,cs),
(24,92,o),
(106,-10,o),
(238,-10,cs),
(325,-10,o),
(393,35,o),
(407,108,c),
(397,110,l),
(397,0,l)
);
},
{
closed = 1;
nodes = (
(222,108,o),
(177,158,o),
(177,254,cs),
(177,350,o),
(222,402,o),
(286,402,cs),
(352,402,o),
(396,351,o),
(396,255,cs),
(396,160,o),
(352,108,o),
(288,108,cs)
);
}
);
width = 598;
},
{
anchors = (
{
name = bottom;
pos = (287,0);
},
{
name = center;
pos = (287,255);
},
{
name = top;
pos = (287,736);
},
{
name = topright;
pos = (564,720);
}
);
layerId = "AF447C8E-6A86-4BB0-AFAA-0E31F633710F";
shapes = (
{
closed = 1;
nodes = (
(498,0,l),
(498,720,l),
(420,720,l),
(420,386,l),
(435,389,l),
(414,471,o),
(349,519,o),
(260,519,cs),
(127,519,o),
(41,414,o),
(41,252,cs),
(41,93,o),
(125,-10,o),
(257,-10,cs),
(343,-10,o),
(411,36,o),
(434,112,c),
(425,116,l),
(425,0,l)
);
},
{
closed = 1;
nodes = (
(177,58,o),
(121,130,o),
(121,253,cs),
(121,378,o),
(176,451,o),
(272,451,cs),
(367,451,o),
(424,378,o),
(424,256,cs),
(424,132,o),
(368,58,o),
(272,58,cs)
);
}
);
width = 574;
}
);
unicode = 100;
userData = {
KernOnName = d;
KernOnSpecialSpacing = {
R = NoKerning;
};
};
}
{
color = 9;
glyphname = e;
kernLeft = KO_e;
kernRight = KO_e;
layers = (
{
anchors = (
{
name = bottom;
pos = (274,0);
},
{
name = ogonek;
pos = (414,20);
},
{
name = top;
pos = (284,510);
}
);
layerId = "522FD917-7CD6-43A0-922F-6555542696CE";
shapes = (
{
closed = 1;
nodes = (
(386,-10,o),
(463,34,o),
(502,118,c),
(378,152,l),
(361,114,o),
(328,96,o),
(285,96,cs),
(187,96,o),
(170,185,o),
(170,212,c),
(524,212,l),
(541,381,o),
(466,520,o),
(282,520,cs),
(121,520,o),
(20,407,o),
(20,252,cs),
(20,94,o),
(128,-10,o),
(285,-10,cs)
);
},
{
closed = 1;
nodes = (
(183,372,o),
(218,414,o),
(280,414,cs),
(342,414,o),
(378,375,o),
(381,309,c),
(172,309,l)
);
}
);
width = 546;
},
{
anchors = (
{
name = bottom;
pos = (265,0);
},
{
name = ogonek;
pos = (385,20);
},
{
name = top;
pos = (276,510);
}
);
layerId = "AF447C8E-6A86-4BB0-AFAA-0E31F633710F";
shapes = (
{
closed = 1;
nodes = (
(365,-10,o),
(440,42,o),
(473,127,c),
(405,145,l),
(385,86,o),
(334,56,o),
(275,56,cs),
(168,56,o),
(127,148,o),
(119,233,c),
(489,233,l),
(504,312,o),
(478,520,o),
(275,520,cs),
(127,520,o),
(39,407,o),
(39,248,cs),
(39,90,o),
(143,-10,o),
(271,-10,cs)
);
},
{
closed = 1;
nodes = (
(133,386,o),
(185,454,o),
(274,454,cs),
(365,454,o),
(406,386,o),
(415,298,c),
(121,298,l)
);
}
);
width = 532;
}
);
metricLeft = o;
metricRight = o;
unicode = 101;
userData = {
KernOnName = e;
};
}
{
glyphname = f;
kernLeft = KO_f;
kernRight = KO_f;
layers = (
{
layerId = "522FD917-7CD6-43A0-922F-6555542696CE";
shapes = (
{
closed = 1;
nodes = (
(240,0,l),
(240,548,ls),
(240,590,o),
(262,614,o),
(310,614,cs),
(327,614,o),
(339,612,o),
(349,608,c),
(349,721,l),
(329,727,o),
(311,730,o),
(284,730,cs),
(157,730,o),
(93,669,o),
(93,550,cs),
(93,0,l)
);
},
{
closed = 1;
nodes = (
(339,397,l),
(339,510,l),
(13,510,l),
(13,397,l)
);
}
);
width = 363;
},
{
layerId = "AF447C8E-6A86-4BB0-AFAA-0E31F633710F";
shapes = (
{
closed = 1;
nodes = (
(191,0,l),
(191,585,ls),
(191,637,o),
(217,667,o),
(275,667,cs),
(293,667,o),
(309,665,o),
(318,662,c),
(318,723,l),
(307,727,o),
(294,730,o),
(268,730,cs),
(165,730,o),
(114,678,o),
(114,589,cs),
(114,0,l)
);
},
{
closed = 1;
nodes = (
(307,444,l),
(307,510,l),
(16,510,l),
(16,444,l)
);
}
);
width = 334;
}
);
unicode = 102;
userData = {
KernOnName = f;
};
}
{
color = 9;
glyphname = g;
kernLeft = KO_g;
layers = (
{
anchors = (
{
name = bottom;
pos = (299,-205);
},
{
name = top;
pos = (286,510);
}
);
layerId = "522FD917-7CD6-43A0-922F-6555542696CE";
shapes = (
{
closed = 1;
nodes = (
(437,-214,o),
(541,-134,o),
(541,18,c),
(541,510,l),
(398,510,l),
(398,427,l),
(375,491,o),
(318,520,o),
(245,520,cs),
(115,520,o),
(25,419,o),
(25,262,cs),
(25,122,o),
(97,9,o),
(237,9,cs),
(303,9,o),
(369,36,o),
(394,98,c),
(394,11,l),
(394,-63,o),
(350,-88,o),
(278,-88,cs),
(244,-88,o),
(197,-79,o),
(184,-47,c),
(54,-82,l),
(83,-174,o),
(184,-214,o),
(284,-214,cs)
);
},
{
closed = 1;
nodes = (
(212,123,o),
(177,186,o),
(177,263,cs),
(177,339,o),
(213,406,o),
(286,406,cs),
(362,406,o),
(396,342,o),
(396,264,cs),
(396,186,o),
(361,123,o),
(288,123,cs)
);
}
);
width = 598;
},
{
anchors = (
{
name = bottom;
pos = (287,-205);
},
{
name = top;
pos = (272,510);
}
);
layerId = "AF447C8E-6A86-4BB0-AFAA-0E31F633710F";
shapes = (
{
closed = 1;
nodes = (
(410,-214,o),
(498,-130,o),
(498,11,c),
(498,510,l),
(426,510,l),
(426,418,l),
(399,487,o),
(336,519,o),
(262,519,cs),
(117,519,o),
(42,401,o),
(42,257,cs),
(42,114,o),
(118,1,o),
(253,1,cs),
(328,1,o),
(391,36,o),
(420,96,c),
(420,9,l),
(420,-91,o),
(374,-148,o),
(274,-148,cs),
(207,-148,o),
(146,-123,o),
(132,-61,c),
(62,-80,l),
(85,-167,o),
(170,-214,o),
(269,-214,cs)
);
},
{
closed = 1;
nodes = (
(169,69,o),
(122,154,o),
(122,259,cs),
(122,365,o),
(168,452,o),
(272,452,cs),
(377,452,o),
(424,366,o),
(424,262,cs),
(424,157,o),
(377,69,o),
(273,69,c)
);
}
);
width = 574;
}
);
unicode = 103;
userData = {
KernOnSpecialSpacing = {
R = NoKerning;
};
};
}
{
glyphname = h;
kernRight = KO_n;
layers = (
{
anchors = (
{
name = bottom;
pos = (276,0);
},
{
name = top;
pos = (276,510);
}
);
layerId = "522FD917-7CD6-43A0-922F-6555542696CE";
shapes = (
{
closed = 1;
nodes = (
(204,0,l),
(204,720,l),
(57,720,l),
(57,0,l)
);
},
{
closed = 1;
nodes = (
(536,0,l),
(536,354,ls),
(536,456,o),
(478,520,o),
(374,520,cs),
(284,520,o),
(222,474,o),
(190,400,c),
(204,287,l),
(204,355,o),
(248,402,o),
(313,402,cs),
(363,402,o),
(389,376,o),
(389,325,cs),
(389,0,l)
);
}
);
width = 588;
},
{
anchors = (
{
name = bottom;
pos = (299,0);
},
{
name = top;
pos = (299,510);
}
);
layerId = "AF447C8E-6A86-4BB0-AFAA-0E31F633710F";
shapes = (
{
closed = 1;
nodes = (
(154,0,l),
(154,720,l),
(77,720,l),
(77,0,l)
);
},
{
closed = 1;
nodes = (
(496,0,l),
(496,362,ls),
(496,457,o),
(431,520,o),
(331,520,cs),
(245,520,o),
(174,474,o),
(142,402,c),
(154,287,l),
(154,383,o),
(218,452,o),
(313,452,cs),
(383,452,o),
(419,415,o),
(419,342,cs),
(419,0,l)
);
}
);
width = 568;
}
);
metricLeft = n;
metricRight = n;
unicode = 104;
userData = {
KernOnSpecialSpacing = {
L = NoKerning;
};
};
}
{
glyphname = k;
kernLeft = KO_j;
kernRight = KO_k.ss04;
layers = (
{
anchors = (
{
name = bottom;
pos = (274,0);
},
{
name = top;
pos = (272,740);
}
);
layerId = "522FD917-7CD6-43A0-922F-6555542696CE";
shapes = (
{
closed = 1;
nodes = (
(204,0,l),
(204,720,l),
(57,720,l),
(57,0,l)
);
},
{
closed = 1;
nodes = (
(184,123,l),
(314,271,l),
(327,275,l),
(524,510,l),
(356,510,l),
(136,235,l)
);
},
{
closed = 1;
nodes = (
(220,265,l),
(377,0,l),
(539,0,l),
(341,318,l)
);
}
);
width = 543;
},
{
anchors = (
{
name = bottom;
pos = (274,0);
},
{
name = top;
pos = (254,740);
}
);
layerId = "AF447C8E-6A86-4BB0-AFAA-0E31F633710F";
shapes = (
{
closed = 1;
nodes = (
(154,0,l),
(154,720,l),
(77,720,l),
(77,0,l)
);
},
{
closed = 1;
nodes = (
(139,135,l),
(268,275,l),
(275,277,l),
(483,510,l),
(388,510,l),
(125,215,l)
);
},
{
closed = 1;
nodes = (
(224,280,l),
(406,0,l),
(496,4,l),
(288,313,l)
);
}
);
width = 508;
}
);
unicode = 107;
}
{
glyphname = l;
layers = (
{
anchors = (
{
name = bottom;
pos = (131,0);
},
{
name = center;
pos = (131,370);
},
{
name = top;
pos = (131,720);
},
{
name = topright;
pos = (253,720);
}
);
layerId = "522FD917-7CD6-43A0-922F-6555542696CE";
shapes = (
{
closed = 1;
nodes = (
(204,0,l),
(204,720,l),
(57,720,l),
(57,0,l)
);
}
);
width = 261;
},
{
anchors = (
{
name = bottom;
pos = (116,0);
},
{
name = center;
pos = (116,370);
},
{
name = top;
pos = (116,720);
},
{
name = topright;
pos = (220,720);
}
);
layerId = "AF447C8E-6A86-4BB0-AFAA-0E31F633710F";
shapes = (
{
closed = 1;
nodes = (
(154,0,l),
(154,720,l),
(77,720,l),
(77,0,l)
);
}
);
width = 231;
}
);
unicode = 108;
userData = {
KernOnSpecialSpacing = {
L = NoKerning;
R = NoKerning;
};
};
}
{
glyphname = m;
kernRight = KO_n;
layers = (
{
layerId = "522FD917-7CD6-43A0-922F-6555542696CE";
shapes = (
{
closed = 1;
nodes = (
(204,0,l),
(204,395,l),
(201,395,l),
(201,510,l),
(57,510,l),
(57,0,l)
);
},
{
closed = 1;
nodes = (
(525,0,l),
(525,368,ls),
(525,456,o),
(466,520,o),
(368,520,cs),
(284,520,o),
(222,475,o),
(190,400,c),
(204,293,l),
(204,359,o),
(248,402,o),
(307,402,cs),
(351,402,o),
(377,380,o),
(377,331,cs),
(377,0,l)
);
},
{
closed = 1;
nodes = (
(845,0,l),
(845,360,ls),
(845,456,o),
(787,520,o),
(686,520,cs),
(597,520,o),
(535,475,o),
(503,400,c),
(525,293,l),
(525,359,o),
(569,402,o),
(627,402,cs),
(672,402,o),
(697,380,o),
(697,331,cs),
(697,0,l)
);
}
);
width = 897;
},
{
layerId = "AF447C8E-6A86-4BB0-AFAA-0E31F633710F";
shapes = (
{
closed = 1;
nodes = (
(154,0,l),
(154,395,l),
(149,395,l),
(149,510,l),
(77,510,l),
(77,0,l)
);
},
{
closed = 1;
nodes = (
(478,0,l),
(478,365,ls),
(478,460,o),
(415,520,o),
(322,520,cs),
(245,520,o),
(174,474,o),
(142,402,c),
(154,287,l),
(154,383,o),
(219,452,o),
(307,452,cs),
(367,452,o),
(400,419,o),
(400,347,cs),
(400,0,l)
);
},
{
closed = 1;
nodes = (
(802,0,l),
(802,365,ls),
(802,460,o),
(736,520,o),
(643,520,cs),
(565,520,o),
(491,475,o),
(458,403,c),
(478,287,l),
(478,384,o),
(543,452,o),
(630,452,cs),
(691,452,o),
(724,419,o),
(724,347,cs),
(724,0,l)
);
}
);
width = 874;
}
);
metricLeft = n;
metricRight = n;
unicode = 109;
userData = {
KernOnSpecialSpacing = {
L = NoKerning;
};
};
}
{
glyphname = o;
kernLeft = KO_e;
kernRight = KO_o;
layers = (
{
anchors = (
{
name = bottom;
pos = (288,0);
},
{
name = center;
pos = (288,255);
},
{
name = ogonek;
pos = (421,20);
},
{
name = top;
pos = (288,510);
},
{
name = topright;
pos = (555,510);
}
);
layerId = "522FD917-7CD6-43A0-922F-6555542696CE";
shapes = (
{
closed = 1;
nodes = (
(447,-10,o),
(555,97,o),
(555,257,cs),
(555,416,o),
(449,520,o),
(288,520,cs),
(127,520,o),
(20,416,o),
(20,257,cs),
(20,97,o),
(128,-10,o),
(288,-10,cs)
);
},
{
closed = 1;
nodes = (
(224,106,o),
(173,159,o),
(173,258,cs),
(173,354,o),
(223,404,o),
(288,404,cs),
(352,404,o),
(402,354,o),
(402,258,cs),
(402,159,o),
(352,106,o),
(288,106,cs)
);
}
);
width = 575;
},
{
anchors = (
{
name = bottom;
pos = (277,0);
},
{
name = center;
pos = (277,255);
},
{
name = ogonek;
pos = (393,20);
},
{
name = top;
pos = (277,510);
},
{
name = topright;
pos = (534,510);
}
);
layerId = "AF447C8E-6A86-4BB0-AFAA-0E31F633710F";
shapes = (
{
closed = 1;
nodes = (
(422,-10,o),
(514,105,o),
(514,257,cs),
(514,410,o),
(421,520,o),
(277,520,cs),
(134,520,o),
(39,410,o),
(39,257,cs),
(39,105,o),
(133,-10,o),
(277,-10,cs)
);
},
{
closed = 1;
nodes = (
(181,56,o),
(119,138,o),
(119,258,cs),
(119,377,o),
(181,454,o),
(277,454,cs),
(374,454,o),
(435,377,o),
(435,258,cs),
(435,138,o),
(374,56,o),
(277,56,cs)
);
}
);
width = 553;
}
);
unicode = 111;
userData = {
KernOnName = o;
};
}
{
glyphname = q;
kernLeft = KO_d;
layers = (
{
layerId = "522FD917-7CD6-43A0-922F-6555542696CE";
shapes = (
{
closed = 1;
nodes = (
(541,-205,l),
(541,510,l),
(397,510,l),
(397,395,l),
(406,396,l),
(395,474,o),
(333,520,o),
(244,520,cs),
(110,520,o),
(24,415,o),
(24,252,cs),
(24,92,o),
(106,-10,o),
(238,-10,cs),
(325,-10,o),
(393,35,o),
(407,108,c),
(394,110,l),
(394,-205,l)
);
},
{
closed = 1;
nodes = (
(219,108,o),
(177,158,o),
(177,254,cs),
(177,350,o),
(219,402,o),
(286,402,cs),
(355,402,o),
(396,351,o),
(396,255,cs),
(396,160,o),
(355,108,o),
(288,108,cs)
);
}
);
width = 598;
},
{
layerId = "AF447C8E-6A86-4BB0-AFAA-0E31F633710F";
shapes = (
{
closed = 1;
nodes = (
(498,-205,l),
(498,510,l),
(425,510,l),
(425,386,l),
(435,389,l),
(414,471,o),
(350,519,o),
(260,519,cs),
(127,519,o),
(41,414,o),
(41,252,cs),
(41,93,o),
(126,-10,o),
(257,-10,cs),
(343,-10,o),
(411,36,o),
(434,112,c),
(420,116,l),
(420,-205,l)
);
},
{
closed = 1;
nodes = (
(177,58,o),
(121,130,o),
(121,253,cs),
(121,378,o),
(176,451,o),
(272,451,cs),
(367,451,o),
(424,378,o),
(424,256,cs),
(424,132,o),
(368,58,o),
(272,58,cs)
);
}
);
width = 574;
}
);
unicode = 113;
userData = {
KernOnSpecialSpacing = {
R = NoKerning;
};
};
}
{
glyphname = r;
kernRight = KO_r;
layers = (
{
anchors = (
{
name = bottom;
pos = (127,0);
},
{
name = top;
pos = (207,510);
}
);
layerId = "522FD917-7CD6-43A0-922F-6555542696CE";
shapes = (
{
closed = 1;
nodes = (
(204,0,l),
(204,389,l),
(201,389,l),
(201,510,l),
(57,510,l),
(57,0,l)
);
},
{
closed = 1;
nodes = (
(204,351,o),
(247,380,o),
(335,380,cs),
(351,380,o),
(361,379,o),
(368,377,c),
(368,516,l),
(361,519,o),
(352,520,o),
(342,520,cs),
(266,520,o),
(214,475,o),
(191,386,c),
(204,271,l)
);
}
);
width = 381;
},
{
anchors = (
{
name = bottom;
pos = (115,0);
},
{
name = top;
pos = (204,510);
}
);
layerId = "AF447C8E-6A86-4BB0-AFAA-0E31F633710F";
shapes = (
{
closed = 1;
nodes = (
(154,0,l),
(154,385,l),
(149,385,l),
(149,510,l),
(77,510,l),
(77,0,l)
);
},
{
closed = 1;
nodes = (
(154,383,o),
(205,444,o),
(300,444,cs),
(315,444,o),
(325,443,o),
(332,441,c),
(332,516,l),
(325,519,o),
(316,520,o),
(301,520,cs),
(226,520,o),
(166,475,o),
(141,390,c),
(154,279,l)
);
}
);
width = 355;
}
);
unicode = 114;
userData = {
KernOnName = r;
KernOnSpecialSpacing = {
L = NoKerning;
};
};
}
{
color = 9;
glyphname = s;
kernLeft = KO_s;
kernRight = KO_s;
layers = (
{
anchors = (
{
name = bottom;
pos = (249,0);
},
{
name = top;
pos = (238,510);
}
);
layerId = "522FD917-7CD6-43A0-922F-6555542696CE";
shapes = (
{
closed = 1;
nodes = (
(364,-10,o),
(462,33,o),
(462,146,cs),
(462,230,o),
(405,283,o),
(321,305,cs),
(234,328,ls),
(206,336,o),
(169,347,o),
(169,377,cs),
(169,411,o),
(206,420,o),
(240,420,cs),
(299,420,o),
(346,398,o),
(318,300,c),
(259,344,l),
(518,388,l),
(457,339,l),
(460,467,o),
(360,520,o),
(241,520,cs),
(131,520,o),
(39,473,o),
(39,365,cs),
(39,272,o),
(116,231,o),
(198,210,cs),
(275,190,ls),
(307,182,o),
(332,173,o),
(332,139,cs),
(332,100,o),
(291,90,o),
(251,90,cs),
(185,90,o),
(121,125,o),
(155,216,c),
(210,187,l),
(-42,120,l),
(17,173,l),
(15,46,o),
(125,-10,o),
(251,-10,cs)
);
}
);
width = 477;
},
{
anchors = (
{
name = bottom;
pos = (237,-7);
},
{
name = top;
pos = (225,510);
}
);
layerId = "AF447C8E-6A86-4BB0-AFAA-0E31F633710F";
shapes = (
{
closed = 1;
nodes = (
(335,-9,o),
(416,32,o),
(416,130,cs),
(416,211,o),
(360,256,o),
(286,281,cs),
(210,307,ls),
(170,321,o),
(131,343,o),
(131,386,cs),
(131,437,o),
(177,456,o),
(226,456,cs),
(293,456,o),
(337,422,o),
(337,341,c),
(301,364,l),
(441,388,l),
(409,356,l),
(408,465,o),
(331,521,o),
(229,521,cs),
(134,521,o),
(57,473,o),
(57,381,cs),
(57,302,o),
(114,260,o),
(185,237,cs),
(262,212,ls),
(310,196,o),
(342,174,o),
(342,130,cs),
(342,75,o),
(293,55,o),
(238,55,cs),
(159,55,o),
(108,98,o),
(109,184,c),
(144,166,l),
(6,129,l),
(36,164,l),
(43,49,o),
(123,-9,o),
(236,-9,cs)
);
}
);
width = 444;
}
);
unicode = 115;
userData = {
KernOnName = s;
};
}
{
color = 9;
glyphname = t;
kernLeft = KO_t;
kernRight = KO_t;
layers = (
{
anchors = (
{
name = bottom;
pos = (258,0);
},
{
name = center;
pos = (145,255);
},
{
name = top;
pos = (145,510);
},
{
name = topright;
pos = (313,788);
}
);
layerId = "522FD917-7CD6-43A0-922F-6555542696CE";
shapes = (
{
closed = 1;
nodes = (
(305,-11,o),
(322,-10,o),
(338,-7,c),
(353,-4,o),
(364,-1,o),
(373,4,c),
(373,116,l),
(365,113,o),
(358,111,o),
(349,109,c),
(340,107,o),
(332,106,o),
(322,106,c),
(297,106,o),
(280,112,o),
(268,122,c),
(255,133,o),
(250,148,o),
(250,169,c),
(250,698,l),
(102,631,l),
(102,173,l),
(102,111,o),
(118,65,o),
(148,35,cs),
(178,5,o),
(225,-11,o),
(287,-11,c)
);
},
{
closed = 1;
nodes = (
(372,397,l),
(372,510,l),
(13,510,l),
(13,397,l)
);
}
);
width = 399;
},
{
anchors = (
{
name = bottom;
pos = (231,0);
},
{
name = center;
pos = (174,255);
},
{
name = top;
pos = (174,510);
},
{
name = topright;
pos = (288,776);
}
);
layerId = "AF447C8E-6A86-4BB0-AFAA-0E31F633710F";
shapes = (
{
closed = 1;
nodes = (
(281,-9,o),
(294,-8,o),
(307,-6,c),
(318,-5,o),
(326,-4,o),
(334,-1,c),
(334,65,l),
(328,62,o),
(321,61,o),
(312,60,c),
(302,58,o),
(292,57,o),
(279,57,c),
(248,57,o),
(227,63,o),
(212,76,c),
(198,88,o),
(191,107,o),
(191,135,c),
(191,678,l),
(114,638,l),
(114,133,l),
(114,87,o),
(127,52,o),
(151,28,cs),
(175,4,o),
(214,-9,o),
(267,-9,c)
);
},
{
closed = 1;
nodes = (
(334,444,l),
(334,510,l),
(16,510,l),
(16,444,l)
);
}
);
width = 355;
}
);
unicode = 116;
userData = {
KernOnName = t;
};
}
{
glyphname = u;
kernLeft = KO_u;
kernRight = KO_u;
layers = (
{
anchors = (
{
name = bottom;
pos = (291,0);
},
{
name = ogonek;
pos = (524,0);
},
{
name = top;
pos = (291,510);
},
{
name = topright;
pos = (561,510);
}
);
layerId = "522FD917-7CD6-43A0-922F-6555542696CE";
shapes = (
{
closed = 1;
nodes = (
(297,-10,o),
(358,36,o),
(390,110,c),
(376,223,l),
(376,155,o),
(332,108,o),
(272,108,cs),
(226,108,o),
(200,134,o),
(200,185,cs),
(200,510,l),
(52,510,l),
(52,155,ls),
(52,61,o),
(110,-10,o),
(211,-10,cs)
);
},
{
closed = 1;
nodes = (
(524,0,l),
(524,510,l),
(376,510,l),
(376,115,l),
(380,115,l),
(380,0,l)
);
}
);
width = 581;
},
{
anchors = (
{
name = bottom;
pos = (280,0);
},
{
name = ogonek;
pos = (482,0);
},
{
name = top;
pos = (280,510);
},
{
name = topright;
pos = (539,510);
}
);
layerId = "AF447C8E-6A86-4BB0-AFAA-0E31F633710F";
shapes = (
{
closed = 1;
nodes = (
(314,-10,o),
(385,35,o),
(417,107,c),
(405,222,l),
(405,127,o),
(340,58,o),
(251,58,cs),
(186,58,o),
(150,95,o),
(150,166,cs),
(150,510,l),
(72,510,l),
(72,148,ls),
(72,53,o),
(138,-10,o),
(234,-10,cs)
);
},
{
closed = 1;
nodes = (
(482,0,l),
(482,510,l),
(405,510,l),
(405,114,l),
(410,114,l),
(410,0,l)
);
}
);
width = 559;
}
);
metricLeft = "=|n";
metricRight = "=|n";
unicode = 117;
userData = {
KernOnName = u;
};
}
{
glyphname = v;
kernLeft = KO_v;
kernRight = KO_y;
layers = (
{
layerId = "522FD917-7CD6-43A0-922F-6555542696CE";
shapes = (
{
closed = 1;
nodes = (
(333,0,l),
(518,510,l),
(365,510,l),
(227,42,l),
(298,42,l),
(158,510,l),
(1,510,l),
(187,0,l)
);
}
);
width = 520;
},
{
layerId = "AF447C8E-6A86-4BB0-AFAA-0E31F633710F";
shapes = (
{
closed = 1;
nodes = (
(279,0,l),
(478,510,l),
(398,510,l),
(235,58,l),
(266,58,l),
(101,510,l),
(18,510,l),
(217,0,l)
);
}
);
width = 496;
}
);
unicode = 118;
}
{
glyphname = w;
kernLeft = KO_w;
kernRight = KO_w;
layers = (
{
anchors = (
{
name = bottom;
pos = (393,0);
},
{
name = top;
pos = (393,510);
}
);
layerId = "522FD917-7CD6-43A0-922F-6555542696CE";
shapes = (
{
closed = 1;
nodes = (
(304,0,l),
(396,356,l),
(391,356,l),
(482,0,l),
(627,0,l),
(774,510,l),
(624,510,l),
(552,152,l),
(557,152,l),
(465,510,l),
(325,510,l),
(235,152,l),
(240,152,l),
(166,510,l),
(13,510,l),
(159,0,l)
);
}
);
width = 786;
},
{
anchors = (
{
name = bottom;
pos = (368,0);
},
{
name = top;
pos = (368,510);
}
);
layerId = "AF447C8E-6A86-4BB0-AFAA-0E31F633710F";
shapes = (
{
closed = 1;
nodes = (
(240,0,l),
(378,423,l),
(358,423,l),
(495,0,l),
(556,0,l),
(706,510,l),
(632,510,l),
(519,77,l),
(537,77,l),
(399,510,l),
(339,510,l),
(202,77,l),
(221,77,l),
(107,510,l),
(28,510,l),
(178,0,l)
);
}
);
width = 735;
}
);
unicode = 119;
userData = {
KernOnName = w;
};
}
{
glyphname = x;
kernLeft = KO_x;
kernRight = KO_x;
layers = (
{
layerId = "522FD917-7CD6-43A0-922F-6555542696CE";
shapes = (
{
closed = 1;
nodes = (
(547,0,l),
(328,310,l),
(204,510,l),
(41,510,l),
(245,223,l),
(384,0,l)
);
},
{
closed = 1;
nodes = (
(326,210,l),
(540,510,l),
(382,510,l),
(257,316,l)
);
},
{
closed = 1;
nodes = (
(243,307,l),
(22,0,l),
(179,0,l),
(312,201,l)
);
}
);
width = 569;
},
{
layerId = "AF447C8E-6A86-4BB0-AFAA-0E31F633710F";
shapes = (
{
closed = 1;
nodes = (
(488,0,l),
(286,291,l),
(139,510,l),
(51,510,l),
(241,237,l),
(399,0,l)
);
},
{
closed = 1;
nodes = (
(286,232,l),
(481,510,l),
(396,510,l),
(246,287,l)
);
},
{
closed = 1;
nodes = (
(240,288,l),
(30,0,l),
(117,0,l),
(278,231,l)
);
}
);
width = 518;
}
);
unicode = 120;
userData = {
KernOnName = x;
};
}
{
glyphname = y;
kernLeft = KO_y.ss03;
kernRight = KO_y;
layers = (
{
anchors = (
{
name = bottom;
pos = (260,0);
},
{
name = top;
pos = (262,510);
}
);
layerId = "522FD917-7CD6-43A0-922F-6555542696CE";
shapes = (
{
closed = 1;
nodes = (
(207,-215,o),
(263,-176,o),
(297,-84,cs),
(528,510,l),
(384,510,l),
(264,148,l),
(227,108,l),
(179,-29,ls),
(164,-73,o),
(137,-91,o),
(100,-91,cs),
(84,-91,o),
(71,-89,o),
(62,-86,c),
(62,-206,l),
(84,-212,o),
(102,-215,o),
(124,-215,cs)
);
},
{
closed = 1;
nodes = (
(312,67,l),
(168,510,l),
(10,510,l),
(199,5,l)
);
}
);
width = 530;
},
{
anchors = (
{
name = bottom;
pos = (248,0);
},
{
name = top;
pos = (251,510);
}
);
layerId = "AF447C8E-6A86-4BB0-AFAA-0E31F633710F";
shapes = (
{
closed = 1;
nodes = (
(183,-215,o),
(229,-179,o),
(259,-96,cs),
(478,510,l),
(398,510,l),
(250,78,l),
(239,45,l),
(199,-72,ls),
(178,-131,o),
(154,-153,o),
(109,-153,cs),
(90,-153,o),
(74,-150,o),
(64,-146,c),
(64,-208,l),
(75,-212,o),
(91,-215,o),
(113,-215,cs)
);
},
{
closed = 1;
nodes = (
(283,55,l),
(100,510,l),
(18,510,l),
(233,-3,l)
);
}
);
width = 496;
}
);
metricRight = v;
unicode = 121;
}
{
glyphname = z;
kernLeft = KO_z;
kernRight = KO_z;
layers = (
{
anchors = (
{
name = bottom;
pos = (249,0);
},
{
name = center;
pos = (249,255);
},
{
name = top;
pos = (249,510);
}
);
layerId = "522FD917-7CD6-43A0-922F-6555542696CE";
shapes = (
{
closed = 1;
nodes = (
(459,0,l),
(459,113,l),
(170,113,l),
(196,73,l),
(455,411,l),
(455,510,l),
(50,510,l),
(50,397,l),
(331,397,l),
(304,443,l),
(42,103,l),
(42,0,l)
);
}
);
width = 497;
},
{
anchors = (
{
name = bottom;
pos = (233,0);
},
{
name = center;
pos = (233,255);
},
{
name = top;
pos = (233,510);
}
);
layerId = "AF447C8E-6A86-4BB0-AFAA-0E31F633710F";
shapes = (
{
closed = 1;
nodes = (
(424,0,l),
(424,66,l),
(95,66,l),
(123,31,l),
(415,454,l),
(415,510,l),
(59,510,l),
(59,444,l),
(369,444,l),
(341,479,l),
(49,56,l),
(49,0,l)
);
}
);
width = 466;
}
);
unicode = 122;
userData = {
KernOnName = z;
};
}
{
glyphname = braceleft;
kernRight = KO_braceleft;
layers = (
{
layerId = "522FD917-7CD6-43A0-922F-6555542696CE";
shapes = (
{
closed = 1;
nodes = (
(392,-108,l),
(392,8,l),
(305,8,ls),
(262,8,o),
(240,37,o),
(251,81,cs),
(271,163,ls),
(291,242,o),
(255,301,o),
(189,321,c),
(256,341,o),
(291,400,o),
(271,479,cs),
(251,561,ls),
(240,605,o),
(262,634,o),
(305,634,cs),
(392,634,l),
(392,750,l),
(294,750,ls),
(146,750,o),
(94,672,o),
(118,562,cs),
(135,480,ls),
(150,413,o),
(126,379,o),
(61,379,cs),
(28,379,l),
(28,263,l),
(61,263,ls),
(126,263,o),
(150,229,o),
(135,161,cs),
(118,79,ls),
(94,-31,o),
(146,-108,o),
(294,-108,cs)
);
}
);
width = 440;
},
{
layerId = "AF447C8E-6A86-4BB0-AFAA-0E31F633710F";
shapes = (
{
closed = 1;
nodes = (
(334,-108,l),
(334,-46,l),
(253,-46,ls),
(202,-46,o),
(179,-19,o),
(191,37,cs),
(220,181,ls),
(236,260,o),
(212,301,o),
(161,321,c),
(212,341,o),
(236,382,o),
(220,461,cs),
(191,605,ls),
(179,661,o),
(202,688,o),
(253,688,cs),
(334,688,l),
(334,750,l),
(247,750,ls),
(145,750,o),
(102,683,o),
(118,602,cs),
(149,440,ls),
(162,375,o),
(140,352,o),
(83,352,cs),
(38,352,l),
(38,290,l),
(83,290,ls),
(140,290,o),
(162,267,o),
(149,202,cs),
(118,40,ls),
(102,-41,o),
(145,-108,o),
(247,-108,cs)
);
}
);
width = 392;
}
);
unicode = 123;
userData = {
KernOnSpecialSpacing = {
R = parenthesis;
};
};
}
{
glyphname = bar;
layers = (
{
layerId = "522FD917-7CD6-43A0-922F-6555542696CE";
shapes = (
{
closed = 1;
nodes = (
(178,-130,l),
(178,790,l),
(50,790,l),
(50,-130,l)
);
}
);
width = 228;
},
{
layerId = "AF447C8E-6A86-4BB0-AFAA-0E31F633710F";
shapes = (
{
closed = 1;
nodes = (
(151,-130,l),
(151,790,l),
(83,790,l),
(83,-130,l)
);
}
);
width = 234;
}
);
unicode = 124;
userData = {
KernOnSpecialSpacing = {
L = NoKerning;
R = NoKerning;
};
};
}
{
glyphname = asciitilde;
kernRight = KO_asciitilde;
layers = (
{
layerId = "522FD917-7CD6-43A0-922F-6555542696CE";
shapes = (
{
closed = 1;
nodes = (
(325,269,o),
(278,332,o),
(212,332,cs),
(175,332,o),
(152,313,o),
(144,279,c),
(50,279,l),
(56,393,o),
(124,446,o),
(206,446,cs),
(309,446,o),
(361,383,o),
(424,383,cs),
(460,383,o),
(484,402,o),
(491,436,c),
(586,436,l),
(579,320,o),
(511,269,o),
(428,269,cs)
);
}
);
width = 636;
},
{
layerId = "AF447C8E-6A86-4BB0-AFAA-0E31F633710F";
shapes = (
{
closed = 1;
nodes = (
(313,297,o),
(247,358,o),
(176,358,cs),
(143,358,o),
(120,342,o),
(114,307,c),
(60,307,l),
(71,379,o),
(112,418,o),
(183,418,cs),
(276,418,o),
(347,357,o),
(415,357,cs),
(448,357,o),
(471,373,o),
(477,408,c),
(531,408,l),
(520,336,o),
(479,297,o),
(407,297,cs)
);
}
);
width = 591;
}
);
unicode = 126;
userData = {
KernOnSpecialSpacing = {
L = math;
R = math;
};
};
}
{
glyphname = exclamdown;
layers = (
{
layerId = "522FD917-7CD6-43A0-922F-6555542696CE";
shapes = (
{
closed = 1;
nodes = (
(230,-205,l),
(208,240,l),
(88,240,l),
(66,-205,l)
);
},
{
alignment = -1;
angle = 180;
pos = (287,510);
ref = period;
}
);
width = 297;
},
{
layerId = "AF447C8E-6A86-4BB0-AFAA-0E31F633710F";
shapes = (
{
closed = 1;
nodes = (
(174,-205,l),
(162,302,l),
(102,302,l),
(90,-205,l)
);
},
{
alignment = -1;
angle = 180;
pos = (256,510);
ref = period;
}
);
width = 265;
}
);
metricLeft = "=|exclam";
metricRight = "=|exclam";
unicode = 161;
}
{
glyphname = cent;
layers = (
{
layerId = "522FD917-7CD6-43A0-922F-6555542696CE";
shapes = (
{
closed = 1;
nodes = (
(338,482,l),
(338,616,l),
(218,616,l),
(218,482,l)
);
},
{
closed = 1;
nodes = (
(338,-109,l),
(338,20,l),
(218,20,l),
(218,-109,l)
);
},
{
alignment = -1;
ref = c;
}
);
width = 533;
},
{
layerId = "AF447C8E-6A86-4BB0-AFAA-0E31F633710F";
shapes = (
{
closed = 1;
nodes = (
(295,482,l),
(295,616,l),
(232,616,l),
(232,482,l)
);
},
{
closed = 1;
nodes = (
(295,-109,l),
(295,20,l),
(232,20,l),
(232,-109,l)
);
},
{
alignment = -1;
ref = c;
}
);
width = 503;
}
);
unicode = 162;
userData = {
KernOnSpecialSpacing = {
L = symbols;
R = symbols;
};
};
}
{
glyphname = sterling;
layers = (
{
layerId = "522FD917-7CD6-43A0-922F-6555542696CE";
shapes = (
{
closed = 1;
nodes = (
(520,0,l),
(520,126,l),
(146,126,l),
(163,89,l),
(233,174,o),
(254,239,o),
(254,294,cs),
(254,388,o),
(188,450,o),
(188,523,cs),
(188,580,o),
(222,614,o),
(290,614,cs),
(360,614,o),
(395,578,o),
(403,508,c),
(546,508,l),
(535,642,o),
(435,730,o),
(282,730,cs),
(130,730,o),
(36,644,o),
(36,523,cs),
(36,421,o),
(109,368,o),
(109,282,cs),
(109,240,o),
(90,188,o),
(36,120,c),
(36,0,l)
);
},
{
closed = 1;
nodes = (
(447,280,l),
(447,402,l),
(10,402,l),
(10,280,l)
);
}
);
width = 574;
},
{
layerId = "AF447C8E-6A86-4BB0-AFAA-0E31F633710F";
shapes = (
{
closed = 1;
nodes = (
(487,0,l),
(487,70,l),
(96,70,l),
(99,35,l),
(179,148,o),
(204,224,o),
(204,284,cs),
(204,384,o),
(134,437,o),
(134,530,cs),
(134,609,o),
(184,660,o),
(278,660,cs),
(362,660,o),
(418,615,o),
(428,531,c),
(506,531,l),
(495,650,o),
(414,730,o),
(274,730,cs),
(133,730,o),
(56,651,o),
(56,533,cs),
(56,418,o),
(129,375,o),
(129,279,cs),
(129,229,o),
(110,166,o),
(51,70,c),
(51,0,l)
);
},
{
closed = 1;
nodes = (
(416,310,l),
(416,376,l),
(19,376,l),
(19,310,l)
);
}
);
width = 553;
}
);
unicode = 163;
userData = {
KernOnSpecialSpacing = {
L = symbols;
R = symbols;
};
};
}
{
glyphname = yen;
layers = (
{
layerId = "522FD917-7CD6-43A0-922F-6555542696CE";
shapes = (
{
closed = 1;
nodes = (
(383,0,l),
(383,292,l),
(604,720,l),
(442,720,l),
(261,308,l),
(372,308,l),
(190,720,l),
(10,720,l),
(232,292,l),
(232,0,l)
);
},
{
closed = 1;
nodes = (
(576,242,l),
(576,340,l),
(39,340,l),
(39,242,l)
);
},
{
closed = 1;
nodes = (
(225,480,l),
(39,480,l),
(39,382,l),
(270,382,l)
);
},
{
closed = 1;
nodes = (
(372,382,l),
(576,382,l),
(576,480,l),
(418,480,l)
);
}
);
width = 615;
},
{
layerId = "AF447C8E-6A86-4BB0-AFAA-0E31F633710F";
shapes = (
{
closed = 1;
nodes = (
(327,0,l),
(327,328,l),
(554,720,l),
(466,720,l),
(274,376,l),
(310,376,l),
(117,720,l),
(22,720,l),
(248,328,l),
(248,0,l)
);
},
{
closed = 1;
nodes = (
(529,256,l),
(529,322,l),
(47,322,l),
(47,256,l)
);
},
{
closed = 1;
nodes = (
(212,466,l),
(47,466,l),
(47,400,l),
(245,400,l)
);
},
{
closed = 1;
nodes = (
(338,400,l),
(529,400,l),
(529,466,l),
(378,466,l)
);
}
);
width = 575;
}
);
metricLeft = Y;
metricRight = Y;
unicode = 165;
userData = {
KernOnSpecialSpacing = {
L = symbols;
R = symbols;
};
};
}
{
glyphname = section;
layers = (
{
layerId = "522FD917-7CD6-43A0-922F-6555542696CE";
shapes = (
{
closed = 1;
nodes = (
(404,192,o),
(481,251,o),
(481,349,cs),
(481,428,o),
(433,487,o),
(340,510,cs),
(253,533,ls),
(206,545,o),
(188,559,o),
(188,583,cs),
(188,611,o),
(212,627,o),
(259,627,cs),
(310,627,o),
(340,609,o),
(344,573,c),
(474,573,l),
(466,672,o),
(388,730,o),
(260,730,cs),
(134,730,o),
(58,670,o),
(58,571,cs),
(58,490,o),
(109,439,o),
(217,411,cs),
(287,392,ls),
(331,379,o),
(351,364,o),
(351,331,cs),
(351,297,o),
(329,280,o),
(270,280,c),
(270,192,l)
);
},
{
closed = 1;
nodes = (
(377,-46,o),
(453,14,o),
(453,114,cs),
(453,195,o),
(402,246,o),
(294,273,cs),
(225,293,ls),
(181,306,o),
(160,321,o),
(160,353,cs),
(160,387,o),
(182,404,o),
(240,404,c),
(241,493,l),
(106,493,o),
(30,433,o),
(30,335,cs),
(30,256,o),
(78,199,o),
(171,175,cs),
(258,152,ls),
(306,139,o),
(322,125,o),
(322,101,cs),
(322,73,o),
(298,58,o),
(252,58,cs),
(201,58,o),
(171,76,o),
(167,111,c),
(37,111,l),
(45,12,o),
(123,-46,o),
(250,-46,cs)
);
}
);
width = 503;
},
{
layerId = "AF447C8E-6A86-4BB0-AFAA-0E31F633710F";
shapes = (
{
closed = 1;
nodes = (
(360,180,o),
(428,229,o),
(428,316,cs),
(428,395,o),
(383,446,o),
(297,474,cs),
(222,500,ls),
(163,520,o),
(143,548,o),
(143,591,cs),
(143,635,o),
(177,666,o),
(237,666,cs),
(300,666,o),
(338,636,o),
(346,580,c),
(420,580,l),
(411,675,o),
(344,730,o),
(240,730,cs),
(135,730,o),
(69,671,o),
(69,585,cs),
(69,509,o),
(113,456,o),
(182,434,cs),
(274,405,ls),
(332,386,o),
(353,358,o),
(353,316,cs),
(353,267,o),
(315,235,o),
(250,235,c),
(248,180,l)
);
},
{
closed = 1;
nodes = (
(334,-67,o),
(401,-7,o),
(401,78,cs),
(401,154,o),
(357,207,o),
(287,229,cs),
(196,259,ls),
(138,278,o),
(116,306,o),
(116,348,cs),
(116,397,o),
(155,429,o),
(220,429,c),
(222,483,l),
(110,483,o),
(42,433,o),
(42,347,cs),
(42,269,o),
(88,217,o),
(172,190,cs),
(248,164,ls),
(307,144,o),
(327,115,o),
(327,73,cs),
(327,27,o),
(293,-2,o),
(232,-2,cs),
(170,-2,o),
(131,28,o),
(123,84,c),
(49,84,l),
(58,-11,o),
(125,-67,o),
(229,-67,cs)
);
}
);
width = 468;
}
);
metricLeft = S;
metricRight = S;
unicode = 167;
userData = {
KernOnSpecialSpacing = {
R = symbols;
};
};
}
{
glyphname = copyright;
layers = (
{
layerId = "522FD917-7CD6-43A0-922F-6555542696CE";
shapes = (
{
closed = 1;
nodes = (
(612,-15,o),
(780,153,o),
(780,360,cs),
(780,567,o),
(612,735,o),
(405,735,cs),
(198,735,o),
(30,567,o),
(30,360,cs),
(30,153,o),
(198,-15,o),
(405,-15,cs)
);
},
{
closed = 1;
nodes = (
(235,50,o),
(97,190,o),
(97,360,cs),
(97,530,o),
(235,670,o),
(405,670,cs),
(575,670,o),
(713,530,o),
(713,360,cs),
(713,190,o),
(575,50,o),
(405,50,cs)
);
},
{
closed = 1;
nodes = (
(277,140,o),
(198,242,o),
(198,362,cs),
(198,486,o),
(280,580,o),
(413,580,cs),
(525,580,o),
(593,507,o),
(608,431,c),
(519,415,l),
(509,472,o),
(466,503,o),
(413,503,cs),
(333,503,o),
(291,437,o),
(291,366,cs),
(291,283,o),
(332,217,o),
(415,217,cs),
(469,217,o),
(508,254,o),
(519,305,c),
(607,281,l),
(582,191,o),
(506,140,o),
(413,140,cs)
);
}
);
width = 810;
},
{
layerId = "AF447C8E-6A86-4BB0-AFAA-0E31F633710F";
shapes = (
{
closed = 1;
nodes = (
(630,-15,o),
(798,153,o),
(798,360,cs),
(798,567,o),
(630,735,o),
(423,735,cs),
(216,735,o),
(48,567,o),
(48,360,cs),
(48,153,o),
(216,-15,o),
(423,-15,cs)
);
},
{
closed = 1;
nodes = (
(238,23,o),
(88,175,o),
(88,360,cs),
(88,545,o),
(238,697,o),
(423,697,cs),
(608,697,o),
(758,545,o),
(758,360,cs),
(758,175,o),
(608,23,o),
(423,23,cs)
);
},
{
closed = 1;
nodes = (
(303,140,o),
(222,233,o),
(222,363,cs),
(222,480,o),
(302,580,o),
(424,580,cs),
(519,580,o),
(588,516,o),
(604,430,c),
(556,422,l),
(546,491,o),
(499,536,o),
(425,536,cs),
(321,536,o),
(272,459,o),
(272,363,cs),
(272,259,o),
(323,184,o),
(424,184,cs),
(502,184,o),
(547,231,o),
(557,298,c),
(604,285,l),
(588,202,o),
(524,140,o),
(425,140,cs)
);
}
);
width = 846;
}
);
metricLeft = O;
metricRight = O;
unicode = 169;
userData = {
KernOnSpecialSpacing = {
R = symbols;
};
};
}
{
glyphname = ordfeminine;
kernRight = KO_ordfeminine;
layers = (
{
layerId = "522FD917-7CD6-43A0-922F-6555542696CE";
shapes = (
{
closed = 1;
nodes = (
(320,418,l),
(314,438,o),
(311,457,o),
(311,480,cs),
(311,618,ls),
(311,689,o),
(263,730,o),
(179,730,cs),
(99,730,o),
(51,687,o),
(44,633,c),
(141,633,l),
(147,644,o),
(157,651,o),
(176,651,cs),
(199,651,o),
(211,639,o),
(211,621,cs),
(211,480,l),
(212,480,l),
(212,455,o),
(215,434,o),
(220,418,c)
);
},
{
closed = 1;
nodes = (
(166,412,o),
(202,433,o),
(219,478,c),
(211,531,l),
(211,511,o),
(188,491,o),
(163,491,cs),
(148,491,o),
(136,500,o),
(136,513,cs),
(136,527,o),
(145,535,o),
(162,539,cs),
(224,554,l),
(224,620,l),
(140,602,ls),
(72,589,o),
(36,551,o),
(36,495,cs),
(36,444,o),
(71,412,o),
(122,412,cs)
);
}
);
width = 357;
},
{
layerId = "AF447C8E-6A86-4BB0-AFAA-0E31F633710F";
shapes = (
{
closed = 1;
nodes = (
(292,418,l),
(288,437,o),
(286,455,o),
(286,475,cs),
(286,624,ls),
(286,693,o),
(248,730,o),
(175,730,cs),
(104,730,o),
(57,693,o),
(53,635,c),
(111,635,l),
(115,663,o),
(137,680,o),
(172,680,cs),
(208,680,o),
(225,661,o),
(225,626,cs),
(225,475,l),
(229,475,l),
(229,452,o),
(230,433,o),
(234,418,c)
);
},
{
closed = 1;
nodes = (
(181,412,o),
(218,432,o),
(233,476,c),
(225,521,l),
(225,487,o),
(195,462,o),
(154,462,cs),
(123,462,o),
(105,476,o),
(105,502,cs),
(105,530,o),
(125,543,o),
(157,550,c),
(238,568,l),
(238,614,l),
(145,593,ls),
(78,579,o),
(45,546,o),
(45,496,cs),
(45,444,o),
(81,412,o),
(137,412,cs)
);
}
);
width = 353;
}
);
metricLeft = a;
metricRight = a;
unicode = 170;
userData = {
KernOnSpecialSpacing = {
L = superiors;
R = superiors;
};
};
}
{
glyphname = registered;
layers = (
{
layerId = "522FD917-7CD6-43A0-922F-6555542696CE";
shapes = (
{
closed = 1;
nodes = (
(612,-15,o),
(780,153,o),
(780,360,cs),
(780,567,o),
(612,735,o),
(405,735,cs),
(198,735,o),
(30,567,o),
(30,360,cs),
(30,153,o),
(198,-15,o),
(405,-15,cs)
);
},
{
closed = 1;
nodes = (
(235,50,o),
(97,190,o),
(97,360,cs),
(97,530,o),
(235,670,o),
(405,670,cs),
(575,670,o),
(713,530,o),
(713,360,cs),
(713,190,o),
(575,50,o),
(405,50,cs)
);
},
{
closed = 1;
nodes = (
(332,145,l),
(332,499,l),
(433,499,ls),
(473,499,o),
(494,481,o),
(494,447,cs),
(494,414,o),
(472,395,o),
(433,395,cs),
(276,395,l),
(276,322,l),
(414,322,ls),
(464,322,o),
(487,297,o),
(487,242,cs),
(487,196,ls),
(487,172,o),
(488,155,o),
(491,145,c),
(584,145,l),
(581,166,o),
(579,182,o),
(579,196,cs),
(579,267,ls),
(579,328,o),
(540,363,o),
(472,361,c),
(472,345,l),
(549,361,o),
(586,396,o),
(586,456,cs),
(586,530,o),
(531,575,o),
(438,575,cs),
(240,575,l),
(240,145,l)
);
}
);
width = 810;
},
{
layerId = "AF447C8E-6A86-4BB0-AFAA-0E31F633710F";
shapes = (
{
closed = 1;
nodes = (
(630,-15,o),
(798,153,o),
(798,360,cs),
(798,567,o),
(630,735,o),
(423,735,cs),
(216,735,o),
(48,567,o),
(48,360,cs),
(48,153,o),
(216,-15,o),
(423,-15,cs)
);
},
{
closed = 1;
nodes = (
(238,23,o),
(88,175,o),
(88,360,cs),
(88,545,o),
(238,697,o),
(423,697,cs),
(608,697,o),
(758,545,o),
(758,360,cs),
(758,175,o),
(608,23,o),
(423,23,cs)
);
},
{
closed = 1;
nodes = (
(332,145,l),
(332,532,l),
(440,532,ls),
(503,532,o),
(538,505,o),
(538,456,cs),
(538,406,o),
(502,377,o),
(440,377,cs),
(319,377,l),
(319,337,l),
(445,337,ls),
(500,337,o),
(531,309,o),
(531,257,cs),
(531,196,ls),
(531,175,o),
(532,157,o),
(535,145,c),
(585,145,l),
(581,165,o),
(580,181,o),
(580,196,cs),
(580,267,ls),
(580,327,o),
(541,363,o),
(478,361,c),
(472,345,l),
(549,362,o),
(587,399,o),
(587,458,cs),
(587,530,o),
(531,575,o),
(442,575,cs),
(283,575,l),
(283,145,l)
);
}
);
width = 846;
}
);
metricLeft = O;
metricRight = O;
unicode = 174;
userData = {
KernOnSpecialSpacing = {
L = superiors;
};
};
}
{
glyphname = degree;
kernRight = KO_degree;
layers = (
{
layerId = "522FD917-7CD6-43A0-922F-6555542696CE";
shapes = (
{
closed = 1;
nodes = (
(265,449,o),
(326,514,o),
(326,593,cs),
(326,671,o),
(265,735,o),
(184,735,cs),
(103,735,o),
(40,671,o),
(40,593,cs),
(40,514,o),
(103,449,o),
(184,449,cs)
);
},
{
closed = 1;
nodes = (
(143,522,o),
(114,553,o),
(114,593,cs),
(114,631,o),
(143,662,o),
(184,662,cs),
(223,662,o),
(252,631,o),
(252,593,cs),
(252,553,o),
(223,522,o),
(184,522,cs)
);
}
);
width = 366;
},
{
layerId = "AF447C8E-6A86-4BB0-AFAA-0E31F633710F";
shapes = (
{
closed = 1;
nodes = (
(275,449,o),
(336,514,o),
(336,593,cs),
(336,671,o),
(275,735,o),
(194,735,cs),
(113,735,o),
(50,671,o),
(50,593,cs),
(50,514,o),
(113,449,o),
(194,449,cs)
);
},
{
closed = 1;
nodes = (
(139,497,o),
(99,539,o),
(99,593,cs),
(99,645,o),
(139,687,o),
(194,687,cs),
(247,687,o),
(287,645,o),
(287,593,cs),
(287,539,o),
(247,497,o),
(194,497,cs)
);
}
);
width = 386;
}
);
unicode = 176;
userData = {
KernOnSpecialSpacing = {
L = superiors;
};
};
}
{
glyphname = paragraph;
layers = (
{
layerId = "522FD917-7CD6-43A0-922F-6555542696CE";
shapes = (
{
closed = 1;
nodes = (
(381,-130,l),
(381,612,l),
(432,612,l),
(432,-130,l),
(571,-130,l),
(571,720,l),
(228,720,l),
(110,720,o),
(21,638,o),
(21,520,cs),
(21,406,o),
(110,326,o),
(225,326,cs),
(243,326,l),
(243,-130,l)
);
}
);
width = 621;
},
{
layerId = "AF447C8E-6A86-4BB0-AFAA-0E31F633710F";
shapes = (
{
closed = 1;
nodes = (
(402,-130,l),
(402,658,l),
(523,658,l),
(523,-130,l),
(587,-130,l),
(587,720,l),
(239,720,l),
(121,720,o),
(40,638,o),
(40,520,cs),
(40,406,o),
(121,326,o),
(236,326,cs),
(337,326,l),
(337,-130,l)
);
}
);
width = 670;
}
);
metricLeft = "=|P";
metricRight = "=|P";
unicode = 182;
userData = {
KernOnSpecialSpacing = {
L = NoKerning;
R = NoKerning;
};
};
}
{
glyphname = ordmasculine;
kernRight = KO_ordmasculine;
layers = (
{
layerId = "522FD917-7CD6-43A0-922F-6555542696CE";
shapes = (
{
closed = 1;
nodes = (
(295,412,o),
(362,476,o),
(362,572,cs),
(362,668,o),
(297,730,o),
(196,730,cs),
(97,730,o),
(30,668,o),
(30,572,cs),
(30,475,o),
(98,412,o),
(196,412,cs)
);
},
{
closed = 1;
nodes = (
(163,500,o),
(136,526,o),
(136,573,cs),
(136,617,o),
(162,642,o),
(196,642,cs),
(231,642,o),
(256,618,o),
(256,573,cs),
(256,526,o),
(231,500,o),
(196,500,cs)
);
}
);
width = 392;
},
{
layerId = "AF447C8E-6A86-4BB0-AFAA-0E31F633710F";
shapes = (
{
closed = 1;
nodes = (
(287,412,o),
(345,480,o),
(345,572,cs),
(345,665,o),
(286,730,o),
(196,730,cs),
(108,730,o),
(48,665,o),
(48,572,cs),
(48,480,o),
(107,412,o),
(196,412,cs)
);
},
{
closed = 1;
nodes = (
(145,464,o),
(110,507,o),
(110,573,cs),
(110,637,o),
(145,678,o),
(196,678,cs),
(249,678,o),
(282,638,o),
(282,573,cs),
(282,508,o),
(249,464,o),
(196,464,cs)
);
}
);
width = 393;
}
);
metricLeft = O;
metricRight = O;
unicode = 186;
userData = {
KernOnSpecialSpacing = {
L = superiors;
R = superiors;
};
};
}
{
glyphname = questiondown;
layers = (
{
layerId = "522FD917-7CD6-43A0-922F-6555542696CE";
shapes = (
{
closed = 1;
nodes = (
(409,-215,o),
(510,-140,o),
(525,-16,c),
(381,-16,l),
(373,-71,o),
(328,-97,o),
(270,-97,cs),
(210,-97,o),
(178,-72,o),
(178,-33,cs),
(178,66,o),
(341,62,o),
(341,240,c),
(198,240,l),
(198,129,o),
(26,126,o),
(26,-35,cs),
(26,-139,o),
(119,-215,o),
(262,-215,cs)
);
},
{
alignment = -1;
angle = 180;
pos = (408,510);
ref = period;
}
);
width = 553;
},
{
layerId = "AF447C8E-6A86-4BB0-AFAA-0E31F633710F";
shapes = (
{
closed = 1;
nodes = (
(376,-215,o),
(478,-140,o),
(490,-16,c),
(412,-16,l),
(400,-99,o),
(333,-145,o),
(248,-145,cs),
(167,-145,o),
(108,-105,o),
(108,-36,cs),
(108,108,o),
(296,87,o),
(296,302,c),
(224,302,l),
(224,119,o),
(30,144,o),
(30,-38,cs),
(30,-151,o),
(121,-215,o),
(244,-215,cs)
);
},
{
alignment = -1;
angle = 180;
pos = (383,510);
ref = period;
}
);
width = 533;
}
);
metricLeft = "=|question";
metricRight = "=|question";
unicode = 191;
}
{
glyphname = AE;
kernLeft = KO_A;
kernRight = KO_E;
layers = (
{
layerId = "522FD917-7CD6-43A0-922F-6555542696CE";
shapes = (
{
closed = 1;
nodes = (
(171,0,l),
(387,720,l),
(256,720,l),
(22,0,l)
);
},
{
closed = 1;
nodes = (
(609,0,l),
(609,720,l),
(458,720,l),
(458,0,l)
);
},
{
closed = 1;
nodes = (
(889,0,l),
(889,116,l),
(530,116,l),
(530,0,l)
);
},
{
closed = 1;
nodes = (
(857,311,l),
(857,426,l),
(228,426,l),
(228,311,l)
);
},
{
closed = 1;
nodes = (
(878,604,l),
(878,720,l),
(306,720,l),
(306,604,l)
);
}
);
width = 929;
},
{
layerId = "AF447C8E-6A86-4BB0-AFAA-0E31F633710F";
shapes = (
{
closed = 1;
nodes = (
(110,0,l),
(357,720,l),
(287,720,l),
(34,0,l)
);
},
{
closed = 1;
nodes = (
(522,0,l),
(522,720,l),
(443,720,l),
(443,0,l)
);
},
{
closed = 1;
nodes = (
(815,0,l),
(815,70,l),
(485,70,l),
(485,0,l)
);
},
{
closed = 1;
nodes = (
(782,340,l),
(782,410,l),
(207,410,l),
(207,340,l)
);
},
{
closed = 1;
nodes = (
(807,650,l),
(807,720,l),
(308,720,l),
(308,650,l)
);
}
);
width = 881;
}
);
metricLeft = A;
metricRight = E;
unicode = 198;
}
{
glyphname = Eth;
kernRight = KO_D;
layers = (
{
layerId = "522FD917-7CD6-43A0-922F-6555542696CE";
shapes = (
{
alignment = -1;
pos = (18,0);
ref = D;
},
{
closed = 1;
nodes = (
(375,303,l),
(375,421,l),
(10,421,l),
(10,303,l)
);
}
);
width = 726;
},
{
layerId = "AF447C8E-6A86-4BB0-AFAA-0E31F633710F";
shapes = (
{
alignment = -1;
ref = D;
},
{
closed = 1;
nodes = (
(355,327,l),
(355,393,l),
(0,393,l),
(0,327,l)
);
}
);
width = 701;
}
);
unicode = 208;
}
{
glyphname = multiply;
layers = (
{
layerId = "522FD917-7CD6-43A0-922F-6555542696CE";
shapes = (
{
closed = 1;
nodes = (
(503,222,l),
(126,599,l),
(49,522,l),
(426,145,l)
);
},
{
closed = 1;
nodes = (
(503,522,l),
(426,599,l),
(49,222,l),
(126,145,l)
);
}
);
width = 551;
},
{
layerId = "AF447C8E-6A86-4BB0-AFAA-0E31F633710F";
shapes = (
{
closed = 1;
nodes = (
(463,221,l),
(115,569,l),
(68,522,l),
(416,174,l)
);
},
{
closed = 1;
nodes = (
(463,522,l),
(416,569,l),
(68,221,l),
(115,174,l)
);
}
);
width = 531;
}
);
unicode = 215;
userData = {
KernOnSpecialSpacing = {
L = math;
R = math;
};
};
}
{
glyphname = Oslash;
layers = (
{
layerId = "522FD917-7CD6-43A0-922F-6555542696CE";
shapes = (
{
alignment = -1;
ref = O;
},
{
closed = 1;
nodes = (
(700,661,l),
(622,730,l),
(36,59,l),
(114,-10,l)
);
}
);
width = 746;
},
{
layerId = "AF447C8E-6A86-4BB0-AFAA-0E31F633710F";
shapes = (
{
alignment = -1;
ref = O;
},
{
closed = 1;
nodes = (
(674,692,l),
(626,730,l),
(55,28,l),
(103,-10,l)
);
}
);
width = 729;
}
);
unicode = 216;
}
{
glyphname = Thorn;
kernLeft = KO_B;
layers = (
{
layerId = "522FD917-7CD6-43A0-922F-6555542696CE";
shapes = (
{
closed = 1;
nodes = (
(355,152,ls),
(505,152,o),
(606,240,o),
(606,370,cs),
(606,500,o),
(505,588,o),
(355,588,cs),
(166,588,l),
(166,472,l),
(346,472,ls),
(413,472,o),
(455,432,o),
(455,370,cs),
(455,308,o),
(413,268,o),
(346,268,cs),
(166,268,l),
(166,152,l)
);
},
{
closed = 1;
nodes = (
(198,0,l),
(198,720,l),
(47,720,l),
(47,0,l)
);
}
);
width = 628;
},
{
layerId = "AF447C8E-6A86-4BB0-AFAA-0E31F633710F";
shapes = (
{
closed = 1;
nodes = (
(337,162,ls),
(484,162,o),
(572,242,o),
(572,370,cs),
(572,498,o),
(484,578,o),
(337,578,cs),
(140,578,l),
(140,508,l),
(334,508,ls),
(438,508,o),
(493,458,o),
(493,370,cs),
(493,282,o),
(438,232,o),
(334,232,cs),
(140,232,l),
(140,162,l)
);
},
{
closed = 1;
nodes = (
(162,0,l),
(162,720,l),
(83,720,l),
(83,0,l)
);
}
);
width = 612;
}
);
unicode = 222;
}
{
glyphname = germandbls;
kernLeft = KO_idotless;
layers = (
{
layerId = "522FD917-7CD6-43A0-922F-6555542696CE";
shapes = (
{
closed = 1;
nodes = (
(487,-10,o),
(582,71,o),
(582,198,cs),
(582,310,o),
(509,392,o),
(379,392,c),
(372,371,l),
(471,371,o),
(546,432,o),
(546,535,cs),
(546,649,o),
(454,730,o),
(305,730,cs),
(138,730,o),
(57,631,o),
(57,484,cs),
(57,0,l),
(204,0,l),
(204,490,ls),
(204,572,o),
(236,614,o),
(302,614,cs),
(361,614,o),
(393,579,o),
(393,521,cs),
(393,467,o),
(356,434,o),
(301,434,cs),
(270,434,l),
(270,320,l),
(312,320,ls),
(389,320,o),
(430,278,o),
(430,212,cs),
(430,141,o),
(392,106,o),
(324,106,cs),
(300,106,o),
(282,110,o),
(266,116,c),
(266,4,l),
(284,-6,o),
(314,-10,o),
(347,-10,cs)
);
}
);
width = 610;
},
{
layerId = "AF447C8E-6A86-4BB0-AFAA-0E31F633710F";
shapes = (
{
closed = 1;
nodes = (
(451,-9,o),
(541,72,o),
(541,194,cs),
(541,311,o),
(456,392,o),
(325,392,c),
(332,371,l),
(430,371,o),
(506,441,o),
(506,544,cs),
(506,657,o),
(421,730,o),
(293,730,cs),
(162,730,o),
(77,650,o),
(77,511,cs),
(77,0,l),
(154,0,l),
(154,507,ls),
(154,615,o),
(213,667,o),
(295,667,cs),
(376,667,o),
(426,617,o),
(426,537,cs),
(426,460,o),
(373,413,o),
(306,413,cs),
(254,413,l),
(254,345,l),
(308,345,ls),
(400,345,o),
(462,285,o),
(462,196,cs),
(462,111,o),
(416,57,o),
(296,57,cs),
(272,57,o),
(253,60,o),
(234,65,c),
(234,-1,l),
(249,-6,o),
(273,-9,o),
(301,-9,cs)
);
}
);
width = 580;
}
);
metricLeft = h;
unicode = 223;
}
{
glyphname = ae;
kernLeft = KO_a;
kernRight = KO_e;
layers = (
{
layerId = "522FD917-7CD6-43A0-922F-6555542696CE";
shapes = (
{
closed = 1;
nodes = (
(480,137,l),
(480,336,ls),
(480,455,o),
(405,520,o),
(270,520,cs),
(138,520,o),
(61,453,o),
(50,360,c),
(189,360,l),
(196,394,o),
(228,414,o),
(270,414,cs),
(316,414,o),
(344,390,o),
(344,348,cs),
(344,137,l)
);
},
{
closed = 1;
nodes = (
(306,-10,o),
(376,25,o),
(423,138,c),
(344,175,l),
(344,133,o),
(290,98,o),
(248,98,cs),
(205,98,o),
(182,116,o),
(182,149,cs),
(182,182,o),
(203,203,o),
(260,213,cs),
(354,230,l),
(354,319,l),
(222,297,ls),
(88,275,o),
(36,214,o),
(36,134,cs),
(36,45,o),
(105,-10,o),
(205,-10,cs)
);
},
{
closed = 1;
nodes = (
(702,-10,o),
(778,52,o),
(809,152,c),
(670,152,l),
(657,114,o),
(633,96,o),
(589,96,cs),
(518,96,o),
(480,146,o),
(480,253,cs),
(480,370,o),
(520,414,o),
(591,414,cs),
(652,414,o),
(688,374,o),
(688,289,c),
(711,309,l),
(420,309,l),
(420,212,l),
(817,212,l),
(819,227,o),
(821,244,o),
(821,266,cs),
(821,420,o),
(727,520,o),
(585,520,cs),
(438,520,o),
(343,414,o),
(343,255,cs),
(343,98,o),
(437,-10,o),
(588,-10,cs)
);
}
);
width = 841;
},
{
layerId = "AF447C8E-6A86-4BB0-AFAA-0E31F633710F";
shapes = (
{
closed = 1;
nodes = (
(427,133,l),
(427,348,ls),
(427,462,o),
(369,520,o),
(254,520,cs),
(138,520,o),
(65,460,o),
(59,362,c),
(134,362,l),
(138,419,o),
(181,454,o),
(250,454,cs),
(318,454,o),
(349,419,o),
(349,349,cs),
(349,133,l)
);
},
{
closed = 1;
nodes = (
(293,-10,o),
(371,28,o),
(410,133,c),
(349,167,l),
(349,102,o),
(294,56,o),
(216,56,cs),
(155,56,o),
(122,83,o),
(122,130,cs),
(122,180,o),
(152,211,o),
(227,225,cs),
(370,250,l),
(370,315,l),
(213,285,ls),
(97,262,o),
(45,209,o),
(45,127,cs),
(45,44,o),
(105,-10,o),
(202,-10,cs)
);
},
{
closed = 1;
nodes = (
(664,-10,o),
(735,50,o),
(763,145,c),
(689,145,l),
(669,88,o),
(629,56,o),
(571,56,cs),
(481,56,o),
(427,134,o),
(427,257,cs),
(427,378,o),
(488,454,o),
(571,454,cs),
(657,454,o),
(700,387,o),
(701,260,c),
(727,298,l),
(404,298,l),
(404,233,l),
(773,233,l),
(775,246,o),
(776,255,o),
(776,268,cs),
(776,425,o),
(699,520,o),
(572,520,cs),
(442,520,o),
(357,414,o),
(357,256,cs),
(357,99,o),
(436,-10,o),
(568,-10,cs)
);
}
);
width = 815;
}
);
metricLeft = a;
metricRight = e;
unicode = 230;
}
{
glyphname = eth;
layers = (
{
layerId = "522FD917-7CD6-43A0-922F-6555542696CE";
shapes = (
{
closed = 1;
nodes = (
(474,-10,o),
(563,110,o),
(563,312,cs),
(563,586,o),
(398,730,o),
(123,730,c),
(99,633,l),
(315,633,o),
(413,535,o),
(413,354,cs),
(413,297,l),
(451,349,l),
(437,439,o),
(377,496,o),
(273,496,cs),
(145,496,o),
(29,406,o),
(29,248,cs),
(29,83,o),
(138,-10,o),
(289,-10,cs)
);
},
{
closed = 1;
nodes = (
(235,106,o),
(187,146,o),
(187,246,cs),
(187,343,o),
(235,385,o),
(295,385,cs),
(356,385,o),
(408,345,o),
(408,248,cs),
(408,149,o),
(354,106,o),
(294,106,cs)
);
},
{
closed = 1;
nodes = (
(482,683,l),
(437,756,l),
(151,577,l),
(197,505,l)
);
}
);
width = 587;
},
{
layerId = "AF447C8E-6A86-4BB0-AFAA-0E31F633710F";
shapes = (
{
closed = 1;
nodes = (
(424,-10,o),
(519,115,o),
(519,342,cs),
(519,594,o),
(354,730,o),
(110,730,c),
(99,666,l),
(311,666,o),
(440,559,o),
(440,358,cs),
(440,304,l),
(459,346,l),
(441,436,o),
(362,496,o),
(261,496,cs),
(138,496,o),
(38,402,o),
(38,241,cs),
(38,80,o),
(139,-10,o),
(269,-10,cs)
);
},
{
closed = 1;
nodes = (
(183,60,o),
(118,120,o),
(118,242,cs),
(118,367,o),
(178,428,o),
(268,428,cs),
(354,428,o),
(428,370,o),
(428,251,cs),
(428,127,o),
(361,60,o),
(266,60,cs)
);
},
{
closed = 1;
nodes = (
(447,707,l),
(416,755,l),
(148,578,l),
(179,531,l)
);
}
);
width = 560;
}
);
metricRight = "=|d";
unicode = 240;
}
{
glyphname = divide;
kernLeft = KO_plus;
kernRight = KO_plus;
layers = (
{
layerId = "522FD917-7CD6-43A0-922F-6555542696CE";
shapes = (
{
closed = 1;
nodes = (
(501,318,l),
(501,424,l),
(50,424,l),
(50,318,l)
);
},
{
closed = 1;
nodes = (
(314,479,o),
(349,509,o),
(349,553,cs),
(349,595,o),
(314,626,o),
(276,626,cs),
(234,626,o),
(202,595,o),
(202,553,cs),
(202,509,o),
(234,479,o),
(276,479,cs)
);
},
{
closed = 1;
nodes = (
(314,117,o),
(349,147,o),
(349,191,cs),
(349,233,o),
(314,264,o),
(276,264,cs),
(234,264,o),
(202,233,o),
(202,191,cs),
(202,147,o),
(234,117,o),
(276,117,cs)
);
}
);
width = 551;
},
{
layerId = "AF447C8E-6A86-4BB0-AFAA-0E31F633710F";
shapes = (
{
closed = 1;
nodes = (
(471,338,l),
(471,404,l),
(60,404,l),
(60,338,l)
);
},
{
closed = 1;
nodes = (
(295,481,o),
(322,504,o),
(322,538,cs),
(322,570,o),
(295,594,o),
(266,594,cs),
(234,594,o),
(209,570,o),
(209,538,cs),
(209,504,o),
(234,481,o),
(266,481,cs)
);
},
{
closed = 1;
nodes = (
(295,148,o),
(322,171,o),
(322,205,cs),
(322,238,o),
(295,261,o),
(266,261,cs),
(234,261,o),
(209,238,o),
(209,205,cs),
(209,171,o),
(234,148,o),
(266,148,cs)
);
}
);
width = 531;
}
);
unicode = 247;
userData = {
KernOnSpecialSpacing = {
L = math;
R = math;
};
};
}
{
glyphname = oslash;
layers = (
{
layerId = "522FD917-7CD6-43A0-922F-6555542696CE";
shapes = (
{
closed = 1;
nodes = (
(447,-10,o),
(555,97,o),
(555,257,cs),
(555,416,o),
(449,520,o),
(288,520,cs),
(127,520,o),
(20,416,o),
(20,257,cs),
(20,97,o),
(128,-10,o),
(288,-10,cs)
);
},
{
closed = 1;
nodes = (
(217,99,o),
(168,155,o),
(168,258,cs),
(168,358,o),
(217,411,o),
(288,411,cs),
(359,411,o),
(407,359,o),
(407,258,cs),
(407,155,o),
(358,99,o),
(288,99,cs)
);
},
{
closed = 1;
nodes = (
(551,461,l),
(482,527,l),
(24,49,l),
(93,-17,l)
);
}
);
width = 575;
},
{
layerId = "AF447C8E-6A86-4BB0-AFAA-0E31F633710F";
shapes = (
{
closed = 1;
nodes = (
(422,-10,o),
(514,105,o),
(514,257,cs),
(514,410,o),
(421,520,o),
(277,520,cs),
(134,520,o),
(39,410,o),
(39,257,cs),
(39,105,o),
(133,-10,o),
(277,-10,cs)
);
},
{
closed = 1;
nodes = (
(181,56,o),
(119,138,o),
(119,258,cs),
(119,377,o),
(181,454,o),
(277,454,cs),
(374,454,o),
(435,377,o),
(435,258,cs),
(435,138,o),
(374,56,o),
(277,56,cs)
);
},
{
closed = 1;
nodes = (
(516,476,l),
(475,514,l),
(38,34,l),
(79,-4,l)
);
}
);
width = 554;
}
);
unicode = 248;
}
{
glyphname = thorn;
kernLeft = KO_j;
kernRight = KO_p;
layers = (
{
layerId = "522FD917-7CD6-43A0-922F-6555542696CE";
shapes = (
{
closed = 1;
nodes = (
(488,-10,o),
(574,95,o),
(574,258,cs),
(574,418,o),
(492,520,o),
(363,520,cs),
(274,520,o),
(206,475,o),
(192,402,c),
(204,400,l),
(204,720,l),
(57,720,l),
(57,-205,l),
(204,-205,l),
(204,115,l),
(195,114,l),
(206,36,o),
(266,-10,o),
(355,-10,cs)
);
},
{
closed = 1;
nodes = (
(243,108,o),
(202,159,o),
(202,255,cs),
(202,350,o),
(243,402,o),
(311,402,cs),
(379,402,o),
(421,352,o),
(421,256,cs),
(421,160,o),
(379,108,o),
(312,108,cs)
);
}
);
width = 598;
},
{
layerId = "AF447C8E-6A86-4BB0-AFAA-0E31F633710F";
shapes = (
{
closed = 1;
nodes = (
(447,-9,o),
(533,96,o),
(533,258,cs),
(533,417,o),
(450,520,o),
(321,520,cs),
(234,520,o),
(162,474,o),
(139,398,c),
(154,394,l),
(154,720,l),
(77,720,l),
(77,-205,l),
(154,-205,l),
(154,124,l),
(139,121,l),
(160,39,o),
(225,-9,o),
(314,-9,cs)
);
},
{
closed = 1;
nodes = (
(208,59,o),
(150,132,o),
(150,254,cs),
(150,378,o),
(206,452,o),
(302,452,cs),
(398,452,o),
(454,380,o),
(454,257,cs),
(454,132,o),
(398,59,o),
(303,59,cs)
);
}
);
width = 574;
}
);
unicode = 254;
}
{
glyphname = dcroat;
kernLeft = KO_d;
kernRight = KO_j;
layers = (
{
layerId = "522FD917-7CD6-43A0-922F-6555542696CE";
shapes = (
{
alignment = -1;
ref = d;
},
{
closed = 1;
nodes = (
(598,578,l),
(598,675,l),
(228,675,l),
(228,578,l)
);
}
);
width = 598;
},
{
layerId = "AF447C8E-6A86-4BB0-AFAA-0E31F633710F";
shapes = (
{
alignment = -1;
ref = d;
},
{
closed = 1;
nodes = (
(574,595,l),
(574,651,l),
(253,651,l),
(253,595,l)
);
}
);
width = 574;
}
);
unicode = 273;
}
{
glyphname = Hbar;
layers = (
{
layerId = "522FD917-7CD6-43A0-922F-6555542696CE";
shapes = (
{
alignment = -1;
pos = (15,0);
ref = H;
},
{
closed = 1;
nodes = (
(698,523,l),
(698,641,l),
(10,641,l),
(10,523,l)
);
}
);
width = 708;
},
{
layerId = "AF447C8E-6A86-4BB0-AFAA-0E31F633710F";
shapes = (
{
alignment = -1;
ref = H;
},
{
closed = 1;
nodes = (
(689,542,l),
(689,608,l),
(0,608,l),
(0,542,l)
);
}
);
width = 689;
}
);
unicode = 294;
}
{
glyphname = hbar;
kernRight = KO_n;
layers = (
{
layerId = "522FD917-7CD6-43A0-922F-6555542696CE";
shapes = (
{
alignment = -1;
ref = h;
},
{
closed = 1;
nodes = (
(370,578,l),
(370,675,l),
(0,675,l),
(0,578,l)
);
}
);
width = 588;
},
{
layerId = "AF447C8E-6A86-4BB0-AFAA-0E31F633710F";
shapes = (
{
alignment = -1;
ref = h;
},
{
closed = 1;
nodes = (
(321,595,l),
(321,651,l),
(0,651,l),
(0,595,l)
);
}
);
width = 568;
}
);
unicode = 295;
}
{
glyphname = idotless;
kernLeft = KO_idotless;
kernRight = KO_u;
layers = (
{
anchors = (
{
name = bottom;
pos = (131,0);
},
{
name = ogonek;
pos = (204,0);
},
{
name = top;
pos = (131,510);
}
);
layerId = "522FD917-7CD6-43A0-922F-6555542696CE";
shapes = (
{
closed = 1;
nodes = (
(204,0,l),
(204,510,l),
(57,510,l),
(57,0,l)
);
}
);
width = 261;
},
{
anchors = (
{
name = bottom;
pos = (116,0);
},
{
name = ogonek;
pos = (154,0);
},
{
name = top;
pos = (116,510);
}
);
layerId = "AF447C8E-6A86-4BB0-AFAA-0E31F633710F";
shapes = (
{
closed = 1;
nodes = (
(154,0,l),
(154,510,l),
(77,510,l),
(77,0,l)
);
}
);
width = 231;
}
);
metricRight = "=|";
unicode = 305;
}
{
glyphname = Lslash;
kernRight = KO_Lslash;
layers = (
{
layerId = "522FD917-7CD6-43A0-922F-6555542696CE";
shapes = (
{
alignment = -1;
pos = (10,0);
ref = L;
},
{
closed = 1;
nodes = (
(156,431,l),
(0,365,l),
(0,258,l),
(156,324,l)
);
},
{
closed = 1;
nodes = (
(158,334,l),
(352,418,l),
(352,525,l),
(158,441,l)
);
}
);
width = 557;
},
{
layerId = "AF447C8E-6A86-4BB0-AFAA-0E31F633710F";
shapes = (
{
alignment = -1;
ref = L;
},
{
closed = 1;
nodes = (
(125,407,l),
(0,355,l),
(0,292,l),
(127,345,l)
);
},
{
closed = 1;
nodes = (
(127,349,l),
(302,423,l),
(302,486,l),
(125,411,l)
);
}
);
width = 545;
}
);
unicode = 321;
}
{
glyphname = lslash;
layers = (
{
layerId = "522FD917-7CD6-43A0-922F-6555542696CE";
shapes = (
{
alignment = -1;
pos = (20,0);
ref = l;
},
{
closed = 1;
nodes = (
(156,427,l),
(10,365,l),
(10,268,l),
(156,330,l)
);
},
{
closed = 1;
nodes = (
(156,340,l),
(291,398,l),
(291,495,l),
(156,437,l)
);
}
);
width = 301;
},
{
layerId = "AF447C8E-6A86-4BB0-AFAA-0E31F633710F";
shapes = (
{
alignment = -1;
pos = (8,0);
ref = l;
},
{
closed = 1;
nodes = (
(125,408,l),
(0,356,l),
(0,294,l),
(126,347,l)
);
},
{
closed = 1;
nodes = (
(126,351,l),
(247,402,l),
(247,464,l),
(125,412,l)
);
}
);
width = 247;
}
);
unicode = 322;
}
{
glyphname = Eng;
kernLeft = KO_B;
kernRight = KO_Iacute;
layers = (
{
layerId = "522FD917-7CD6-43A0-922F-6555542696CE";
shapes = (
{
closed = 1;
nodes = (
(193,0,l),
(193,628,l),
(149,618,l),
(480,0,l),
(627,0,l),
(627,720,l),
(481,720,l),
(481,132,l),
(567,118,l),
(240,720,l),
(47,720,l),
(47,0,l)
);
},
{
closed = 1;
nodes = (
(571,-215,o),
(627,-154,o),
(627,-45,cs),
(627,46,l),
(477,46,l),
(477,-39,ls),
(477,-81,o),
(457,-97,o),
(416,-97,cs),
(395,-97,o),
(378,-93,o),
(364,-88,c),
(364,-205,l),
(384,-211,o),
(410,-215,o),
(443,-215,cs)
);
}
);
width = 673;
},
{
layerId = "AF447C8E-6A86-4BB0-AFAA-0E31F633710F";
shapes = (
{
closed = 1;
nodes = (
(158,0,l),
(158,608,l),
(147,606,l),
(532,0,l),
(607,0,l),
(607,720,l),
(531,720,l),
(531,112,l),
(553,114,l),
(168,720,l),
(83,720,l),
(83,0,l)
);
},
{
closed = 1;
nodes = (
(564,-215,o),
(607,-162,o),
(607,-81,cs),
(607,24,l),
(529,24,l),
(529,-78,ls),
(529,-123,o),
(512,-145,o),
(454,-145,cs),
(428,-145,o),
(407,-140,o),
(393,-136,c),
(393,-206,l),
(405,-210,o),
(426,-215,o),
(460,-215,cs)
);
}
);
width = 690;
}
);
unicode = 330;
}
{
glyphname = eng;
kernLeft = KO_idotless;
kernRight = KO_n;
layers = (
{
layerId = "522FD917-7CD6-43A0-922F-6555542696CE";
shapes = (
{
closed = 1;
nodes = (
(481,-215,o),
(536,-155,o),
(536,-56,cs),
(536,354,ls),
(536,456,o),
(478,520,o),
(374,520,cs),
(284,520,o),
(222,474,o),
(190,400,c),
(204,287,l),
(204,355,o),
(248,402,o),
(313,402,cs),
(363,402,o),
(389,376,o),
(389,325,cs),
(389,-52,ls),
(389,-84,o),
(370,-99,o),
(338,-99,cs),
(326,-99,o),
(314,-97,o),
(304,-93,c),
(304,-206,l),
(324,-212,o),
(342,-215,o),
(365,-215,cs)
);
},
{
closed = 1;
nodes = (
(204,0,l),
(204,395,l),
(201,395,l),
(201,510,l),
(57,510,l),
(57,0,l)
);
}
);
width = 588;
},
{
layerId = "AF447C8E-6A86-4BB0-AFAA-0E31F633710F";
shapes = (
{
closed = 1;
nodes = (
(454,-215,o),
(496,-171,o),
(496,-93,cs),
(496,362,ls),
(496,457,o),
(431,520,o),
(331,520,cs),
(245,520,o),
(174,474,o),
(142,402,c),
(154,287,l),
(154,383,o),
(218,452,o),
(313,452,cs),
(383,452,o),
(419,415,o),
(419,342,cs),
(419,-89,ls),
(419,-132,o),
(402,-152,o),
(353,-152,cs),
(335,-152,o),
(319,-150,o),
(310,-147,c),
(310,-208,l),
(321,-212,o),
(334,-215,o),
(360,-215,cs)
);
},
{
closed = 1;
nodes = (
(154,0,l),
(154,395,l),
(149,395,l),
(149,510,l),
(77,510,l),
(77,0,l)
);
}
);
width = 568;
}
);
metricLeft = n;
metricRight = n;
unicode = 331;
}
{
glyphname = OE;
kernLeft = KO_O;
kernRight = KO_E;
layers = (
{
layerId = "522FD917-7CD6-43A0-922F-6555542696CE";
shapes = (
{
closed = 1;
nodes = (
(459,-10,o),
(506,-3,o),
(546,9,c),
(532,131,l),
(496,117,o),
(457,110,o),
(401,110,cs),
(257,110,o),
(184,201,o),
(184,361,cs),
(184,519,o),
(257,610,o),
(401,610,cs),
(457,610,o),
(496,603,o),
(532,589,c),
(546,711,l),
(506,723,o),
(459,730,o),
(399,730,cs),
(179,730,o),
(30,586,o),
(30,361,cs),
(30,134,o),
(179,-10,o),
(399,-10,cs)
);
},
{
closed = 1;
nodes = (
(973,0,l),
(973,116,l),
(664,116,l),
(664,311,l),
(942,311,l),
(942,426,l),
(664,426,l),
(664,604,l),
(962,604,l),
(962,720,l),
(512,720,l),
(512,0,l)
);
}
);
width = 1013;
},
{
layerId = "AF447C8E-6A86-4BB0-AFAA-0E31F633710F";
shapes = (
{
closed = 1;
nodes = (
(446,-10,o),
(489,-5,o),
(525,7,c),
(525,87,l),
(497,70,o),
(446,62,o),
(391,62,cs),
(221,62,o),
(130,178,o),
(130,361,cs),
(130,542,o),
(221,658,o),
(391,658,cs),
(446,658,o),
(497,650,o),
(525,633,c),
(525,713,l),
(489,725,o),
(446,730,o),
(391,730,cs),
(178,730,o),
(48,580,o),
(48,361,cs),
(48,140,o),
(178,-10,o),
(391,-10,cs)
);
},
{
closed = 1;
nodes = (
(918,0,l),
(918,70,l),
(571,70,l),
(571,340,l),
(885,340,l),
(885,410,l),
(571,410,l),
(571,650,l),
(910,650,l),
(910,720,l),
(492,720,l),
(492,0,l)
);
}
);
width = 984;
}
);
metricLeft = O;
metricRight = E;
unicode = 338;
}
{
glyphname = oe;
kernLeft = KO_e;
kernRight = KO_e;
layers = (
{
layerId = "522FD917-7CD6-43A0-922F-6555542696CE";
shapes = (
{
closed = 1;
nodes = (
(427,-10,o),
(524,97,o),
(524,257,cs),
(524,416,o),
(429,520,o),
(278,520,cs),
(127,520,o),
(20,416,o),
(20,257,cs),
(20,97,o),
(128,-10,o),
(278,-10,cs)
);
},
{
closed = 1;
nodes = (
(217,106,o),
(173,159,o),
(173,258,cs),
(173,354,o),
(217,404,o),
(278,404,cs),
(341,404,o),
(382,354,o),
(382,258,cs),
(382,159,o),
(338,106,o),
(278,106,cs)
);
},
{
closed = 1;
nodes = (
(755,-10,o),
(831,52,o),
(862,152,c),
(723,152,l),
(709,112,o),
(678,96,o),
(642,96,cs),
(573,96,o),
(534,146,o),
(534,253,cs),
(534,362,o),
(575,414,o),
(640,414,cs),
(696,414,o),
(733,374,o),
(733,289,c),
(756,309,l),
(475,309,l),
(475,212,l),
(870,212,l),
(872,227,o),
(874,244,o),
(874,266,cs),
(874,420,o),
(780,520,o),
(639,520,cs),
(493,520,o),
(390,414,o),
(390,255,cs),
(390,98,o),
(492,-10,o),
(642,-10,cs)
);
}
);
width = 894;
},
{
layerId = "AF447C8E-6A86-4BB0-AFAA-0E31F633710F";
shapes = (
{
closed = 1;
nodes = (
(402,-10,o),
(484,105,o),
(484,257,cs),
(484,410,o),
(401,520,o),
(267,520,cs),
(134,520,o),
(39,410,o),
(39,257,cs),
(39,105,o),
(133,-10,o),
(267,-10,cs)
);
},
{
closed = 1;
nodes = (
(181,56,o),
(119,138,o),
(119,258,cs),
(119,377,o),
(181,454,o),
(267,454,cs),
(354,454,o),
(415,377,o),
(415,258,cs),
(415,138,o),
(354,56,o),
(267,56,cs)
);
},
{
closed = 1;
nodes = (
(729,-10,o),
(807,50,o),
(835,145,c),
(761,145,l),
(742,90,o),
(694,56,o),
(641,56,cs),
(555,56,o),
(494,134,o),
(494,257,cs),
(494,378,o),
(555,454,o),
(641,454,cs),
(722,454,o),
(773,386,o),
(773,260,c),
(799,298,l),
(472,298,l),
(472,233,l),
(846,233,l),
(847,244,o),
(848,255,o),
(848,268,cs),
(848,425,o),
(765,520,o),
(642,520,cs),
(510,520,o),
(425,414,o),
(425,256,cs),
(425,99,o),
(510,-10,o),
(638,-10,cs)
);
}
);
width = 887;
}
);
metricRight = e;
unicode = 339;
}
{
glyphname = jdotless;
layers = (
{
anchors = (
{
name = bottom;
pos = (131,-205);
},
{
name = top;
pos = (131,510);
}
);
layerId = "522FD917-7CD6-43A0-922F-6555542696CE";
shapes = (
{
closed = 1;
nodes = (
(149,-215,o),
(204,-155,o),
(204,-56,cs),
(204,510,l),
(57,510,l),
(57,-52,ls),
(57,-84,o),
(38,-99,o),
(6,-99,cs),
(-6,-99,o),
(-18,-97,o),
(-28,-93,c),
(-28,-206,l),
(-8,-212,o),
(10,-215,o),
(33,-215,cs)
);
}
);
width = 261;
},
{
anchors = (
{
name = bottom;
pos = (116,-205);
},
{
name = top;
pos = (116,510);
}
);
layerId = "AF447C8E-6A86-4BB0-AFAA-0E31F633710F";
shapes = (
{
closed = 1;
nodes = (
(112,-215,o),
(154,-171,o),
(154,-93,cs),
(154,510,l),
(77,510,l),
(77,-89,ls),
(77,-132,o),
(60,-152,o),
(11,-152,cs),
(-7,-152,o),
(-23,-150,o),
(-32,-147,c),
(-32,-208,l),
(-21,-212,o),
(-8,-215,o),
(18,-215,cs)
);
}
);
width = 231;
}
);
metricRight = idotless;
unicode = 567;
}
{
glyphname = gravecomb;
layers = (
{
anchors = (
{
name = _top;
pos = (251,510);
},
{
name = top;
pos = (251,740);
}
);
layerId = "522FD917-7CD6-43A0-922F-6555542696CE";
shapes = (
{
closed = 1;
nodes = (
(344,583,l),
(252,740,l),
(60,740,l),
(216,583,l)
);
}
);
width = 404;
},
{
anchors = (
{
name = _top;
pos = (207,510);
},
{
name = top;
pos = (207,740);
}
);
layerId = "AF447C8E-6A86-4BB0-AFAA-0E31F633710F";
shapes = (
{
closed = 1;
nodes = (
(284,583,l),
(176,740,l),
(60,740,l),
(213,583,l)
);
}
);
width = 344;
}
);
unicode = 768;
userData = {
KernOnSpecialSpacing = {
L = NoKerning;
R = NoKerning;
};
};
}
{
glyphname = acutecomb;
layers = (
{
anchors = (
{
name = _top;
pos = (153,510);
},
{
name = top;
pos = (153,740);
}
);
layerId = "522FD917-7CD6-43A0-922F-6555542696CE";
shapes = (
{
closed = 1;
nodes = (
(344,740,l),
(152,740,l),
(60,583,l),
(187,583,l)
);
}
);
width = 404;
},
{
anchors = (
{
name = _top;
pos = (137,510);
},
{
name = top;
pos = (137,740);
}
);
layerId = "AF447C8E-6A86-4BB0-AFAA-0E31F633710F";
shapes = (
{
closed = 1;
nodes = (
(284,740,l),
(169,740,l),
(60,583,l),
(132,583,l)
);
}
);
width = 344;
}
);
unicode = 769;
userData = {
KernOnSpecialSpacing = {
L = NoKerning;
R = NoKerning;
};
};
}
{
glyphname = circumflexcomb;
layers = (
{
anchors = (
{
name = _top;
pos = (256,510);
},
{
name = top;
pos = (256,740);
}
);
layerId = "522FD917-7CD6-43A0-922F-6555542696CE";
shapes = (
{
closed = 1;
nodes = (
(178,740,l),
(57,583,l),
(182,583,l),
(297,710,l),
(209,710,l),
(324,583,l),
(449,583,l),
(328,740,l)
);
}
);
width = 512;
},
{
anchors = (
{
name = _top;
pos = (237,510);
},
{
name = top;
pos = (237,740);
}
);
layerId = "AF447C8E-6A86-4BB0-AFAA-0E31F633710F";
shapes = (
{
closed = 1;
nodes = (
(61,583,l),
(137,583,l),
(269,720,l),
(205,720,l),
(337,583,l),
(413,583,l),
(278,740,l),
(196,740,l)
);
}
);
width = 474;
}
);
unicode = 770;
userData = {
KernOnSpecialSpacing = {
L = NoKerning;
R = NoKerning;
};
};
}
{
glyphname = tildecomb;
layers = (
{
anchors = (
{
name = _top;
pos = (265,510);
},
{
name = top;
pos = (265,742);
}
);
layerId = "522FD917-7CD6-43A0-922F-6555542696CE";
shapes = (
{
closed = 1;
nodes = (
(421,593,o),
(470,660,o),
(470,737,c),
(382,737,l),
(382,711,o),
(367,693,o),
(338,693,cs),
(291,693,o),
(268,742,o),
(195,742,cs),
(107,742,o),
(60,673,o),
(60,598,c),
(148,598,l),
(148,623,o),
(163,642,o),
(191,642,cs),
(235,642,o),
(268,593,o),
(338,593,cs)
);
}
);
width = 530;
},
{
anchors = (
{
name = _top;
pos = (240,510);
},
{
name = top;
pos = (240,722);
}
);
layerId = "AF447C8E-6A86-4BB0-AFAA-0E31F633710F";
shapes = (
{
closed = 1;
nodes = (
(375,595,o),
(420,639,o),
(420,712,c),
(365,712,l),
(365,670,o),
(346,653,o),
(318,653,cs),
(267,653,o),
(248,722,o),
(169,722,cs),
(105,722,o),
(60,680,o),
(60,605,c),
(115,605,l),
(115,646,o),
(135,664,o),
(161,664,cs),
(209,664,o),
(238,595,o),
(314,595,cs)
);
}
);
width = 480;
}
);
unicode = 771;
userData = {
KernOnSpecialSpacing = {
L = NoKerning;
R = NoKerning;
};
};
}
{
glyphname = macroncomb;
layers = (
{
anchors = (
{
name = _top;
pos = (236,510);
},
{
name = top;
pos = (236,724);
}
);
layerId = "522FD917-7CD6-43A0-922F-6555542696CE";
shapes = (
{
closed = 1;
nodes = (
(411,618,l),
(411,724,l),
(60,724,l),
(60,618,l)
);
}
);
width = 471;
},
{
anchors = (
{
name = _top;
pos = (225,510);
},
{
name = top;
pos = (225,699);
}
);
layerId = "AF447C8E-6A86-4BB0-AFAA-0E31F633710F";
shapes = (
{
closed = 1;
nodes = (
(390,643,l),
(390,699,l),
(60,699,l),
(60,643,l)
);
}
);
width = 450;
}
);
unicode = 772;
userData = {
KernOnSpecialSpacing = {
L = NoKerning;
R = NoKerning;
};
};
}
{
glyphname = brevecomb;
layers = (
{
anchors = (
{
name = _top;
pos = (230,510);
},
{
name = top;
pos = (230,740);
}
);
layerId = "522FD917-7CD6-43A0-922F-6555542696CE";
shapes = (
{
closed = 1;
nodes = (
(327,574,o),
(400,644,o),
(400,740,c),
(302,740,l),
(302,703,o),
(276,677,o),
(230,677,cs),
(185,677,o),
(158,703,o),
(158,740,c),
(60,740,l),
(60,643,o),
(132,574,o),
(230,574,cs)
);
}
);
width = 460;
},
{
anchors = (
{
name = _top;
pos = (219,510);
},
{
name = top;
pos = (219,740);
}
);
layerId = "AF447C8E-6A86-4BB0-AFAA-0E31F633710F";
shapes = (
{
closed = 1;
nodes = (
(307,579,o),
(377,639,o),
(377,740,c),
(316,740,l),
(316,679,o),
(280,644,o),
(219,644,cs),
(156,644,o),
(120,679,o),
(120,740,c),
(60,740,l),
(60,639,o),
(129,579,o),
(219,579,cs)
);
}
);
width = 437;
}
);
unicode = 774;
userData = {
KernOnSpecialSpacing = {
L = NoKerning;
R = NoKerning;
};
};
}
{
glyphname = dotaccentcomb;
layers = (
{
anchors = (
{
name = _top;
pos = (138,510);
},
{
name = top;
pos = (138,736);
}
);
layerId = "522FD917-7CD6-43A0-922F-6555542696CE";
shapes = (
{
closed = 1;
nodes = (
(217,577,l),
(217,736,l),
(60,736,l),
(60,577,l)
);
}
);
width = 277;
},
{
anchors = (
{
name = _top;
pos = (105,510);
},
{
name = top;
pos = (105,720);
}
);
layerId = "AF447C8E-6A86-4BB0-AFAA-0E31F633710F";
shapes = (
{
closed = 1;
nodes = (
(150,628,l),
(150,720,l),
(60,720,l),
(60,628,l)
);
}
);
width = 210;
}
);
unicode = 775;
}
{
glyphname = dieresiscomb;
layers = (
{
anchors = (
{
name = _top;
pos = (251,510);
},
{
name = top;
pos = (251,736);
}
);
layerId = "522FD917-7CD6-43A0-922F-6555542696CE";
shapes = (
{
closed = 1;
nodes = (
(442,577,l),
(442,736,l),
(286,736,l),
(286,577,l)
);
},
{
closed = 1;
nodes = (
(216,577,l),
(216,736,l),
(60,736,l),
(60,577,l)
);
}
);
width = 502;
},
{
anchors = (
{
name = _top;
pos = (216,510);
},
{
name = top;
pos = (216,720);
}
);
layerId = "AF447C8E-6A86-4BB0-AFAA-0E31F633710F";
shapes = (
{
closed = 1;
nodes = (
(371,628,l),
(371,720,l),
(281,720,l),
(281,628,l)
);
},
{
closed = 1;
nodes = (
(150,628,l),
(150,720,l),
(60,720,l),
(60,628,l)
);
}
);
width = 431;
}
);
unicode = 776;
}
{
glyphname = ringcomb;
layers = (
{
anchors = (
{
name = _top;
pos = (168,510);
},
{
name = top;
pos = (168,776);
}
);
layerId = "522FD917-7CD6-43A0-922F-6555542696CE";
shapes = (
{
closed = 1;
nodes = (
(229,561,o),
(275,609,o),
(275,669,cs),
(275,728,o),
(229,776,o),
(168,776,cs),
(106,776,o),
(60,728,o),
(60,669,cs),
(60,609,o),
(106,561,o),
(168,561,cs)
);
},
{
closed = 1;
nodes = (
(147,634,o),
(134,649,o),
(134,669,cs),
(134,688,o),
(147,703,o),
(168,703,cs),
(188,703,o),
(201,688,o),
(201,669,cs),
(201,649,o),
(188,634,o),
(168,634,cs)
);
}
);
width = 335;
},
{
anchors = (
{
name = _top;
pos = (168,510);
},
{
name = top;
pos = (168,776);
}
);
layerId = "AF447C8E-6A86-4BB0-AFAA-0E31F633710F";
shapes = (
{
closed = 1;
nodes = (
(229,561,o),
(275,609,o),
(275,669,cs),
(275,728,o),
(229,776,o),
(168,776,cs),
(106,776,o),
(60,728,o),
(60,669,cs),
(60,609,o),
(106,561,o),
(168,561,cs)
);
},
{
closed = 1;
nodes = (
(134,609,o),
(110,636,o),
(110,669,cs),
(110,701,o),
(134,728,o),
(168,728,cs),
(201,728,o),
(225,701,o),
(225,669,cs),
(225,636,o),
(201,609,o),
(168,609,cs)
);
}
);
width = 335;
}
);
unicode = 778;
userData = {
KernOnSpecialSpacing = {
L = NoKerning;
R = NoKerning;
};
};
}
{
glyphname = hungarumlautcomb;
layers = (
{
anchors = (
{
name = _top;
pos = (235,510);
},
{
name = top;
pos = (235,740);
}
);
layerId = "522FD917-7CD6-43A0-922F-6555542696CE";
shapes = (
{
closed = 1;
nodes = (
(276,740,l),
(114,740,l),
(60,583,l),
(169,583,l)
);
},
{
closed = 1;
nodes = (
(488,740,l),
(326,740,l),
(273,583,l),
(382,583,l)
);
}
);
width = 548;
},
{
anchors = (
{
name = _top;
pos = (203,510);
},
{
name = top;
pos = (203,740);
}
);
layerId = "AF447C8E-6A86-4BB0-AFAA-0E31F633710F";
shapes = (
{
closed = 1;
nodes = (
(208,740,l),
(115,740,l),
(60,583,l),
(123,583,l)
);
},
{
closed = 1;
nodes = (
(398,740,l),
(305,740,l),
(250,583,l),
(313,583,l)
);
}
);
width = 458;
}
);
unicode = 779;
userData = {
KernOnSpecialSpacing = {
L = NoKerning;
R = NoKerning;
};
};
}
{
glyphname = caroncomb;
layers = (
{
anchors = (
{
name = _top;
pos = (256,510);
},
{
name = top;
pos = (256,740);
}
);
layerId = "522FD917-7CD6-43A0-922F-6555542696CE";
shapes = (
{
closed = 1;
nodes = (
(331,583,l),
(452,740,l),
(334,740,l),
(206,613,l),
(306,613,l),
(178,740,l),
(60,740,l),
(181,583,l)
);
}
);
width = 512;
},
{
anchors = (
{
name = _top;
pos = (237,510);
},
{
name = top;
pos = (237,740);
}
);
layerId = "AF447C8E-6A86-4BB0-AFAA-0E31F633710F";
shapes = (
{
closed = 1;
nodes = (
(278,583,l),
(413,740,l),
(340,740,l),
(205,603,l),
(269,603,l),
(134,740,l),
(61,740,l),
(196,583,l)
);
}
);
width = 474;
}
);
unicode = 780;
userData = {
KernOnSpecialSpacing = {
L = NoKerning;
R = NoKerning;
};
};
}
{
glyphname = commaturnedabovecomb;
layers = (
{
anchors = (
{
name = _top;
pos = (144,510);
},
{
name = top;
pos = (144,857);
}
);
layerId = "522FD917-7CD6-43A0-922F-6555542696CE";
shapes = (
{
closed = 1;
nodes = (
(218,584,l),
(218,723,l),
(93,723,l),
(146,711,l),
(146,762,o),
(170,790,o),
(218,791,c),
(218,857,l),
(127,854,o),
(68,791,o),
(68,697,cs),
(68,584,l)
);
}
);
width = 286;
},
{
anchors = (
{
name = _top;
pos = (117,510);
},
{
name = top;
pos = (117,801);
}
);
layerId = "AF447C8E-6A86-4BB0-AFAA-0E31F633710F";
shapes = (
{
closed = 1;
nodes = (
(168,581,l),
(168,681,l),
(82,681,l),
(110,676,l),
(110,719,o),
(133,746,o),
(168,760,c),
(168,801,l),
(98,780,o),
(65,724,o),
(65,658,cs),
(65,581,l)
);
}
);
width = 233;
}
);
unicode = 786;
}
{
glyphname = commaaccentcomb;
layers = (
{
anchors = (
{
name = _bottom;
pos = (144,0);
},
{
name = bottom;
pos = (144,-348);
}
);
layerId = "522FD917-7CD6-43A0-922F-6555542696CE";
shapes = (
{
closed = 1;
nodes = (
(159,-345,o),
(218,-282,o),
(218,-188,cs),
(218,-75,l),
(68,-75,l),
(68,-213,l),
(193,-213,l),
(141,-202,l),
(141,-253,o),
(116,-281,o),
(68,-282,c),
(68,-348,l)
);
}
);
width = 286;
},
{
anchors = (
{
name = _bottom;
pos = (117,0);
},
{
name = bottom;
pos = (117,-291);
}
);
layerId = "AF447C8E-6A86-4BB0-AFAA-0E31F633710F";
shapes = (
{
closed = 1;
nodes = (
(135,-270,o),
(168,-215,o),
(168,-149,cs),
(168,-72,l),
(65,-72,l),
(65,-172,l),
(151,-172,l),
(123,-167,l),
(123,-210,o),
(100,-237,o),
(65,-251,c),
(65,-291,l)
);
}
);
width = 233;
}
);
unicode = 806;
}
{
glyphname = cedillacomb;
layers = (
{
anchors = (
{
name = _bottom;
pos = (198,0);
},
{
name = bottom;
pos = (188,-215);
}
);
layerId = "522FD917-7CD6-43A0-922F-6555542696CE";
shapes = (
{
closed = 1;
nodes = (
(270,-215,o),
(315,-176,o),
(315,-124,cs),
(315,-78,o),
(285,-45,o),
(230,-32,c),
(241,12,l),
(160,12,l),
(135,-91,l),
(199,-95,o),
(219,-106,o),
(219,-125,cs),
(219,-139,o),
(205,-147,o),
(190,-147,cs),
(169,-147,o),
(155,-136,o),
(154,-120,c),
(60,-120,l),
(63,-180,o),
(112,-215,o),
(191,-215,cs)
);
}
);
width = 375;
},
{
anchors = (
{
name = _bottom;
pos = (182,0);
},
{
name = bottom;
pos = (173,-215);
}
);
layerId = "AF447C8E-6A86-4BB0-AFAA-0E31F633710F";
shapes = (
{
closed = 1;
nodes = (
(238,-215,o),
(285,-185,o),
(285,-131,cs),
(285,-92,o),
(263,-58,o),
(200,-45,c),
(216,12,l),
(161,12,l),
(137,-86,l),
(207,-89,o),
(229,-107,o),
(229,-131,cs),
(229,-153,o),
(205,-165,o),
(175,-165,cs),
(144,-165,o),
(116,-153,o),
(114,-128,c),
(60,-128,l),
(63,-182,o),
(107,-215,o),
(173,-215,cs)
);
}
);
width = 345;
}
);
unicode = 807;
userData = {
KernOnSpecialSpacing = {
L = NoKerning;
R = NoKerning;
};
};
}
{
glyphname = ogonekcomb;
layers = (
{
anchors = (
{
name = _ogonek;
pos = (242,0);
}
);
layerId = "522FD917-7CD6-43A0-922F-6555542696CE";
shapes = (
{
closed = 1;
nodes = (
(209,-216,o),
(234,-208,o),
(253,-196,c),
(226,-128,l),
(213,-138,o),
(202,-142,o),
(187,-142,cs),
(170,-142,o),
(156,-132,o),
(156,-110,cs),
(156,-82,o),
(177,-51,o),
(242,0,c),
(185,17,l),
(109,-23,o),
(60,-70,o),
(60,-128,cs),
(60,-181,o),
(100,-216,o),
(172,-216,cs)
);
}
);
width = 313;
},
{
anchors = (
{
name = _ogonek;
pos = (212,0);
}
);
layerId = "AF447C8E-6A86-4BB0-AFAA-0E31F633710F";
shapes = (
{
closed = 1;
nodes = (
(174,-216,o),
(195,-208,o),
(215,-190,c),
(184,-150,l),
(174,-161,o),
(164,-166,o),
(149,-166,cs),
(130,-166,o),
(117,-153,o),
(117,-129,cs),
(117,-83,o),
(153,-43,o),
(212,0,c),
(187,17,l),
(113,-23,o),
(60,-79,o),
(60,-137,cs),
(60,-183,o),
(89,-216,o),
(143,-216,cs)
);
}
);
width = 275;
}
);
unicode = 808;
userData = {
KernOnSpecialSpacing = {
L = NoKerning;
R = NoKerning;
};
};
}
{
glyphname = Germandbls;
layers = (
{
layerId = "522FD917-7CD6-43A0-922F-6555542696CE";
shapes = (
{
closed = 1;
nodes = (
(553,-9,o),
(654,69,o),
(654,197,cs),
(654,312,o),
(582,386,o),
(415,447,c),
(472,379,l),
(647,622,l),
(570,695,o),
(474,731,o),
(357,731,cs),
(158,731,o),
(50,628,o),
(50,439,cs),
(50,0,l),
(202,0,l),
(202,454,ls),
(202,558,o),
(254,613,o),
(350,613,cs),
(407,613,o),
(451,593,o),
(481,560,c),
(496,632,l),
(309,364,l),
(352,350,ls),
(457,314,o),
(501,273,o),
(501,207,cs),
(501,140,o),
(459,109,o),
(373,109,cs),
(334,109,o),
(303,115,o),
(271,128,c),
(271,7,l),
(308,-4,o),
(348,-9,o),
(390,-9,cs)
);
}
);
width = 676;
},
{
layerId = "AF447C8E-6A86-4BB0-AFAA-0E31F633710F";
shapes = (
{
closed = 1;
nodes = (
(541,-9,o),
(626,61,o),
(626,181,cs),
(626,292,o),
(549,378,o),
(399,429,c),
(424,371,l),
(621,625,l),
(544,701,o),
(471,731,o),
(367,731,cs),
(182,731,o),
(83,633,o),
(83,450,cs),
(83,0,l),
(162,0,l),
(162,450,ls),
(162,590,o),
(231,661,o),
(363,661,cs),
(438,661,o),
(499,636,o),
(542,587,c),
(542,645,l),
(332,375,l),
(358,366,ls),
(492,322,o),
(546,269,o),
(546,189,cs),
(546,104,o),
(495,61,o),
(387,61,cs),
(337,61,o),
(291,69,o),
(261,83,c),
(261,9,l),
(292,-3,o),
(338,-9,o),
(386,-9,cs)
);
}
);
width = 666;
}
);
metricLeft = H;
metricRight = S;
unicode = 7838;
}
{
glyphname = endash;
kernLeft = KO_endash;
kernRight = KO_endash;
layers = (
{
layerId = "522FD917-7CD6-43A0-922F-6555542696CE";
shapes = (
{
closed = 1;
nodes = (
(519,217,l),
(519,327,l),
(57,327,l),
(57,217,l)
);
}
);
width = 576;
},
{
layerId = "AF447C8E-6A86-4BB0-AFAA-0E31F633710F";
shapes = (
{
closed = 1;
nodes = (
(481,239,l),
(481,305,l),
(77,305,l),
(77,239,l)
);
}
);
width = 558;
}
);
metricRight = "=|";
unicode = 8211;
userData = {
KernOnSpecialSpacing = {
L = dashes;
R = dashes;
};
};
}
{
glyphname = emdash;
kernLeft = KO_endash;
kernRight = KO_endash;
layers = (
{
layerId = "522FD917-7CD6-43A0-922F-6555542696CE";
shapes = (
{
closed = 1;
nodes = (
(799,217,l),
(799,327,l),
(57,327,l),
(57,217,l)
);
}
);
width = 856;
},
{
layerId = "AF447C8E-6A86-4BB0-AFAA-0E31F633710F";
shapes = (
{
closed = 1;
nodes = (
(761,239,l),
(761,305,l),
(77,305,l),
(77,239,l)
);
}
);
width = 838;
}
);
metricRight = "=|";
unicode = 8212;
userData = {
KernOnSpecialSpacing = {
L = dashes;
R = dashes;
};
};
}
{
glyphname = quoteleft;
kernLeft = KO_quotedblleft.ss01;
kernRight = KO_quotedblleft.ss01;
layers = (
{
layerId = "522FD917-7CD6-43A0-922F-6555542696CE";
shapes = (
{
closed = 1;
nodes = (
(220,431,l),
(220,580,l),
(83,580,l),
(141,568,l),
(141,624,o),
(158,660,o),
(222,668,c),
(222,740,l),
(108,722,o),
(56,640,o),
(56,542,c),
(56,431,l)
);
}
);
width = 277;
},
{
layerId = "AF447C8E-6A86-4BB0-AFAA-0E31F633710F";
shapes = (
{
closed = 1;
nodes = (
(178,510,l),
(178,609,l),
(89,609,l),
(119,604,l),
(119,666,o),
(138,695,o),
(180,700,c),
(180,740,l),
(107,728,o),
(74,669,o),
(74,586,c),
(74,510,l)
);
}
);
width = 248;
}
);
metricLeft = "=|quoteright";
metricRight = "=|quoteright";
unicode = 8216;
}
{
glyphname = quoteright;
kernLeft = KO_quotedblright;
kernRight = KO_quoteright.ss01;
layers = (
{
layerId = "522FD917-7CD6-43A0-922F-6555542696CE";
shapes = (
{
closed = 1;
nodes = (
(168,449,o),
(220,531,o),
(220,629,c),
(220,740,l),
(56,740,l),
(56,591,l),
(193,591,l),
(135,603,l),
(135,547,o),
(119,511,o),
(55,503,c),
(55,431,l)
);
}
);
width = 276;
},
{
layerId = "AF447C8E-6A86-4BB0-AFAA-0E31F633710F";
shapes = (
{
closed = 1;
nodes = (
(140,525,o),
(173,584,o),
(173,668,c),
(173,744,l),
(70,744,l),
(70,645,l),
(158,645,l),
(128,650,l),
(128,587,o),
(109,559,o),
(68,554,c),
(68,513,l)
);
}
);
width = 247;
}
);
unicode = 8217;
}
{
glyphname = perthousand;
layers = (
{
layerId = "522FD917-7CD6-43A0-922F-6555542696CE";
shapes = (
{
closed = 1;
nodes = (
(241,365,o),
(306,423,o),
(306,548,cs),
(306,672,o),
(244,730,o),
(168,730,cs),
(93,730,o),
(30,672,o),
(30,548,cs),
(30,423,o),
(94,365,o),
(168,365,cs)
);
},
{
closed = 1;
nodes = (
(131,442,o),
(108,479,o),
(108,549,cs),
(108,617,o),
(131,653,o),
(168,653,cs),
(203,653,o),
(228,616,o),
(228,549,cs),
(228,479,o),
(202,442,o),
(168,442,cs)
);
},
{
closed = 1;
nodes = (
(162,0,l),
(593,720,l),
(495,720,l),
(63,0,l)
);
},
{
closed = 1;
nodes = (
(544,-10,o),
(591,44,o),
(591,173,cs),
(591,301,o),
(547,355,o),
(478,355,cs),
(412,355,o),
(349,293,o),
(349,173,cs),
(349,52,o),
(413,-10,o),
(478,-10,cs)
);
},
{
closed = 1;
nodes = (
(447,67,o),
(427,104,o),
(427,174,cs),
(427,242,o),
(447,278,o),
(478,278,cs),
(509,278,o),
(531,241,o),
(531,174,cs),
(531,104,o),
(508,67,o),
(478,67,cs)
);
},
{
closed = 1;
nodes = (
(616,67,o),
(595,104,o),
(595,174,cs),
(595,242,o),
(615,278,o),
(647,278,cs),
(678,278,o),
(699,241,o),
(699,174,cs),
(699,104,o),
(677,67,o),
(647,67,cs)
);
},
{
closed = 1;
nodes = (
(713,-10,o),
(777,52,o),
(777,173,cs),
(777,293,o),
(715,355,o),
(647,355,cs),
(580,355,o),
(535,301,o),
(535,173,cs),
(535,44,o),
(581,-10,o),
(647,-10,cs)
);
}
);
width = 807;
},
{
layerId = "AF447C8E-6A86-4BB0-AFAA-0E31F633710F";
shapes = (
{
closed = 1;
nodes = (
(241,365,o),
(306,423,o),
(306,548,cs),
(306,672,o),
(244,730,o),
(168,730,cs),
(93,730,o),
(30,672,o),
(30,548,cs),
(30,423,o),
(94,365,o),
(168,365,cs)
);
},
{
closed = 1;
nodes = (
(122,418,o),
(93,464,o),
(93,549,cs),
(93,633,o),
(122,677,o),
(168,677,cs),
(212,677,o),
(243,632,o),
(243,549,cs),
(243,464,o),
(211,418,o),
(168,418,cs)
);
},
{
closed = 1;
nodes = (
(138,0,l),
(587,720,l),
(513,720,l),
(63,0,l)
);
},
{
closed = 1;
nodes = (
(538,-10,o),
(593,48,o),
(593,173,cs),
(593,297,o),
(541,355,o),
(473,355,cs),
(406,355,o),
(343,297,o),
(343,173,cs),
(343,48,o),
(407,-10,o),
(473,-10,cs)
);
},
{
closed = 1;
nodes = (
(432,43,o),
(406,89,o),
(406,174,cs),
(406,258,o),
(432,302,o),
(473,302,cs),
(512,302,o),
(540,257,o),
(540,174,cs),
(540,89,o),
(511,43,o),
(473,43,cs)
);
},
{
closed = 1;
nodes = (
(628,43,o),
(599,89,o),
(599,174,cs),
(599,257,o),
(627,302,o),
(666,302,cs),
(707,302,o),
(733,258,o),
(733,174,cs),
(733,89,o),
(707,43,o),
(666,43,cs)
);
},
{
closed = 1;
nodes = (
(732,-10,o),
(796,48,o),
(796,173,cs),
(796,297,o),
(733,355,o),
(666,355,cs),
(598,355,o),
(546,297,o),
(546,173,cs),
(546,48,o),
(601,-10,o),
(666,-10,cs)
);
}
);
width = 826;
}
);
unicode = 8240;
}
{
glyphname = guilsinglleft;
kernLeft = KO_guillemetleft;
kernRight = KO_guillemetleft;
layers = (
{
layerId = "522FD917-7CD6-43A0-922F-6555542696CE";
shapes = (
{
closed = 1;
nodes = (
(305,68,l),
(183,251,l),
(305,434,l),
(169,434,l),
(43,251,l),
(169,68,l)
);
}
);
width = 358;
},
{
layerId = "AF447C8E-6A86-4BB0-AFAA-0E31F633710F";
shapes = (
{
closed = 1;
nodes = (
(257,68,l),
(135,251,l),
(257,434,l),
(179,434,l),
(53,251,l),
(179,68,l)
);
}
);
width = 320;
}
);
unicode = 8249;
userData = {
KernOnSpecialSpacing = {
L = quotes;
R = quotes;
};
};
}
{
glyphname = guilsinglright;
kernLeft = KO_guillemetright;
kernRight = KO_guillemetright;
layers = (
{
layerId = "522FD917-7CD6-43A0-922F-6555542696CE";
shapes = (
{
closed = 1;
nodes = (
(315,251,l),
(189,434,l),
(53,434,l),
(175,251,l),
(53,68,l),
(189,68,l)
);
}
);
width = 358;
},
{
layerId = "AF447C8E-6A86-4BB0-AFAA-0E31F633710F";
shapes = (
{
closed = 1;
nodes = (
(267,251,l),
(141,434,l),
(63,434,l),
(185,251,l),
(63,68,l),
(141,68,l)
);
}
);
width = 320;
}
);
metricLeft = "=|guilsinglleft";
metricRight = "=|guilsinglleft";
unicode = 8250;
userData = {
KernOnSpecialSpacing = {
L = quotes;
R = quotes;
};
};
}
{
glyphname = euro;
layers = (
{
layerId = "522FD917-7CD6-43A0-922F-6555542696CE";
shapes = (
{
closed = 1;
nodes = (
(523,-10,o),
(624,67,o),
(655,194,c),
(499,194,l),
(483,136,o),
(444,108,o),
(381,108,cs),
(284,108,o),
(221,202,o),
(221,364,cs),
(221,523,o),
(282,612,o),
(379,612,cs),
(445,612,o),
(485,585,o),
(501,525,c),
(655,525,l),
(626,651,o),
(525,730,o),
(382,730,cs),
(192,730,o),
(67,583,o),
(67,362,cs),
(67,141,o),
(194,-10,o),
(381,-10,cs)
);
},
{
closed = 1;
nodes = (
(461,382,l),
(477,480,l),
(16,480,l),
(0,382,l)
);
},
{
closed = 1;
nodes = (
(437,242,l),
(453,340,l),
(16,340,l),
(0,242,l)
);
}
);
width = 687;
},
{
layerId = "AF447C8E-6A86-4BB0-AFAA-0E31F633710F";
shapes = (
{
closed = 1;
nodes = (
(494,-10,o),
(589,61,o),
(611,175,c),
(528,175,l),
(515,103,o),
(454,62,o),
(374,62,cs),
(251,62,o),
(167,179,o),
(167,361,cs),
(167,541,o),
(250,658,o),
(375,658,cs),
(454,658,o),
(514,617,o),
(527,545,c),
(610,545,l),
(587,660,o),
(493,730,o),
(372,730,cs),
(207,730,o),
(86,579,o),
(86,360,cs),
(86,141,o),
(207,-10,o),
(375,-10,cs)
);
},
{
closed = 1;
nodes = (
(460,400,l),
(473,466,l),
(13,466,l),
(0,400,l)
);
},
{
closed = 1;
nodes = (
(435,256,l),
(448,322,l),
(13,322,l),
(0,256,l)
);
}
);
width = 658;
}
);
metricRight = C;
unicode = 8364;
userData = {
KernOnSpecialSpacing = {
L = symbols;
R = symbols;
};
};
}
{
glyphname = trademark;
layers = (
{
layerId = "522FD917-7CD6-43A0-922F-6555542696CE";
shapes = (
{
closed = 1;
nodes = (
(251,360,l),
(251,702,l),
(151,702,l),
(151,360,l)
);
},
{
closed = 1;
nodes = (
(354,638,l),
(354,720,l),
(48,720,l),
(48,638,l)
);
},
{
closed = 1;
nodes = (
(460,360,l),
(460,691,l),
(443,691,l),
(517,360,l),
(609,360,l),
(684,693,l),
(667,693,l),
(667,360,l),
(765,360,l),
(765,720,l),
(617,720,l),
(534,375,l),
(596,375,l),
(512,720,l),
(366,720,l),
(366,360,l)
);
}
);
width = 813;
},
{
layerId = "AF447C8E-6A86-4BB0-AFAA-0E31F633710F";
shapes = (
{
closed = 1;
nodes = (
(231,360,l),
(231,707,l),
(168,707,l),
(168,360,l)
);
},
{
closed = 1;
nodes = (
(341,666,l),
(341,720,l),
(58,720,l),
(58,666,l)
);
},
{
closed = 1;
nodes = (
(436,360,l),
(436,691,l),
(427,691,l),
(526,360,l),
(591,360,l),
(691,693,l),
(681,693,l),
(681,360,l),
(744,360,l),
(744,720,l),
(648,720,l),
(542,375,l),
(578,375,l),
(471,720,l),
(377,720,l),
(377,360,l)
);
}
);
width = 802;
}
);
unicode = 8482;
userData = {
KernOnSpecialSpacing = {
L = superiors;
};
};
}
{
glyphname = upArrow;
layers = (
{
layerId = "522FD917-7CD6-43A0-922F-6555542696CE";
shapes = (
{
closed = 1;
nodes = (
(474,12,l),
(474,624,l),
(414,540,l),
(752,202,l),
(752,387,l),
(406,732,l),
(60,387,l),
(60,202,l),
(398,540,l),
(338,624,l),
(338,12,l)
);
}
);
width = 812;
},
{
layerId = "AF447C8E-6A86-4BB0-AFAA-0E31F633710F";
shapes = (
{
closed = 1;
nodes = (
(425,15,l),
(425,640,l),
(398,609,l),
(720,288,l),
(720,385,l),
(390,713,l),
(60,386,l),
(60,289,l),
(382,609,l),
(355,640,l),
(355,15,l)
);
}
);
width = 780;
}
);
unicode = 8593;
userData = {
KernOnSpecialSpacing = {
L = NoKerning;
R = NoKerning;
};
};
}
{
glyphname = leftRightArrow;
layers = (
{
layerId = "522FD917-7CD6-43A0-922F-6555542696CE";
shapes = (
{
closed = 1;
nodes = (
(590,14,l),
(311,292,l),
(890,292,l),
(611,14,l),
(797,14,l),
(1142,360,l),
(797,706,l),
(611,706,l),
(890,428,l),
(311,428,l),
(590,706,l),
(405,706,l),
(60,360,l),
(405,14,l)
);
}
);
width = 1202;
},
{
layerId = "AF447C8E-6A86-4BB0-AFAA-0E31F633710F";
shapes = (
{
closed = 1;
nodes = (
(485,30,l),
(191,325,l),
(823,325,l),
(529,30,l),
(626,30,l),
(954,360,l),
(627,690,l),
(530,690,l),
(823,395,l),
(191,395,l),
(484,690,l),
(387,690,l),
(60,360,l),
(388,30,l)
);
}
);
width = 1014;
}
);
metricLeft = "=60";
metricRight = "=60";
unicode = 8596;
}
{
glyphname = upDownArrow;
layers = (
{
layerId = "522FD917-7CD6-43A0-922F-6555542696CE";
shapes = (
{
closed = 1;
nodes = (
(752,164,l),
(752,349,l),
(474,71,l),
(474,649,l),
(752,371,l),
(752,556,l),
(406,901,l),
(60,556,l),
(60,371,l),
(338,649,l),
(338,71,l),
(60,349,l),
(60,164,l),
(406,-181,l)
);
}
);
width = 812;
},
{
layerId = "AF447C8E-6A86-4BB0-AFAA-0E31F633710F";
shapes = (
{
closed = 1;
nodes = (
(720,241,l),
(720,338,l),
(425,44,l),
(425,676,l),
(720,382,l),
(720,479,l),
(390,807,l),
(60,480,l),
(60,383,l),
(355,676,l),
(355,44,l),
(60,337,l),
(60,240,l),
(390,-87,l)
);
}
);
width = 780;
}
);
metricLeft = "=60";
metricRight = "=60";
unicode = 8597;
}
{
glyphname = minus;
kernLeft = KO_plus;
kernRight = KO_plus;
layers = (
{
layerId = "522FD917-7CD6-43A0-922F-6555542696CE";
shapes = (
{
closed = 1;
nodes = (
(501,318,l),
(501,424,l),
(50,424,l),
(50,318,l)
);
}
);
width = 551;
},
{
layerId = "AF447C8E-6A86-4BB0-AFAA-0E31F633710F";
shapes = (
{
closed = 1;
nodes = (
(471,338,l),
(471,404,l),
(60,404,l),
(60,338,l)
);
}
);
width = 531;
}
);
unicode = 8722;
userData = {
KernOnSpecialSpacing = {
L = math;
R = math;
};
};
}
{
export = 0;
glyphname = G.ss10;
kernLeft = KO_O;
kernRight = KO_G.ss07;
layers = (
{
anchors = (
{
name = bottom;
pos = (374,0);
},
{
name = top;
pos = (374,720);
}
);
layerId = "522FD917-7CD6-43A0-922F-6555542696CE";
shapes = (
{
closed = 1;
nodes = (
(570,-10,o),
(694,121,o),
(694,337,c),
(552,337,l),
(552,189,o),
(489,110,o),
(376,110,cs),
(256,110,o),
(184,202,o),
(184,362,cs),
(184,521,o),
(257,610,o),
(375,610,cs),
(459,610,o),
(520,559,o),
(534,479,c),
(682,479,l),
(665,626,o),
(540,730,o),
(374,730,cs),
(170,730,o),
(30,582,o),
(30,361,cs),
(30,139,o),
(169,-10,o),
(374,-10,cs)
);
},
{
closed = 1;
nodes = (
(694,337,l),
(694,391,l),
(381,391,l),
(381,274,l),
(595,274,l)
);
}
);
width = 724;
},
{
anchors = (
{
name = bottom;
pos = (365,0);
},
{
name = top;
pos = (365,720);
}
);
layerId = "AF447C8E-6A86-4BB0-AFAA-0E31F633710F";
shapes = (
{
closed = 1;
nodes = (
(533,-10,o),
(659,96,o),
(659,332,c),
(583,332,l),
(583,133,o),
(491,62,o),
(371,62,cs),
(217,62,o),
(130,179,o),
(130,357,cs),
(130,540,o),
(221,658,o),
(371,658,cs),
(491,658,o),
(557,582,o),
(568,491,c),
(648,491,l),
(632,624,o),
(528,730,o),
(369,730,cs),
(178,730,o),
(48,579,o),
(48,357,cs),
(48,141,o),
(174,-10,o),
(368,-10,cs)
);
},
{
closed = 1;
nodes = (
(659,332,l),
(659,371,l),
(388,371,l),
(388,301,l),
(602,301,l)
);
}
);
width = 707;
}
);
metricLeft = O;
metricRight = O;
}
{
glyphname = M.ss03;
kernLeft = KO_M.ss06;
kernRight = KO_M.ss06;
layers = (
{
layerId = "522FD917-7CD6-43A0-922F-6555542696CE";
shapes = (
{
closed = 1;
nodes = (
(173,0,l),
(237,681,l),
(185,681,l),
(339,0,l),
(487,0,l),
(643,686,l),
(589,686,l),
(653,0,l),
(802,0,l),
(729,720,l),
(544,720,l),
(377,14,l),
(455,14,l),
(287,720,l),
(103,720,l),
(30,0,l)
);
}
);
width = 833;
},
{
layerId = "AF447C8E-6A86-4BB0-AFAA-0E31F633710F";
shapes = (
{
closed = 1;
nodes = (
(135,0,l),
(196,661,l),
(176,661,l),
(359,0,l),
(472,0,l),
(657,666,l),
(634,666,l),
(696,0,l),
(775,0,l),
(711,720,l),
(600,720,l),
(407,30,l),
(430,30,l),
(237,720,l),
(126,720,l),
(63,0,l)
);
}
);
width = 838;
}
);
}
{
glyphname = Q.ss05;
kernLeft = KO_O;
kernRight = KO_Q;
layers = (
{
layerId = "522FD917-7CD6-43A0-922F-6555542696CE";
shapes = (
{
closed = 1;
nodes = (
(506,55,l),
(659,99,o),
(716,218,o),
(716,362,cs),
(716,586,o),
(577,730,o),
(372,730,cs),
(169,730,o),
(30,586,o),
(30,363,cs),
(30,137,o),
(169,-10,o),
(377,-10,c)
);
},
{
closed = 1;
nodes = (
(259,105,o),
(184,198,o),
(184,364,cs),
(184,519,o),
(257,610,o),
(372,610,cs),
(487,610,o),
(562,518,o),
(562,364,cs),
(562,200,o),
(485,105,o),
(372,105,cs)
);
},
{
closed = 1;
nodes = (
(515,-10,o),
(594,0,o),
(750,0,c),
(750,116,l),
(373,94,l),
(377,-10,l)
);
}
);
width = 761;
},
{
layerId = "AF447C8E-6A86-4BB0-AFAA-0E31F633710F";
shapes = (
{
closed = 1;
nodes = (
(464,34,l),
(607,68,o),
(681,198,o),
(681,362,cs),
(681,580,o),
(551,730,o),
(363,730,cs),
(178,730,o),
(48,580,o),
(48,363,cs),
(48,144,o),
(171,-10,o),
(379,-10,c)
);
},
{
closed = 1;
nodes = (
(223,59,o),
(130,183,o),
(130,364,cs),
(130,542,o),
(221,658,o),
(363,658,cs),
(506,658,o),
(599,541,o),
(599,364,cs),
(599,184,o),
(507,59,o),
(363,59,cs)
);
},
{
closed = 1;
nodes = (
(517,-10,o),
(557,0,o),
(706,0,c),
(706,70,l),
(364,44,l),
(379,-10,l)
);
}
);
width = 730;
}
);
}
{
glyphname = R.ss09;
kernRight = KO_R;
layers = (
{
anchors = (
{
name = bottom;
pos = (316,0);
},
{
name = top;
pos = (312,720);
}
);
layerId = "522FD917-7CD6-43A0-922F-6555542696CE";
shapes = (
{
closed = 1;
nodes = (
(202,0,l),
(202,605,l),
(335,605,ls),
(403,605,o),
(440,571,o),
(440,508,cs),
(440,444,o),
(402,409,o),
(335,409,cs),
(120,409,l),
(120,297,l),
(317,297,ls),
(392,297,o),
(428,258,o),
(428,176,cs),
(428,0,l),
(580,0,l),
(580,210,ls),
(580,309,o),
(521,366,o),
(410,367,c),
(408,335,l),
(531,361,o),
(592,421,o),
(592,521,cs),
(592,642,o),
(505,720,o),
(355,720,cs),
(50,720,l),
(50,0,l)
);
}
);
width = 623;
},
{
anchors = (
{
name = bottom;
pos = (313,0);
},
{
name = top;
pos = (305,720);
}
);
layerId = "AF447C8E-6A86-4BB0-AFAA-0E31F633710F";
shapes = (
{
closed = 1;
nodes = (
(162,0,l),
(162,650,l),
(320,650,ls),
(420,650,o),
(475,603,o),
(475,521,cs),
(475,438,o),
(417,387,o),
(320,387,cs),
(140,387,l),
(140,321,l),
(328,321,ls),
(413,321,o),
(463,276,o),
(463,191,cs),
(463,0,l),
(542,0,l),
(542,206,ls),
(542,303,o),
(486,362,o),
(380,363,c),
(374,337,l),
(493,365,o),
(554,427,o),
(554,525,cs),
(554,643,o),
(466,720,o),
(323,720,cs),
(83,720,l),
(83,0,l)
);
}
);
width = 604;
}
);
userData = {
KernOnName = R;
KernOnSpecialSpacing = {
L = NoKerning;
};
};
}
{
glyphname = .notdef;
layers = (
{
layerId = "522FD917-7CD6-43A0-922F-6555542696CE";
shapes = (
{
closed = 1;
nodes = (
(581,0,l),
(581,720,l),
(50,720,l),
(50,0,l)
);
},
{
closed = 1;
nodes = (
(202,604,l),
(429,604,l),
(429,116,l),
(202,116,l)
);
}
);
width = 631;
},
{
layerId = "AF447C8E-6A86-4BB0-AFAA-0E31F633710F";
shapes = (
{
closed = 1;
nodes = (
(558,0,l),
(558,720,l),
(83,720,l),
(83,0,l)
);
},
{
closed = 1;
nodes = (
(162,650,l),
(478,650,l),
(478,70,l),
(162,70,l)
);
}
);
width = 641;
}
);
}
{
glyphname = ampersand.ss07;
layers = (
{
layerId = "522FD917-7CD6-43A0-922F-6555542696CE";
shapes = (
{
closed = 1;
nodes = (
(521,0,l),
(521,109,l),
(278,109,ls),
(215,109,o),
(181,147,o),
(181,214,cs),
(181,283,o),
(218,323,o),
(283,323,cs),
(710,323,l),
(710,431,l),
(316,431,ls),
(246,431,o),
(208,464,o),
(208,523,cs),
(208,583,o),
(248,613,o),
(330,613,cs),
(366,613,o),
(398,608,o),
(433,596,c),
(433,712,l),
(389,725,o),
(357,730,o),
(312,730,cs),
(152,730,o),
(57,661,o),
(57,546,cs),
(57,443,o),
(133,369,o),
(233,369,c),
(219,390,l),
(109,390,o),
(28,310,o),
(28,196,cs),
(28,77,o),
(113,0,o),
(243,0,cs)
);
},
{
closed = 1;
nodes = (
(596,0,l),
(596,543,l),
(444,543,l),
(444,0,l)
);
}
);
width = 736;
},
{
layerId = "AF447C8E-6A86-4BB0-AFAA-0E31F633710F";
shapes = (
{
closed = 1;
nodes = (
(495,0,l),
(495,66,l),
(258,66,ls),
(173,66,o),
(120,118,o),
(120,200,cs),
(120,288,o),
(176,345,o),
(265,345,cs),
(670,345,l),
(670,409,l),
(285,409,ls),
(197,409,o),
(147,456,o),
(147,537,cs),
(147,615,o),
(194,664,o),
(313,664,cs),
(356,664,o),
(408,659,o),
(440,648,c),
(440,713,l),
(409,724,o),
(356,730,o),
(309,730,cs),
(146,730,o),
(67,654,o),
(67,545,cs),
(67,441,o),
(139,369,o),
(233,369,c),
(229,390,l),
(118,390,o),
(38,307,o),
(38,193,cs),
(38,77,o),
(124,0,o),
(252,0,cs)
);
},
{
closed = 1;
nodes = (
(535,0,l),
(535,552,l),
(455,552,l),
(455,0,l)
);
}
);
width = 691;
}
);
metricLeft = "=|B";
metricRight = t;
}
{
glyphname = braceleft.case;
layers = (
{
layerId = "522FD917-7CD6-43A0-922F-6555542696CE";
shapes = (
{
closed = 1;
nodes = (
(392,-40,l),
(392,76,l),
(305,76,ls),
(262,76,o),
(234,107,o),
(251,149,cs),
(271,202,ls),
(301,278,o),
(255,340,o),
(189,360,c),
(256,380,o),
(301,442,o),
(271,518,cs),
(251,571,ls),
(234,613,o),
(262,644,o),
(305,644,cs),
(392,644,l),
(392,760,l),
(294,760,ls),
(146,760,o),
(81,679,o),
(118,572,cs),
(135,519,ls),
(158,453,o),
(126,418,o),
(61,418,cs),
(28,418,l),
(28,302,l),
(61,302,ls),
(126,302,o),
(158,266,o),
(135,200,cs),
(118,148,ls),
(81,41,o),
(146,-40,o),
(294,-40,cs)
);
}
);
width = 440;
},
{
layerId = "AF447C8E-6A86-4BB0-AFAA-0E31F633710F";
shapes = (
{
closed = 1;
nodes = (
(334,-40,l),
(334,22,l),
(253,22,ls),
(202,22,o),
(177,51,o),
(191,105,cs),
(220,220,ls),
(241,301,o),
(212,340,o),
(161,360,c),
(212,380,o),
(240,419,o),
(219,500,cs),
(191,615,ls),
(177,669,o),
(202,698,o),
(253,698,cs),
(334,698,l),
(334,760,l),
(247,760,ls),
(145,760,o),
(99,692,o),
(118,612,cs),
(149,479,ls),
(164,415,o),
(140,391,o),
(83,391,cs),
(38,391,l),
(38,329,l),
(83,329,ls),
(140,329,o),
(164,305,o),
(149,241,cs),
(118,108,ls),
(98,26,o),
(145,-40,o),
(247,-40,cs)
);
}
);
width = 392;
}
);
userData = {
KernOnSpecialSpacing = {
R = parenthesis;
};
};
}
{
glyphname = bracketleft.case;
kernRight = KO_bracketleft.case;
layers = (
{
layerId = "522FD917-7CD6-43A0-922F-6555542696CE";
shapes = (
{
closed = 1;
nodes = (
(392,-40,l),
(392,76,l),
(218,76,l),
(218,644,l),
(392,644,l),
(392,760,l),
(78,760,l),
(78,-40,l)
);
}
);
width = 440;
},
{
layerId = "AF447C8E-6A86-4BB0-AFAA-0E31F633710F";
shapes = (
{
closed = 1;
nodes = (
(334,-40,l),
(334,22,l),
(160,22,l),
(160,698,l),
(334,698,l),
(334,760,l),
(88,760,l),
(88,-40,l)
);
}
);
width = 392;
}
);
userData = {
KernOnSpecialSpacing = {
R = parenthesis;
};
};
}
{
glyphname = caroncomb.alt;
layers = (
{
anchors = (
{
name = _topright;
pos = (60,720);
}
);
layerId = "522FD917-7CD6-43A0-922F-6555542696CE";
shapes = (
{
closed = 1;
nodes = (
(184,720,l),
(60,720,l),
(60,483,l),
(158,483,l)
);
}
);
width = 244;
},
{
anchors = (
{
name = _topright;
pos = (60,720);
}
);
layerId = "AF447C8E-6A86-4BB0-AFAA-0E31F633710F";
shapes = (
{
closed = 1;
nodes = (
(134,720,l),
(60,720,l),
(60,503,l),
(108,503,l)
);
}
);
width = 194;
}
);
userData = {
KernOnSpecialSpacing = {
L = NoKerning;
R = NoKerning;
};
};
}
{
glyphname = cent.ss08;
layers = (
{
layerId = "522FD917-7CD6-43A0-922F-6555542696CE";
shapes = (
{
closed = 1;
nodes = (
(403,-10,o),
(499,67,o),
(515,187,c),
(388,187,l),
(376,124,o),
(339,94,o),
(278,94,cs),
(199,94,o),
(158,150,o),
(158,255,cs),
(158,360,o),
(199,416,o),
(278,416,cs),
(339,416,o),
(376,386,o),
(388,323,c),
(515,323,l),
(499,444,o),
(404,520,o),
(277,520,cs),
(127,520,o),
(20,413,o),
(20,255,cs),
(20,98,o),
(126,-10,o),
(276,-10,cs)
);
},
{
closed = 1;
nodes = (
(338,-109,l),
(338,43,l),
(331,70,l),
(331,451,l),
(338,477,l),
(338,616,l),
(218,616,l),
(218,480,l),
(225,447,l),
(225,67,l),
(218,39,l),
(218,-109,l)
);
}
);
width = 533;
},
{
layerId = "AF447C8E-6A86-4BB0-AFAA-0E31F633710F";
shapes = (
{
closed = 1;
nodes = (
(371,-10,o),
(454,64,o),
(468,172,c),
(397,172,l),
(386,102,o),
(338,55,o),
(267,55,cs),
(175,55,o),
(118,134,o),
(118,257,cs),
(118,380,o),
(175,455,o),
(267,455,cs),
(340,455,o),
(385,408,o),
(396,337,c),
(467,337,l),
(454,449,o),
(376,520,o),
(266,520,cs),
(133,520,o),
(39,413,o),
(39,257,cs),
(39,100,o),
(133,-10,o),
(266,-10,cs)
);
},
{
closed = 1;
nodes = (
(295,-109,l),
(295,17,l),
(295,35,l),
(295,474,l),
(295,494,l),
(295,616,l),
(232,616,l),
(232,497,l),
(233,475,l),
(233,35,l),
(232,14,l),
(232,-109,l)
);
}
);
width = 503;
}
);
}
{
glyphname = comma.ss01;
kernLeft = KO_period;
kernRight = KO_comma;
layers = (
{
layerId = "522FD917-7CD6-43A0-922F-6555542696CE";
shapes = (
{
closed = 1;
nodes = (
(168,-138,o),
(230,-57,o),
(230,47,cs),
(230,135,o),
(187,173,o),
(135,173,cs),
(88,173,o),
(47,137,o),
(47,84,cs),
(47,31,o),
(86,-6,o),
(138,-6,cs),
(156,-6,o),
(178,3,o),
(193,15,c),
(145,16,l),
(145,-41,o),
(121,-76,o),
(65,-94,c),
(65,-166,l)
);
}
);
width = 276;
},
{
layerId = "AF447C8E-6A86-4BB0-AFAA-0E31F633710F";
shapes = (
{
closed = 1;
nodes = (
(142,-120,o),
(180,-63,o),
(180,21,cs),
(180,80,o),
(153,103,o),
(121,103,cs),
(91,103,o),
(67,81,o),
(67,47,cs),
(67,16,o),
(91,-7,o),
(124,-7,cs),
(137,-7,o),
(149,-1,o),
(158,6,c),
(135,3,l),
(135,-60,o),
(113,-86,o),
(78,-101,c),
(78,-141,l)
);
}
);
width = 247;
}
);
userData = {
KernOnSpecialSpacing = {
L = period;
R = period;
};
};
}
{
glyphname = commaaccentcomb.ss01;
layers = (
{
anchors = (
{
name = _bottom;
pos = (144,0);
},
{
name = bottom;
pos = (144,-348);
}
);
layerId = "522FD917-7CD6-43A0-922F-6555542696CE";
shapes = (
{
closed = 1;
nodes = (
(170,-345,o),
(226,-268,o),
(226,-173,cs),
(226,-101,o),
(189,-67,o),
(140,-67,cs),
(96,-67,o),
(60,-99,o),
(60,-144,cs),
(60,-188,o),
(96,-221,o),
(143,-221,cs),
(159,-221,o),
(179,-214,o),
(193,-203,c),
(149,-202,l),
(149,-253,o),
(126,-281,o),
(77,-282,c),
(77,-348,l)
);
}
);
width = 286;
},
{
anchors = (
{
name = _bottom;
pos = (117,0);
},
{
name = bottom;
pos = (117,-291);
}
);
layerId = "AF447C8E-6A86-4BB0-AFAA-0E31F633710F";
shapes = (
{
closed = 1;
nodes = (
(135,-270,o),
(173,-213,o),
(173,-149,cs),
(173,-90,o),
(146,-67,o),
(114,-67,cs),
(85,-67,o),
(60,-89,o),
(60,-123,cs),
(60,-154,o),
(84,-177,o),
(117,-177,cs),
(130,-177,o),
(142,-171,o),
(151,-164,c),
(128,-167,l),
(128,-210,o),
(106,-236,o),
(71,-251,c),
(71,-291,l)
);
}
);
width = 233;
}
);
userData = {
KernOnSpecialSpacing = {
L = NoKerning;
R = NoKerning;
};
};
}
{
glyphname = commaturnedabovecomb.ss01;
layers = (
{
anchors = (
{
name = _top;
pos = (144,510);
},
{
name = top;
pos = (144,857);
}
);
layerId = "522FD917-7CD6-43A0-922F-6555542696CE";
shapes = (
{
closed = 1;
nodes = (
(190,576,o),
(226,609,o),
(226,653,cs),
(226,697,o),
(190,731,o),
(144,731,cs),
(128,731,o),
(107,723,o),
(93,712,c),
(138,711,l),
(138,762,o),
(160,790,o),
(210,791,c),
(210,857,l),
(117,854,o),
(60,777,o),
(60,682,cs),
(60,610,o),
(98,576,o),
(147,576,cs)
);
}
);
width = 286;
},
{
anchors = (
{
name = _top;
pos = (117,510);
},
{
name = top;
pos = (117,801);
}
);
layerId = "AF447C8E-6A86-4BB0-AFAA-0E31F633710F";
shapes = (
{
closed = 1;
nodes = (
(148,576,o),
(173,599,o),
(173,632,cs),
(173,663,o),
(149,686,o),
(116,686,cs),
(103,686,o),
(90,680,o),
(82,673,c),
(105,676,l),
(105,719,o),
(127,745,o),
(162,760,c),
(162,801,l),
(97,779,o),
(60,722,o),
(60,658,cs),
(60,599,o),
(87,576,o),
(119,576,cs)
);
}
);
width = 233;
}
);
userData = {
KernOnSpecialSpacing = {
L = NoKerning;
R = NoKerning;
};
};
}
{
glyphname = dieresiscomb.ss01;
layers = (
{
anchors = (
{
name = _top;
pos = (256,510);
},
{
name = top;
pos = (256,752);
}
);
layerId = "522FD917-7CD6-43A0-922F-6555542696CE";
shapes = (
{
closed = 1;
nodes = (
(190,583,o),
(226,620,o),
(226,669,cs),
(226,717,o),
(190,752,o),
(143,752,cs),
(96,752,o),
(60,717,o),
(60,669,cs),
(60,620,o),
(96,583,o),
(143,583,cs)
);
},
{
closed = 1;
nodes = (
(416,583,o),
(452,620,o),
(452,669,cs),
(452,717,o),
(416,752,o),
(369,752,cs),
(322,752,o),
(285,717,o),
(285,669,cs),
(285,620,o),
(322,583,o),
(369,583,cs)
);
}
);
width = 512;
},
{
anchors = (
{
name = _top;
pos = (226,510);
},
{
name = top;
pos = (226,717);
}
);
layerId = "AF447C8E-6A86-4BB0-AFAA-0E31F633710F";
shapes = (
{
closed = 1;
nodes = (
(145,606,o),
(169,631,o),
(169,662,cs),
(169,694,o),
(145,717,o),
(115,717,cs),
(84,717,o),
(60,694,o),
(60,662,cs),
(60,631,o),
(84,606,o),
(115,606,cs)
);
},
{
closed = 1;
nodes = (
(367,606,o),
(391,631,o),
(391,662,cs),
(391,694,o),
(367,717,o),
(337,717,cs),
(306,717,o),
(282,694,o),
(282,662,cs),
(282,631,o),
(306,606,o),
(337,606,cs)
);
}
);
width = 451;
}
);
userData = {
KernOnSpecialSpacing = {
L = NoKerning;
R = NoKerning;
};
};
}
{
glyphname = divide.tf;
layers = (
{
layerId = "522FD917-7CD6-43A0-922F-6555542696CE";
shapes = (
{
closed = 1;
nodes = (
(520,318,l),
(520,424,l),
(60,424,l),
(60,318,l)
);
},
{
closed = 1;
nodes = (
(329,479,o),
(364,509,o),
(364,553,cs),
(364,595,o),
(329,626,o),
(291,626,cs),
(248,626,o),
(216,595,o),
(216,553,cs),
(216,509,o),
(248,479,o),
(291,479,cs)
);
},
{
closed = 1;
nodes = (
(329,117,o),
(364,147,o),
(364,191,cs),
(364,233,o),
(329,264,o),
(291,264,cs),
(248,264,o),
(216,233,o),
(216,191,cs),
(216,147,o),
(248,117,o),
(291,117,cs)
);
}
);
width = 580;
},
{
layerId = "AF447C8E-6A86-4BB0-AFAA-0E31F633710F";
shapes = (
{
closed = 1;
nodes = (
(506,338,l),
(506,404,l),
(74,404,l),
(74,338,l)
);
},
{
closed = 1;
nodes = (
(321,481,o),
(348,504,o),
(348,538,cs),
(348,570,o),
(321,594,o),
(291,594,cs),
(257,594,o),
(232,570,o),
(232,538,cs),
(232,504,o),
(257,481,o),
(291,481,cs)
);
},
{
closed = 1;
nodes = (
(321,148,o),
(348,171,o),
(348,205,cs),
(348,238,o),
(321,261,o),
(291,261,cs),
(257,261,o),
(232,238,o),
(232,205,cs),
(232,171,o),
(257,148,o),
(291,148,cs)
);
}
);
width = 580;
}
);
userData = {
KernOnSpecialSpacing = {
L = NoKerning;
R = NoKerning;
};
};
}
{
glyphname = dollar.ss08;
kernRight = KO_dollar;
layers = (
{
layerId = "522FD917-7CD6-43A0-922F-6555542696CE";
shapes = (
{
closed = 1;
nodes = (
(491,-9,o),
(590,69,o),
(590,208,cs),
(590,306,o),
(537,371,o),
(409,414,cs),
(287,455,ls),
(217,480,o),
(199,510,o),
(199,547,cs),
(199,592,o),
(239,620,o),
(305,620,cs),
(381,620,o),
(429,586,o),
(439,514,c),
(579,514,l),
(569,646,o),
(472,731,o),
(313,731,cs),
(158,731,o),
(58,652,o),
(58,524,cs),
(58,426,o),
(113,362,o),
(239,320,cs),
(361,279,ls),
(425,255,o),
(449,227,o),
(449,182,cs),
(449,132,o),
(408,102,o),
(330,102,cs),
(234,102,o),
(172,152,o),
(165,230,c),
(24,230,l),
(39,79,o),
(146,-9,o),
(323,-9,cs)
);
},
{
closed = 1;
nodes = (
(376,-109,l),
(376,43,l),
(368,70,l),
(368,665,l),
(376,691,l),
(376,830,l),
(256,830,l),
(256,694,l),
(264,661,l),
(264,67,l),
(256,39,l),
(256,-109,l)
);
}
);
width = 612;
},
{
layerId = "AF447C8E-6A86-4BB0-AFAA-0E31F633710F";
shapes = (
{
closed = 1;
nodes = (
(447,-9,o),
(529,59,o),
(529,176,cs),
(529,272,o),
(476,338,o),
(375,379,cs),
(253,430,ls),
(180,460,o),
(146,494,o),
(146,553,cs),
(146,622,o),
(197,662,o),
(286,662,cs),
(382,662,o),
(429,617,o),
(443,514,c),
(520,514,l),
(509,651,o),
(425,731,o),
(288,731,cs),
(156,731,o),
(69,657,o),
(69,546,cs),
(69,457,o),
(122,398,o),
(232,354,cs),
(348,304,ls),
(418,275,o),
(452,239,o),
(452,176,cs),
(452,100,o),
(403,60,o),
(307,60,cs),
(192,60,o),
(128,119,o),
(116,230,c),
(39,230,l),
(53,76,o),
(149,-9,o),
(307,-9,cs)
);
},
{
closed = 1;
nodes = (
(323,-109,l),
(323,17,l),
(323,35,l),
(323,688,l),
(323,708,l),
(323,830,l),
(260,830,l),
(260,711,l),
(261,689,l),
(261,35,l),
(260,14,l),
(260,-109,l)
);
}
);
width = 567;
}
);
}
{
glyphname = dotaccentcomb.ss01;
layers = (
{
anchors = (
{
name = _top;
pos = (153,510);
},
{
name = top;
pos = (153,755);
}
);
layerId = "522FD917-7CD6-43A0-922F-6555542696CE";
shapes = (
{
closed = 1;
nodes = (
(205,566,o),
(246,608,o),
(246,660,cs),
(246,717,o),
(205,755,o),
(155,755,cs),
(103,755,o),
(60,717,o),
(60,660,cs),
(60,608,o),
(103,566,o),
(155,566,cs)
);
}
);
width = 306;
},
{
anchors = (
{
name = _top;
pos = (115,510);
},
{
name = top;
pos = (115,717);
}
);
layerId = "AF447C8E-6A86-4BB0-AFAA-0E31F633710F";
shapes = (
{
closed = 1;
nodes = (
(145,606,o),
(169,631,o),
(169,662,cs),
(169,694,o),
(145,717,o),
(115,717,cs),
(84,717,o),
(60,694,o),
(60,662,cs),
(60,631,o),
(84,606,o),
(115,606,cs)
);
}
);
width = 229;
}
);
userData = {
KernOnSpecialSpacing = {
L = NoKerning;
R = NoKerning;
};
};
}
{
glyphname = eight.tf;
layers = (
{
layerId = "522FD917-7CD6-43A0-922F-6555542696CE";
shapes = (
{
closed = 1;
nodes = (
(436,-10,o),
(536,75,o),
(536,202,cs),
(536,311,o),
(469,390,o),
(369,390,c),
(351,369,l),
(460,369,o),
(518,432,o),
(518,533,cs),
(518,652,o),
(429,730,o),
(290,730,cs),
(151,730,o),
(62,652,o),
(62,533,cs),
(62,432,o),
(120,369,o),
(229,369,c),
(211,390,l),
(111,390,o),
(44,311,o),
(44,203,cs),
(44,76,o),
(145,-10,o),
(291,-10,cs)
);
},
{
closed = 1;
nodes = (
(237,106,o),
(207,145,o),
(207,214,cs),
(207,282,o),
(240,321,o),
(290,321,cs),
(339,321,o),
(373,282,o),
(373,214,cs),
(373,146,o),
(342,106,o),
(290,106,cs)
);
},
{
closed = 1;
nodes = (
(252,429,o),
(224,465,o),
(224,522,cs),
(224,578,o),
(249,614,o),
(289,614,cs),
(330,614,o),
(356,579,o),
(356,522,cs),
(356,464,o),
(327,429,o),
(290,429,cs)
);
}
);
width = 580;
},
{
layerId = "AF447C8E-6A86-4BB0-AFAA-0E31F633710F";
shapes = (
{
closed = 1;
nodes = (
(428,-10,o),
(515,77,o),
(515,195,cs),
(515,304,o),
(443,390,o),
(350,390,c),
(346,369,l),
(436,369,o),
(499,444,o),
(499,542,cs),
(499,652,o),
(415,730,o),
(292,730,cs),
(168,730,o),
(82,652,o),
(82,541,cs),
(82,444,o),
(145,369,o),
(234,369,c),
(231,390,l),
(138,390,o),
(65,304,o),
(65,195,cs),
(65,77,o),
(154,-10,o),
(291,-10,cs)
);
},
{
closed = 1;
nodes = (
(206,60,o),
(153,115,o),
(153,202,cs),
(153,288,o),
(205,343,o),
(291,343,cs),
(375,343,o),
(427,288,o),
(427,202,cs),
(427,115,o),
(374,60,o),
(291,60,cs)
);
},
{
closed = 1;
nodes = (
(217,411,o),
(169,459,o),
(169,534,cs),
(169,611,o),
(218,660,o),
(291,660,cs),
(362,660,o),
(412,611,o),
(412,534,cs),
(412,460,o),
(365,411,o),
(291,411,cs)
);
}
);
width = 580;
}
);
userData = {
KernOnSpecialSpacing = {
L = NoKerning;
R = NoKerning;
};
};
}
{
glyphname = emdash.case;
kernLeft = KO_endash.case;
kernRight = KO_endash.case;
layers = (
{
layerId = "522FD917-7CD6-43A0-922F-6555542696CE";
shapes = (
{
closed = 1;
nodes = (
(799,305,l),
(799,415,l),
(57,415,l),
(57,305,l)
);
}
);
width = 856;
},
{
layerId = "AF447C8E-6A86-4BB0-AFAA-0E31F633710F";
shapes = (
{
closed = 1;
nodes = (
(761,327,l),
(761,393,l),
(77,393,l),
(77,327,l)
);
}
);
width = 838;
}
);
metricRight = "=|";
userData = {
KernOnSpecialSpacing = {
L = dashes;
R = dashes;
};
};
}
{
glyphname = endash.case;
kernLeft = KO_endash.case;
kernRight = KO_endash.case;
layers = (
{
layerId = "522FD917-7CD6-43A0-922F-6555542696CE";
shapes = (
{
closed = 1;
nodes = (
(519,305,l),
(519,415,l),
(57,415,l),
(57,305,l)
);
}
);
width = 576;
},
{
layerId = "AF447C8E-6A86-4BB0-AFAA-0E31F633710F";
shapes = (
{
closed = 1;
nodes = (
(481,327,l),
(481,393,l),
(77,393,l),
(77,327,l)
);
}
);
width = 558;
}
);
metricRight = "=|";
userData = {
KernOnSpecialSpacing = {
L = dashes;
R = dashes;
};
};
}
{
glyphname = equal.tf;
layers = (
{
layerId = "522FD917-7CD6-43A0-922F-6555542696CE";
shapes = (
{
closed = 1;
nodes = (
(522,418,l),
(522,524,l),
(58,524,l),
(58,418,l)
);
},
{
closed = 1;
nodes = (
(522,218,l),
(522,324,l),
(58,324,l),
(58,218,l)
);
}
);
width = 580;
},
{
layerId = "AF447C8E-6A86-4BB0-AFAA-0E31F633710F";
shapes = (
{
closed = 1;
nodes = (
(506,438,l),
(506,504,l),
(74,504,l),
(74,438,l)
);
},
{
closed = 1;
nodes = (
(506,238,l),
(506,304,l),
(74,304,l),
(74,238,l)
);
}
);
width = 580;
}
);
userData = {
KernOnSpecialSpacing = {
L = NoKerning;
R = NoKerning;
};
};
}
{
glyphname = exclam.case;
kernLeft = KO_exclam.ss01;
kernRight = KO_exclam;
layers = (
{
layerId = "522FD917-7CD6-43A0-922F-6555542696CE";
shapes = (
{
closed = 1;
nodes = (
(208,270,l),
(230,720,l),
(66,720,l),
(88,270,l)
);
},
{
alignment = -1;
pos = (10,0);
ref = period;
}
);
width = 296;
},
{
layerId = "AF447C8E-6A86-4BB0-AFAA-0E31F633710F";
shapes = (
{
closed = 1;
nodes = (
(163,208,l),
(175,720,l),
(91,720,l),
(103,208,l)
);
},
{
alignment = -1;
pos = (10,0);
ref = period;
}
);
width = 267;
}
);
}
{
glyphname = exclam.ss01;
kernLeft = KO_exclam;
kernRight = KO_exclam;
layers = (
{
layerId = "522FD917-7CD6-43A0-922F-6555542696CE";
shapes = (
{
closed = 1;
nodes = (
(208,270,l),
(230,740,l),
(66,740,l),
(88,270,l)
);
},
{
alignment = -1;
pos = (10,0);
ref = period.ss01;
}
);
width = 296;
},
{
layerId = "AF447C8E-6A86-4BB0-AFAA-0E31F633710F";
shapes = (
{
closed = 1;
nodes = (
(163,208,l),
(175,740,l),
(91,740,l),
(103,208,l)
);
},
{
alignment = -1;
pos = (10,0);
ref = period.ss01;
}
);
width = 267;
}
);
userData = {
KernOnName = exclam;
KernOnSpecialSpacing = {
L = "spaced-off";
};
};
}
{
glyphname = exclamdown.case;
layers = (
{
layerId = "522FD917-7CD6-43A0-922F-6555542696CE";
shapes = (
{
closed = 1;
nodes = (
(230,0,l),
(208,450,l),
(88,450,l),
(66,0,l)
);
},
{
alignment = -1;
angle = 180;
pos = (287,720);
ref = period;
}
);
width = 297;
},
{
layerId = "AF447C8E-6A86-4BB0-AFAA-0E31F633710F";
shapes = (
{
closed = 1;
nodes = (
(174,0,l),
(162,512,l),
(102,512,l),
(90,0,l)
);
},
{
alignment = -1;
angle = 180;
pos = (256,720);
ref = period;
}
);
width = 265;
}
);
metricLeft = "=|exclam";
metricRight = "=|exclam";
userData = {
KernOnSpecialSpacing = {
R = "spaced-off";
};
};
}
{
glyphname = exclamdown.ss01;
layers = (
{
layerId = "522FD917-7CD6-43A0-922F-6555542696CE";
shapes = (
{
closed = 1;
nodes = (
(239,-205,l),
(217,240,l),
(97,240,l),
(75,-205,l)
);
},
{
alignment = -1;
angle = 180;
pos = (296,510);
ref = period.ss01;
}
);
width = 315;
},
{
layerId = "AF447C8E-6A86-4BB0-AFAA-0E31F633710F";
shapes = (
{
closed = 1;
nodes = (
(180,-205,l),
(168,302,l),
(108,302,l),
(96,-205,l)
);
},
{
alignment = -1;
angle = 180;
pos = (262,510);
ref = period.ss01;
}
);
width = 277;
}
);
metricLeft = "=|exclam";
metricRight = "=|exclam";
userData = {
KernOnSpecialSpacing = {
R = "spaced-off";
};
};
}
{
glyphname = f.ss04;
kernRight = KO_f;
layers = (
{
layerId = "522FD917-7CD6-43A0-922F-6555542696CE";
shapes = (
{
closed = 1;
nodes = (
(204,0,l),
(204,548,ls),
(204,590,o),
(226,614,o),
(275,614,cs),
(291,614,o),
(303,612,o),
(313,608,c),
(313,721,l),
(293,727,o),
(275,730,o),
(248,730,cs),
(122,730,o),
(57,669,o),
(57,550,cs),
(57,0,l)
);
},
{
closed = 1;
nodes = (
(303,397,l),
(303,510,l),
(121,510,l),
(121,397,l)
);
}
);
width = 327;
},
{
layerId = "AF447C8E-6A86-4BB0-AFAA-0E31F633710F";
shapes = (
{
closed = 1;
nodes = (
(154,0,l),
(154,585,ls),
(154,637,o),
(180,667,o),
(238,667,cs),
(256,667,o),
(272,665,o),
(281,662,c),
(281,723,l),
(270,727,o),
(257,730,o),
(231,730,cs),
(128,730,o),
(77,678,o),
(77,589,cs),
(77,0,l)
);
},
{
closed = 1;
nodes = (
(271,444,l),
(271,510,l),
(111,510,l),
(111,444,l)
);
}
);
width = 297;
}
);
metricLeft = n;
userData = {
KernOnName = f;
};
}
{
glyphname = f_f_i.ss01;
kernLeft = KO_f;
kernRight = KO_f_i;
layers = (
{
layerId = "522FD917-7CD6-43A0-922F-6555542696CE";
shapes = (
{
closed = 1;
nodes = (
(552,0,l),
(552,540,ls),
(552,582,o),
(573,604,o),
(618,604,cs),
(635,604,o),
(646,602,o),
(656,598,c),
(656,721,l),
(636,727,o),
(618,730,o),
(592,730,cs),
(470,730,o),
(405,669,o),
(405,550,cs),
(405,0,l)
);
},
{
closed = 1;
nodes = (
(240,0,l),
(240,540,ls),
(240,581,o),
(261,604,o),
(306,604,cs),
(323,604,o),
(335,602,o),
(345,598,c),
(345,721,l),
(325,727,o),
(307,730,o),
(280,730,cs),
(157,730,o),
(93,669,o),
(93,550,cs),
(93,0,l)
);
},
{
closed = 1;
nodes = (
(755,387,l),
(755,510,l),
(13,510,l),
(13,387,l)
);
},
{
closed = 1;
nodes = (
(864,0,l),
(864,510,l),
(716,510,l),
(716,0,l)
);
},
{
closed = 1;
nodes = (
(838,563,o),
(875,601,o),
(875,648,cs),
(875,699,o),
(838,734,o),
(793,734,cs),
(746,734,o),
(707,699,o),
(707,648,cs),
(707,601,o),
(746,563,o),
(793,563,cs)
);
}
);
width = 912;
},
{
layerId = "AF447C8E-6A86-4BB0-AFAA-0E31F633710F";
shapes = (
{
closed = 1;
nodes = (
(496,0,l),
(496,585,ls),
(496,637,o),
(522,667,o),
(580,667,cs),
(598,667,o),
(614,665,o),
(623,662,c),
(623,723,l),
(612,727,o),
(599,730,o),
(573,730,cs),
(470,730,o),
(419,678,o),
(419,589,cs),
(419,0,l)
);
},
{
closed = 1;
nodes = (
(191,0,l),
(191,585,ls),
(191,637,o),
(217,667,o),
(275,667,cs),
(293,667,o),
(309,665,o),
(318,662,c),
(318,723,l),
(307,727,o),
(294,730,o),
(268,730,cs),
(165,730,o),
(114,678,o),
(114,589,cs),
(114,0,l)
);
},
{
closed = 1;
nodes = (
(766,444,l),
(766,510,l),
(16,510,l),
(16,444,l)
);
},
{
closed = 1;
nodes = (
(802,0,l),
(802,510,l),
(724,510,l),
(724,0,l)
);
},
{
closed = 1;
nodes = (
(794,606,o),
(817,631,o),
(817,662,cs),
(817,694,o),
(794,717,o),
(764,717,cs),
(733,717,o),
(709,694,o),
(709,662,cs),
(709,631,o),
(733,606,o),
(764,606,cs)
);
}
);
width = 878;
}
);
metricLeft = f;
metricRight = i.ss01;
}
{
glyphname = f_f_l;
kernLeft = KO_f;
kernRight = KO_f_l;
layers = (
{
layerId = "522FD917-7CD6-43A0-922F-6555542696CE";
shapes = (
{
closed = 1;
nodes = (
(552,0,l),
(552,528,ls),
(552,570,o),
(573,594,o),
(621,594,c),
(791,594,l),
(791,720,l),
(594,720,l),
(470,720,o),
(405,659,o),
(405,540,cs),
(405,0,l)
);
},
{
closed = 1;
nodes = (
(240,0,l),
(240,528,ls),
(240,570,o),
(261,594,o),
(308,594,cs),
(325,594,o),
(337,592,o),
(347,588,c),
(347,711,l),
(327,717,o),
(309,720,o),
(282,720,cs),
(157,720,o),
(93,659,o),
(93,540,cs),
(93,0,l)
);
},
{
closed = 1;
nodes = (
(639,387,l),
(639,510,l),
(13,510,l),
(13,387,l)
);
},
{
closed = 1;
nodes = (
(864,0,l),
(864,720,l),
(716,720,l),
(716,0,l)
);
}
);
width = 921;
},
{
layerId = "AF447C8E-6A86-4BB0-AFAA-0E31F633710F";
shapes = (
{
closed = 1;
nodes = (
(496,0,l),
(496,575,ls),
(496,627,o),
(522,657,o),
(580,657,c),
(756,657,l),
(756,720,l),
(577,720,l),
(470,720,o),
(419,668,o),
(419,579,cs),
(419,0,l)
);
},
{
closed = 1;
nodes = (
(191,0,l),
(191,575,ls),
(191,627,o),
(217,657,o),
(275,657,cs),
(293,657,o),
(309,655,o),
(318,652,c),
(318,713,l),
(307,717,o),
(294,720,o),
(268,720,cs),
(165,720,o),
(114,668,o),
(114,579,cs),
(114,0,l)
);
},
{
closed = 1;
nodes = (
(606,444,l),
(606,510,l),
(16,510,l),
(16,444,l)
);
},
{
closed = 1;
nodes = (
(802,0,l),
(802,720,l),
(724,720,l),
(724,0,l)
);
}
);
width = 879;
}
);
metricLeft = f;
metricRight = l;
}
{
glyphname = f_i;
kernLeft = KO_f;
kernRight = KO_f_i.ss01;
layers = (
{
layerId = "522FD917-7CD6-43A0-922F-6555542696CE";
shapes = (
{
closed = 1;
nodes = (
(240,0,l),
(240,540,ls),
(240,582,o),
(261,604,o),
(306,604,cs),
(322,604,o),
(334,602,o),
(344,598,c),
(344,721,l),
(324,727,o),
(306,730,o),
(280,730,cs),
(157,730,o),
(93,669,o),
(93,550,cs),
(93,0,l)
);
},
{
closed = 1;
nodes = (
(552,0,l),
(552,510,l),
(404,510,l),
(404,0,l)
);
},
{
closed = 1;
nodes = (
(442,387,l),
(442,510,l),
(13,510,l),
(13,387,l)
);
},
{
closed = 1;
nodes = (
(553,569,l),
(553,720,l),
(405,720,l),
(405,569,l)
);
}
);
width = 590;
},
{
layerId = "AF447C8E-6A86-4BB0-AFAA-0E31F633710F";
shapes = (
{
closed = 1;
nodes = (
(191,0,l),
(191,585,ls),
(191,637,o),
(217,667,o),
(275,667,cs),
(293,667,o),
(309,665,o),
(318,662,c),
(318,723,l),
(307,727,o),
(294,730,o),
(268,730,cs),
(165,730,o),
(114,678,o),
(114,589,cs),
(114,0,l)
);
},
{
closed = 1;
nodes = (
(496,0,l),
(496,510,l),
(419,510,l),
(419,0,l)
);
},
{
closed = 1;
nodes = (
(460,444,l),
(460,510,l),
(16,510,l),
(16,444,l)
);
},
{
closed = 1;
nodes = (
(503,628,l),
(503,720,l),
(412,720,l),
(412,628,l)
);
}
);
width = 564;
}
);
metricLeft = f;
metricRight = i.ss01;
}
{
glyphname = f_i.ss01;
kernLeft = KO_f;
kernRight = KO_f_i;
layers = (
{
layerId = "522FD917-7CD6-43A0-922F-6555542696CE";
shapes = (
{
closed = 1;
nodes = (
(240,0,l),
(240,540,ls),
(240,582,o),
(261,604,o),
(306,604,cs),
(322,604,o),
(334,602,o),
(344,598,c),
(344,721,l),
(324,727,o),
(306,730,o),
(280,730,cs),
(157,730,o),
(93,669,o),
(93,550,cs),
(93,0,l)
);
},
{
closed = 1;
nodes = (
(552,0,l),
(552,510,l),
(404,510,l),
(404,0,l)
);
},
{
closed = 1;
nodes = (
(526,565,o),
(563,603,o),
(563,650,cs),
(563,701,o),
(526,736,o),
(481,736,cs),
(433,736,o),
(395,701,o),
(395,650,cs),
(395,603,o),
(433,565,o),
(481,565,cs)
);
},
{
closed = 1;
nodes = (
(442,387,l),
(442,510,l),
(13,510,l),
(13,387,l)
);
}
);
width = 614;
},
{
layerId = "AF447C8E-6A86-4BB0-AFAA-0E31F633710F";
shapes = (
{
closed = 1;
nodes = (
(191,0,l),
(191,585,ls),
(191,637,o),
(217,667,o),
(275,667,cs),
(293,667,o),
(309,665,o),
(318,662,c),
(318,723,l),
(307,727,o),
(294,730,o),
(268,730,cs),
(165,730,o),
(114,678,o),
(114,589,cs),
(114,0,l)
);
},
{
closed = 1;
nodes = (
(496,0,l),
(496,510,l),
(419,510,l),
(419,0,l)
);
},
{
closed = 1;
nodes = (
(489,606,o),
(512,631,o),
(512,662,cs),
(512,694,o),
(489,717,o),
(458,717,cs),
(428,717,o),
(404,694,o),
(404,662,cs),
(404,631,o),
(428,606,o),
(458,606,cs)
);
},
{
closed = 1;
nodes = (
(460,444,l),
(460,510,l),
(16,510,l),
(16,444,l)
);
}
);
width = 582;
}
);
metricLeft = f;
metricRight = i;
}
{
glyphname = f_l;
kernLeft = KO_f;
kernRight = KO_f_l;
layers = (
{
layerId = "522FD917-7CD6-43A0-922F-6555542696CE";
shapes = (
{
closed = 1;
nodes = (
(240,0,l),
(240,528,ls),
(240,570,o),
(261,594,o),
(308,594,c),
(478,594,l),
(478,720,l),
(282,720,l),
(157,720,o),
(93,659,o),
(93,540,cs),
(93,0,l)
);
},
{
closed = 1;
nodes = (
(327,387,l),
(327,510,l),
(13,510,l),
(13,387,l)
);
},
{
closed = 1;
nodes = (
(552,0,l),
(552,720,l),
(404,720,l),
(404,0,l)
);
}
);
width = 609;
},
{
layerId = "AF447C8E-6A86-4BB0-AFAA-0E31F633710F";
shapes = (
{
closed = 1;
nodes = (
(191,0,l),
(191,575,ls),
(191,627,o),
(217,657,o),
(275,657,c),
(451,657,l),
(451,720,l),
(272,720,l),
(165,720,o),
(114,668,o),
(114,579,cs),
(114,0,l)
);
},
{
closed = 1;
nodes = (
(301,444,l),
(301,510,l),
(16,510,l),
(16,444,l)
);
},
{
closed = 1;
nodes = (
(496,0,l),
(496,720,l),
(419,720,l),
(419,0,l)
);
}
);
width = 573;
}
);
metricLeft = f;
metricRight = l;
userData = {
KernOnName = f_l;
};
}
{
glyphname = five.tf;
layers = (
{
layerId = "522FD917-7CD6-43A0-922F-6555542696CE";
shapes = (
{
closed = 1;
nodes = (
(432,-10,o),
(526,80,o),
(526,237,cs),
(526,384,o),
(446,478,o),
(325,478,cs),
(259,478,o),
(219,449,o),
(189,400,c),
(239,395,l),
(252,626,l),
(166,604,l),
(487,604,l),
(487,720,l),
(114,720,l),
(84,316,l),
(223,316,l),
(241,354,o),
(266,370,o),
(291,370,cs),
(337,370,o),
(363,325,o),
(363,238,cs),
(363,148,o),
(334,106,o),
(287,106,cs),
(245,106,o),
(207,145,o),
(202,210,c),
(50,210,l),
(67,70,o),
(157,-10,o),
(290,-10,cs)
);
}
);
width = 580;
},
{
layerId = "AF447C8E-6A86-4BB0-AFAA-0E31F633710F";
shapes = (
{
closed = 1;
nodes = (
(428,-10,o),
(514,77,o),
(514,229,cs),
(514,381,o),
(427,468,o),
(307,468,cs),
(239,468,o),
(190,436,o),
(168,398,c),
(188,395,l),
(207,678,l),
(178,650,l),
(478,650,l),
(478,720,l),
(131,720,l),
(103,336,l),
(175,336,l),
(189,372,o),
(233,404,o),
(291,404,cs),
(370,404,o),
(426,347,o),
(426,229,cs),
(426,111,o),
(368,60,o),
(293,60,cs),
(222,60,o),
(169,108,o),
(156,199,c),
(71,199,l),
(86,75,o),
(165,-10,o),
(295,-10,cs)
);
}
);
width = 580;
}
);
userData = {
KernOnSpecialSpacing = {
L = NoKerning;
R = NoKerning;
};
};
}
{
glyphname = four.tf;
layers = (
{
layerId = "522FD917-7CD6-43A0-922F-6555542696CE";
shapes = (
{
closed = 1;
nodes = (
(487,0,l),
(487,720,l),
(333,720,l),
(34,250,l),
(34,135,l),
(546,135,l),
(546,250,l),
(96,250,l),
(160,205,l),
(401,586,l),
(340,612,l),
(340,208,l),
(331,188,l),
(331,0,l)
);
}
);
width = 580;
},
{
layerId = "AF447C8E-6A86-4BB0-AFAA-0E31F633710F";
shapes = (
{
closed = 1;
nodes = (
(448,0,l),
(448,720,l),
(368,720,l),
(48,224,l),
(48,165,l),
(532,165,l),
(532,234,l),
(100,234,l),
(128,203,l),
(392,612,l),
(366,612,l),
(366,208,l),
(364,188,l),
(364,0,l)
);
}
);
width = 580;
}
);
userData = {
KernOnSpecialSpacing = {
L = NoKerning;
R = NoKerning;
};
};
}
{
glyphname = fungitype;
layers = (
{
layerId = "522FD917-7CD6-43A0-922F-6555542696CE";
shapes = (
{
closed = 1;
nodes = (
(496,735,o),
(602,686,o),
(674,598,cs),
(699,565,o),
(722,511,o),
(722,462,cs),
(722,444,o),
(719,427,o),
(713,413,cs),
(694,355,o),
(630,319,o),
(565,319,cs),
(553,319,o),
(538,319,o),
(519,328,c),
(519,298,o),
(552,195,o),
(552,123,cs),
(552,18,o),
(459,-15,o),
(384,-15,cs),
(311,-15,o),
(218,18,o),
(218,123,cs),
(218,195,o),
(252,298,o),
(252,328,c),
(231,319,o),
(215,319,o),
(204,319,cs),
(140,319,o),
(78,355,o),
(57,413,cs),
(53,427,o),
(50,444,o),
(50,461,cs),
(50,509,o),
(71,565,o),
(97,598,cs),
(165,687,o),
(272,735,o),
(384,735,cs)
);
}
);
width = 772;
},
{
layerId = "AF447C8E-6A86-4BB0-AFAA-0E31F633710F";
shapes = (
{
closed = 1;
nodes = (
(496,735,o),
(602,686,o),
(674,598,cs),
(699,565,o),
(722,511,o),
(722,462,cs),
(722,444,o),
(719,427,o),
(713,413,cs),
(694,355,o),
(630,319,o),
(565,319,cs),
(553,319,o),
(538,319,o),
(519,328,c),
(519,298,o),
(552,195,o),
(552,123,cs),
(552,18,o),
(459,-15,o),
(384,-15,cs),
(311,-15,o),
(218,18,o),
(218,123,cs),
(218,195,o),
(252,298,o),
(252,328,c),
(231,319,o),
(215,319,o),
(204,319,cs),
(140,319,o),
(78,355,o),
(57,413,cs),
(53,427,o),
(50,444,o),
(50,461,cs),
(50,509,o),
(71,565,o),
(97,598,cs),
(165,687,o),
(272,735,o),
(384,735,cs)
);
}
);
width = 772;
}
);
}
{
glyphname = greater.tf;
layers = (
{
layerId = "522FD917-7CD6-43A0-922F-6555542696CE";
shapes = (
{
closed = 1;
nodes = (
(519,314,l),
(519,428,l),
(58,578,l),
(58,465,l),
(408,360,l),
(408,382,l),
(58,277,l),
(58,164,l)
);
}
);
width = 580;
},
{
layerId = "AF447C8E-6A86-4BB0-AFAA-0E31F633710F";
shapes = (
{
closed = 1;
nodes = (
(511,334,l),
(511,408,l),
(78,558,l),
(78,488,l),
(449,358,l),
(449,383,l),
(78,244,l),
(78,174,l)
);
}
);
width = 580;
}
);
userData = {
KernOnSpecialSpacing = {
L = NoKerning;
R = NoKerning;
};
};
}
{
glyphname = hyphen.case;
kernLeft = KO_hyphen.case;
kernRight = KO_hyphen.case;
layers = (
{
layerId = "522FD917-7CD6-43A0-922F-6555542696CE";
shapes = (
{
closed = 1;
nodes = (
(403,300,l),
(403,420,l),
(57,420,l),
(57,300,l)
);
}
);
width = 460;
},
{
layerId = "AF447C8E-6A86-4BB0-AFAA-0E31F633710F";
shapes = (
{
closed = 1;
nodes = (
(401,323,l),
(401,397,l),
(77,397,l),
(77,323,l)
);
}
);
width = 478;
}
);
metricRight = "=|";
userData = {
KernOnSpecialSpacing = {
L = hyphen;
R = hyphen;
};
};
}
{
glyphname = minus.tf;
layers = (
{
layerId = "522FD917-7CD6-43A0-922F-6555542696CE";
shapes = (
{
closed = 1;
nodes = (
(520,318,l),
(520,424,l),
(60,424,l),
(60,318,l)
);
}
);
width = 580;
},
{
layerId = "AF447C8E-6A86-4BB0-AFAA-0E31F633710F";
shapes = (
{
closed = 1;
nodes = (
(506,338,l),
(506,404,l),
(74,404,l),
(74,338,l)
);
}
);
width = 580;
}
);
userData = {
KernOnSpecialSpacing = {
L = NoKerning;
R = NoKerning;
};
};
}
{
glyphname = multiply.tf;
layers = (
{
layerId = "522FD917-7CD6-43A0-922F-6555542696CE";
shapes = (
{
closed = 1;
nodes = (
(521,222,l),
(136,599,l),
(59,522,l),
(444,145,l)
);
},
{
closed = 1;
nodes = (
(521,522,l),
(444,599,l),
(59,222,l),
(136,145,l)
);
}
);
width = 580;
},
{
layerId = "AF447C8E-6A86-4BB0-AFAA-0E31F633710F";
shapes = (
{
closed = 1;
nodes = (
(503,221,l),
(122,569,l),
(76,522,l),
(457,174,l)
);
},
{
closed = 1;
nodes = (
(503,522,l),
(457,569,l),
(76,221,l),
(122,174,l)
);
}
);
width = 580;
}
);
userData = {
KernOnSpecialSpacing = {
L = NoKerning;
R = NoKerning;
};
};
}
{
glyphname = nine.tf;
layers = (
{
layerId = "522FD917-7CD6-43A0-922F-6555542696CE";
shapes = (
{
closed = 1;
nodes = (
(446,-10,o),
(543,124,o),
(543,370,cs),
(543,604,o),
(449,730,o),
(277,730,cs),
(129,730,o),
(33,637,o),
(33,497,cs),
(33,365,o),
(117,274,o),
(239,274,cs),
(331,274,o),
(393,328,o),
(414,422,c),
(373,423,l),
(373,366,ls),
(373,173,o),
(351,106,o),
(278,106,cs),
(227,106,o),
(200,138,o),
(195,213,c),
(43,213,l),
(55,76,o),
(133,-10,o),
(272,-10,cs)
);
},
{
closed = 1;
nodes = (
(235,386,o),
(203,432,o),
(203,499,cs),
(203,566,o),
(233,614,o),
(291,614,cs),
(349,614,o),
(374,564,o),
(374,496,cs),
(374,430,o),
(348,386,o),
(291,386,cs)
);
}
);
width = 580;
},
{
layerId = "AF447C8E-6A86-4BB0-AFAA-0E31F633710F";
shapes = (
{
closed = 1;
nodes = (
(432,-10,o),
(515,118,o),
(515,365,cs),
(515,606,o),
(432,730,o),
(278,730,cs),
(144,730,o),
(54,641,o),
(54,502,cs),
(54,369,o),
(137,275,o),
(257,275,cs),
(350,275,o),
(430,333,o),
(448,424,c),
(425,425,l),
(425,366,ls),
(425,152,o),
(383,60,o),
(280,60,cs),
(209,60,o),
(159,104,o),
(149,207,c),
(63,207,l),
(76,63,o),
(160,-10,o),
(276,-10,cs)
);
},
{
closed = 1;
nodes = (
(193,343,o),
(144,404,o),
(144,501,cs),
(144,601,o),
(196,660,o),
(275,660,cs),
(357,660,o),
(416,594,o),
(416,495,cs),
(416,395,o),
(359,343,o),
(278,343,cs)
);
}
);
width = 580;
}
);
userData = {
KernOnSpecialSpacing = {
L = NoKerning;
R = NoKerning;
};
};
}
{
glyphname = one.tf;
layers = (
{
layerId = "522FD917-7CD6-43A0-922F-6555542696CE";
shapes = (
{
closed = 1;
nodes = (
(411,40,l),
(411,720,l),
(281,720,l),
(254,664,o),
(176,606,o),
(111,595,c),
(111,447,l),
(187,462,o),
(244,509,o),
(276,577,c),
(258,600,l),
(258,40,l)
);
},
{
closed = 1;
nodes = (
(537,0,l),
(537,116,l),
(105,116,l),
(105,0,l)
);
}
);
width = 580;
},
{
layerId = "AF447C8E-6A86-4BB0-AFAA-0E31F633710F";
shapes = (
{
closed = 1;
nodes = (
(374,12,l),
(374,720,l),
(312,720,l),
(282,658,o),
(206,603,o),
(115,586,c),
(115,510,l),
(211,526,o),
(287,585,o),
(312,633,c),
(294,640,l),
(294,12,l)
);
},
{
closed = 1;
nodes = (
(537,0,l),
(537,70,l),
(107,70,l),
(107,0,l)
);
}
);
width = 580;
}
);
userData = {
KernOnSpecialSpacing = {
L = NoKerning;
R = NoKerning;
};
};
}
{
glyphname = parenleft.case;
kernLeft = KO_parenleft;
kernRight = KO_parenleft.case;
layers = (
{
layerId = "522FD917-7CD6-43A0-922F-6555542696CE";
shapes = (
{
closed = 1;
nodes = (
(402,-40,l),
(276,73,o),
(209,216,o),
(209,359,cs),
(209,502,o),
(273,646,o),
(402,760,c),
(259,760,l),
(130,647,o),
(68,495,o),
(68,359,cs),
(68,224,o),
(129,72,o),
(259,-40,c)
);
}
);
width = 440;
},
{
layerId = "AF447C8E-6A86-4BB0-AFAA-0E31F633710F";
shapes = (
{
closed = 1;
nodes = (
(344,-40,l),
(218,77,o),
(150,210,o),
(150,360,cs),
(150,508,o),
(214,642,o),
(344,760,c),
(270,760,l),
(141,643,o),
(78,501,o),
(78,360,cs),
(78,218,o),
(138,78,o),
(270,-40,c)
);
}
);
width = 392;
}
);
userData = {
KernOnSpecialSpacing = {
R = parenthesis;
};
};
}
{
glyphname = percent.tf;
layers = (
{
layerId = "522FD917-7CD6-43A0-922F-6555542696CE";
shapes = (
{
closed = 1;
nodes = (
(119,0,l),
(553,720,l),
(461,720,l),
(27,0,l)
);
},
{
closed = 1;
nodes = (
(497,-10,o),
(563,49,o),
(563,171,cs),
(563,292,o),
(499,351,o),
(428,351,cs),
(358,351,o),
(294,292,o),
(294,171,cs),
(294,49,o),
(358,-10,o),
(428,-10,cs)
);
},
{
closed = 1;
nodes = (
(403,63,o),
(382,90,o),
(382,172,cs),
(382,252,o),
(402,278,o),
(428,278,cs),
(453,278,o),
(474,252,o),
(474,172,cs),
(474,90,o),
(451,63,o),
(428,63,cs)
);
},
{
closed = 1;
nodes = (
(221,369,o),
(286,428,o),
(286,550,cs),
(286,671,o),
(223,730,o),
(151,730,cs),
(82,730,o),
(17,672,o),
(17,550,cs),
(17,428,o),
(82,369,o),
(151,369,cs)
);
},
{
closed = 1;
nodes = (
(126,442,o),
(106,469,o),
(106,551,cs),
(106,632,o),
(126,657,o),
(151,657,cs),
(176,657,o),
(198,631,o),
(198,551,cs),
(198,469,o),
(175,442,o),
(151,442,cs)
);
}
);
width = 580;
},
{
layerId = "AF447C8E-6A86-4BB0-AFAA-0E31F633710F";
shapes = (
{
closed = 1;
nodes = (
(110,0,l),
(544,720,l),
(475,720,l),
(40,0,l)
);
},
{
closed = 1;
nodes = (
(491,-10,o),
(554,49,o),
(554,171,cs),
(554,292,o),
(493,351,o),
(424,351,cs),
(356,351,o),
(295,292,o),
(295,171,cs),
(295,49,o),
(356,-10,o),
(424,-10,cs)
);
},
{
closed = 1;
nodes = (
(390,45,o),
(362,82,o),
(362,172,cs),
(362,261,o),
(390,296,o),
(424,296,cs),
(457,296,o),
(486,260,o),
(486,172,cs),
(486,82,o),
(456,45,o),
(424,45,cs)
);
},
{
closed = 1;
nodes = (
(223,369,o),
(286,428,o),
(286,550,cs),
(286,671,o),
(225,730,o),
(156,730,cs),
(88,730,o),
(26,672,o),
(26,550,cs),
(26,428,o),
(88,369,o),
(156,369,cs)
);
},
{
closed = 1;
nodes = (
(122,424,o),
(94,461,o),
(94,551,cs),
(94,640,o),
(122,675,o),
(156,675,cs),
(189,675,o),
(218,639,o),
(218,551,cs),
(218,461,o),
(188,424,o),
(156,424,cs)
);
}
);
width = 580;
}
);
userData = {
KernOnSpecialSpacing = {
L = NoKerning;
R = NoKerning;
};
};
}
{
glyphname = period.ss01;
kernLeft = KO_period;
kernRight = KO_period;
layers = (
{
layerId = "522FD917-7CD6-43A0-922F-6555542696CE";
shapes = (
{
closed = 1;
nodes = (
(186,-10,o),
(230,27,o),
(230,82,cs),
(230,134,o),
(186,173,o),
(139,173,cs),
(87,173,o),
(47,134,o),
(47,82,cs),
(47,27,o),
(87,-10,o),
(139,-10,cs)
);
}
);
width = 276;
},
{
layerId = "AF447C8E-6A86-4BB0-AFAA-0E31F633710F";
shapes = (
{
closed = 1;
nodes = (
(153,-10,o),
(180,13,o),
(180,47,cs),
(180,80,o),
(153,103,o),
(124,103,cs),
(91,103,o),
(67,80,o),
(67,47,cs),
(67,13,o),
(91,-10,o),
(124,-10,cs)
);
}
);
width = 247;
}
);
userData = {
KernOnName = period;
KernOnSpecialSpacing = {
L = period;
R = period;
};
};
}
{
glyphname = perthousand.tf;
layers = (
{
layerId = "522FD917-7CD6-43A0-922F-6555542696CE";
shapes = (
{
closed = 1;
nodes = (
(536,430,l),
(513,499,l),
(34,346,l),
(57,277,l)
);
},
{
closed = 1;
nodes = (
(320,-10,o),
(370,48,o),
(370,143,cs),
(370,236,o),
(322,294,o),
(252,294,cs),
(183,294,o),
(136,235,o),
(136,143,cs),
(136,49,o),
(184,-10,o),
(252,-10,cs)
);
},
{
closed = 1;
nodes = (
(226,55,o),
(213,87,o),
(213,144,cs),
(213,199,o),
(226,230,o),
(252,230,cs),
(278,230,o),
(293,199,o),
(293,144,cs),
(293,86,o),
(277,55,o),
(252,55,cs)
);
},
{
closed = 1;
nodes = (
(499,-10,o),
(549,48,o),
(549,143,cs),
(549,236,o),
(501,294,o),
(431,294,cs),
(362,294,o),
(315,235,o),
(315,143,cs),
(315,49,o),
(363,-10,o),
(431,-10,cs)
);
},
{
closed = 1;
nodes = (
(405,55,o),
(392,87,o),
(392,144,cs),
(392,199,o),
(405,230,o),
(431,230,cs),
(457,230,o),
(472,199,o),
(472,144,cs),
(472,86,o),
(456,55,o),
(431,55,cs)
);
},
{
closed = 1;
nodes = (
(216,426,o),
(266,485,o),
(266,578,cs),
(266,671,o),
(218,730,o),
(149,730,cs),
(80,730,o),
(32,671,o),
(32,578,cs),
(32,485,o),
(80,426,o),
(149,426,cs)
);
},
{
closed = 1;
nodes = (
(122,490,o),
(109,523,o),
(109,579,cs),
(109,635,o),
(122,665,o),
(149,665,cs),
(174,665,o),
(189,635,o),
(189,579,cs),
(189,522,o),
(173,490,o),
(149,490,cs)
);
}
);
width = 580;
},
{
layerId = "AF447C8E-6A86-4BB0-AFAA-0E31F633710F";
shapes = (
{
closed = 1;
nodes = (
(530,432,l),
(511,490,l),
(40,340,l),
(58,282,l)
);
},
{
closed = 1;
nodes = (
(315,-10,o),
(367,49,o),
(367,151,cs),
(367,252,o),
(317,310,o),
(256,310,cs),
(194,310,o),
(143,254,o),
(143,151,cs),
(143,46,o),
(195,-10,o),
(256,-10,cs)
);
},
{
closed = 1;
nodes = (
(222,43,o),
(201,86,o),
(201,152,cs),
(201,216,o),
(222,257,o),
(256,257,cs),
(288,257,o),
(311,216,o),
(311,152,cs),
(311,85,o),
(287,43,o),
(256,43,cs)
);
},
{
closed = 1;
nodes = (
(489,-10,o),
(542,46,o),
(542,151,cs),
(542,255,o),
(491,310,o),
(428,310,cs),
(368,310,o),
(318,251,o),
(318,151,cs),
(318,49,o),
(369,-10,o),
(428,-10,cs)
);
},
{
closed = 1;
nodes = (
(395,43,o),
(373,86,o),
(373,152,cs),
(373,216,o),
(395,257,o),
(428,257,cs),
(461,257,o),
(484,216,o),
(484,152,cs),
(484,84,o),
(460,43,o),
(428,43,cs)
);
},
{
closed = 1;
nodes = (
(213,407,o),
(266,465,o),
(266,569,cs),
(266,674,o),
(215,730,o),
(152,730,cs),
(91,730,o),
(40,673,o),
(40,569,cs),
(40,465,o),
(92,407,o),
(152,407,cs)
);
},
{
closed = 1;
nodes = (
(119,460,o),
(97,503,o),
(97,570,cs),
(97,636,o),
(119,677,o),
(152,677,cs),
(185,677,o),
(208,636,o),
(208,570,cs),
(208,502,o),
(184,460,o),
(152,460,cs)
);
}
);
width = 580;
}
);
userData = {
KernOnSpecialSpacing = {
L = NoKerning;
R = NoKerning;
};
};
}
{
glyphname = question.case;
kernRight = KO_question;
layers = (
{
layerId = "522FD917-7CD6-43A0-922F-6555542696CE";
shapes = (
{
closed = 1;
nodes = (
(355,270,l),
(355,382,o),
(528,391,o),
(528,552,cs),
(528,654,o),
(434,730,o),
(292,730,cs),
(145,730,o),
(44,649,o),
(28,515,c),
(172,515,l),
(180,580,o),
(225,614,o),
(290,614,cs),
(343,614,o),
(375,589,o),
(375,551,cs),
(375,451,o),
(213,449,o),
(213,270,c)
);
},
{
alignment = -1;
pos = (146,0);
ref = period;
}
);
width = 554;
},
{
layerId = "AF447C8E-6A86-4BB0-AFAA-0E31F633710F";
shapes = (
{
closed = 1;
nodes = (
(309,208,l),
(309,398,o),
(502,373,o),
(502,555,cs),
(502,658,o),
(423,730,o),
(288,730,cs),
(149,730,o),
(54,645,o),
(43,515,c),
(120,515,l),
(132,606,o),
(191,660,o),
(285,660,cs),
(378,660,o),
(424,614,o),
(424,555,cs),
(424,415,o),
(236,430,o),
(236,208,c)
);
},
{
alignment = -1;
pos = (149,0);
ref = period;
}
);
width = 532;
}
);
}
{
glyphname = questiondown.case;
layers = (
{
layerId = "522FD917-7CD6-43A0-922F-6555542696CE";
shapes = (
{
closed = 1;
nodes = (
(409,-10,o),
(510,65,o),
(525,189,c),
(381,189,l),
(373,134,o),
(328,108,o),
(270,108,cs),
(210,108,o),
(178,133,o),
(178,177,cs),
(178,276,o),
(341,272,o),
(341,450,c),
(198,450,l),
(198,339,o),
(26,336,o),
(26,171,cs),
(26,66,o),
(119,-10,o),
(262,-10,cs)
);
},
{
alignment = -1;
angle = 180;
pos = (408,720);
ref = period;
}
);
width = 553;
},
{
layerId = "AF447C8E-6A86-4BB0-AFAA-0E31F633710F";
shapes = (
{
closed = 1;
nodes = (
(376,-10,o),
(478,66,o),
(490,189,c),
(412,189,l),
(400,106,o),
(333,60,o),
(248,60,cs),
(167,60,o),
(108,100,o),
(108,174,cs),
(108,319,o),
(296,297,o),
(296,512,c),
(224,512,l),
(224,329,o),
(30,354,o),
(30,172,cs),
(30,54,o),
(121,-10,o),
(244,-10,cs)
);
},
{
alignment = -1;
angle = 180;
pos = (383,720);
ref = period;
}
);
width = 533;
}
);
metricLeft = "=|question";
metricRight = "=|question";
userData = {
KernOnSpecialSpacing = {
R = "spaced-off";
};
};
}
{
glyphname = quoteleft.ss01;
kernLeft = KO_quotedblleft;
kernRight = KO_quotedblleft;
layers = (
{
layerId = "522FD917-7CD6-43A0-922F-6555542696CE";
shapes = (
{
closed = 1;
nodes = (
(199,421,o),
(239,457,o),
(239,505,cs),
(239,553,o),
(201,590,o),
(148,590,cs),
(130,590,o),
(108,581,o),
(93,569,c),
(141,568,l),
(141,624,o),
(165,660,o),
(231,668,c),
(231,740,l),
(118,722,o),
(56,640,o),
(56,542,cs),
(56,459,o),
(97,421,o),
(151,421,cs)
);
}
);
width = 294;
},
{
layerId = "AF447C8E-6A86-4BB0-AFAA-0E31F633710F";
shapes = (
{
closed = 1;
nodes = (
(166,495,o),
(190,518,o),
(190,551,cs),
(190,583,o),
(166,605,o),
(130,605,cs),
(117,605,o),
(105,600,o),
(96,593,c),
(119,596,l),
(119,660,o),
(143,687,o),
(186,700,c),
(186,740,l),
(113,720,o),
(74,663,o),
(74,578,cs),
(74,519,o),
(101,495,o),
(135,495,cs)
);
}
);
width = 258;
}
);
metricLeft = "=|quoteright";
metricRight = "=|quoteright";
userData = {
KernOnSpecialSpacing = {
L = quotes;
R = quotes;
};
};
}
{
glyphname = quoteright.ss01;
kernLeft = KO_quotedblright;
kernRight = KO_quoteright;
layers = (
{
layerId = "522FD917-7CD6-43A0-922F-6555542696CE";
shapes = (
{
closed = 1;
nodes = (
(168,449,o),
(230,531,o),
(230,629,cs),
(230,712,o),
(189,750,o),
(135,750,cs),
(87,750,o),
(47,714,o),
(47,666,cs),
(47,618,o),
(85,581,o),
(138,581,cs),
(156,581,o),
(178,590,o),
(193,602,c),
(145,603,l),
(145,547,o),
(121,511,o),
(55,503,c),
(55,431,l)
);
}
);
width = 276;
},
{
layerId = "AF447C8E-6A86-4BB0-AFAA-0E31F633710F";
shapes = (
{
closed = 1;
nodes = (
(141,525,o),
(180,582,o),
(180,668,cs),
(180,727,o),
(153,750,o),
(119,750,cs),
(88,750,o),
(64,727,o),
(64,694,cs),
(64,663,o),
(88,640,o),
(124,640,cs),
(137,640,o),
(149,646,o),
(158,653,c),
(135,650,l),
(135,585,o),
(109,558,o),
(68,554,c),
(68,513,l)
);
}
);
width = 247;
}
);
userData = {
KernOnSpecialSpacing = {
L = quotes;
R = quotes;
};
};
}
{
glyphname = seven.tf;
layers = (
{
layerId = "522FD917-7CD6-43A0-922F-6555542696CE";
shapes = (
{
closed = 1;
nodes = (
(322,0,l),
(338,229,o),
(417,426,o),
(526,611,c),
(526,720,l),
(54,720,l),
(54,604,l),
(394,604,l),
(380,623,l),
(262,447,o),
(176,233,o),
(158,0,c)
);
}
);
width = 580;
},
{
layerId = "AF447C8E-6A86-4BB0-AFAA-0E31F633710F";
shapes = (
{
closed = 1;
nodes = (
(287,0,l),
(300,222,o),
(369,430,o),
(511,662,c),
(511,720,l),
(69,720,l),
(69,650,l),
(447,650,l),
(439,679,l),
(284,446,o),
(210,228,o),
(193,0,c)
);
}
);
width = 580;
}
);
userData = {
KernOnSpecialSpacing = {
L = NoKerning;
R = NoKerning;
};
};
}
{
glyphname = six.tf;
layers = (
{
layerId = "522FD917-7CD6-43A0-922F-6555542696CE";
shapes = (
{
closed = 1;
nodes = (
(452,-10,o),
(546,83,o),
(546,227,cs),
(546,364,o),
(463,454,o),
(340,454,cs),
(248,454,o),
(188,400,o),
(167,307,c),
(198,297,l),
(198,354,ls),
(198,533,o),
(233,614,o),
(310,614,cs),
(351,614,o),
(381,583,o),
(386,523,c),
(538,523,l),
(521,654,o),
(439,730,o),
(312,730,cs),
(142,730,o),
(38,585,o),
(38,344,cs),
(38,115,o),
(134,-10,o),
(303,-10,cs)
);
},
{
closed = 1;
nodes = (
(239,106,o),
(194,149,o),
(194,227,cs),
(194,303,o),
(236,343,o),
(289,343,cs),
(339,343,o),
(383,304,o),
(383,225,cs),
(383,146,o),
(342,106,o),
(290,106,cs)
);
}
);
width = 580;
},
{
layerId = "AF447C8E-6A86-4BB0-AFAA-0E31F633710F";
shapes = (
{
closed = 1;
nodes = (
(436,-10,o),
(527,80,o),
(527,219,cs),
(527,358,o),
(443,452,o),
(322,452,cs),
(227,452,o),
(149,392,o),
(132,302,c),
(152,295,l),
(152,354,ls),
(152,559,o),
(204,660,o),
(309,660,cs),
(375,660,o),
(421,616,o),
(430,533,c),
(515,533,l),
(502,655,o),
(425,730,o),
(311,730,cs),
(155,730,o),
(63,594,o),
(63,350,cs),
(63,116,o),
(148,-10,o),
(303,-10,cs)
);
},
{
closed = 1;
nodes = (
(222,60,o),
(161,127,o),
(161,229,cs),
(161,326,o),
(221,384,o),
(302,384,cs),
(387,384,o),
(437,322,o),
(437,220,cs),
(437,120,o),
(384,60,o),
(305,60,cs)
);
}
);
width = 580;
}
);
userData = {
KernOnSpecialSpacing = {
L = NoKerning;
R = NoKerning;
};
};
}
{
color = 9;
glyphname = t.ss04;
kernRight = KO_t;
layers = (
{
anchors = (
{
name = bottom;
pos = (212,0);
},
{
name = center;
pos = (100,255);
},
{
name = top;
pos = (100,510);
},
{
name = topright;
pos = (267,788);
}
);
layerId = "522FD917-7CD6-43A0-922F-6555542696CE";
shapes = (
{
closed = 1;
nodes = (
(260,-11,o),
(277,-10,o),
(293,-7,c),
(308,-4,o),
(319,-1,o),
(327,4,c),
(327,116,l),
(319,113,o),
(312,111,o),
(303,109,c),
(294,107,o),
(286,106,o),
(277,106,c),
(252,106,o),
(235,111,o),
(222,122,c),
(209,133,o),
(204,148,o),
(204,169,c),
(204,698,l),
(57,631,l),
(57,173,l),
(57,111,o),
(72,65,o),
(103,35,c),
(133,4,o),
(179,-11,o),
(242,-11,c)
);
},
{
closed = 1;
nodes = (
(326,397,l),
(326,510,l),
(77,510,l),
(77,397,l)
);
}
);
width = 354;
},
{
anchors = (
{
name = bottom;
pos = (194,0);
},
{
name = center;
pos = (137,255);
},
{
name = top;
pos = (137,510);
},
{
name = topright;
pos = (251,776);
}
);
layerId = "AF447C8E-6A86-4BB0-AFAA-0E31F633710F";
shapes = (
{
closed = 1;
nodes = (
(244,-9,o),
(257,-8,o),
(270,-6,c),
(281,-5,o),
(289,-4,o),
(297,-1,c),
(297,65,l),
(291,62,o),
(285,61,o),
(276,60,c),
(266,58,o),
(255,57,o),
(243,57,c),
(212,57,o),
(190,63,o),
(175,76,c),
(161,88,o),
(154,107,o),
(154,135,c),
(154,678,l),
(77,638,l),
(77,133,l),
(77,87,o),
(90,51,o),
(114,28,c),
(138,4,o),
(177,-9,o),
(231,-9,c)
);
},
{
closed = 1;
nodes = (
(297,444,l),
(297,510,l),
(89,510,l),
(89,444,l)
);
}
);
width = 319;
}
);
metricLeft = n;
userData = {
KernOnName = t;
};
}
{
glyphname = three.tf;
layers = (
{
layerId = "522FD917-7CD6-43A0-922F-6555542696CE";
shapes = (
{
closed = 1;
nodes = (
(428,-10,o),
(529,70,o),
(529,200,cs),
(529,306,o),
(474,390,o),
(384,390,c),
(383,369,l),
(441,369,o),
(513,439,o),
(513,539,cs),
(513,656,o),
(429,730,o),
(293,730,cs),
(156,730,o),
(70,646,o),
(56,511,c),
(208,511,l),
(215,582,o),
(246,614,o),
(287,614,cs),
(337,614,o),
(351,578,o),
(351,528,cs),
(351,471,o),
(327,432,o),
(259,432,cs),
(213,432,l),
(213,318,l),
(262,318,ls),
(341,318,o),
(366,274,o),
(366,208,cs),
(366,141,o),
(331,106,o),
(288,106,cs),
(234,106,o),
(208,146,o),
(201,229,c),
(49,229,l),
(57,75,o),
(157,-10,o),
(295,-10,cs)
);
}
);
width = 580;
},
{
layerId = "AF447C8E-6A86-4BB0-AFAA-0E31F633710F";
shapes = (
{
closed = 1;
nodes = (
(424,-10,o),
(513,71,o),
(513,193,cs),
(513,309,o),
(441,390,o),
(330,390,c),
(336,369,l),
(430,369,o),
(498,438,o),
(498,543,cs),
(498,657,o),
(416,730,o),
(298,730,cs),
(173,730,o),
(85,650,o),
(76,521,c),
(161,521,l),
(168,610,o),
(224,660,o),
(295,660,cs),
(366,660,o),
(412,616,o),
(412,536,cs),
(412,459,o),
(367,411,o),
(295,411,cs),
(221,411,l),
(221,343,l),
(298,343,ls),
(375,343,o),
(425,284,o),
(425,195,cs),
(425,111,o),
(375,60,o),
(297,60,cs),
(212,60,o),
(162,119,o),
(152,217,c),
(67,217,l),
(79,72,o),
(166,-10,o),
(298,-10,cs)
);
}
);
width = 580;
}
);
userData = {
KernOnSpecialSpacing = {
L = NoKerning;
R = NoKerning;
};
};
}
{
glyphname = two.ss06;
kernLeft = KO_two;
kernRight = KO_two;
layers = (
{
layerId = "522FD917-7CD6-43A0-922F-6555542696CE";
shapes = (
{
closed = 1;
nodes = (
(520,0,l),
(520,116,l),
(154,116,l),
(173,71,l),
(143,249,o),
(507,269,o),
(507,516,cs),
(507,651,o),
(416,730,o),
(271,730,cs),
(125,730,o),
(29,646,o),
(17,511,c),
(166,511,l),
(173,577,o),
(212,614,o),
(267,614,cs),
(315,614,o),
(348,585,o),
(348,526,cs),
(348,362,o),
(26,342,o),
(26,88,cs),
(26,0,l)
);
}
);
width = 536;
},
{
layerId = "AF447C8E-6A86-4BB0-AFAA-0E31F633710F";
shapes = (
{
closed = 1;
nodes = (
(489,0,l),
(489,70,l),
(104,70,l),
(120,45,l),
(105,253,o),
(478,293,o),
(478,535,cs),
(478,657,o),
(396,730,o),
(271,730,cs),
(137,730,o),
(45,646,o),
(34,513,c),
(116,513,l),
(126,606,o),
(184,660,o),
(266,660,cs),
(341,660,o),
(392,612,o),
(392,535,cs),
(392,349,o),
(42,305,o),
(42,52,cs),
(42,0,l)
);
}
);
width = 517;
}
);
}
